<?xml version="1.0" encoding="utf-8" standalone="no"?>
<!DOCTYPE svg PUBLIC "-//W3C//DTD SVG 1.1//EN"
  "http://www.w3.org/Graphics/SVG/1.1/DTD/svg11.dtd">
<!-- Created with matplotlib (https://matplotlib.org/) -->
<svg height="432pt" version="1.1" viewBox="0 0 432 432" width="432pt" xmlns="http://www.w3.org/2000/svg" xmlns:xlink="http://www.w3.org/1999/xlink">
 <metadata>
  <rdf:RDF xmlns:cc="http://creativecommons.org/ns#" xmlns:dc="http://purl.org/dc/elements/1.1/" xmlns:rdf="http://www.w3.org/1999/02/22-rdf-syntax-ns#">
   <cc:Work>
    <dc:type rdf:resource="http://purl.org/dc/dcmitype/StillImage"/>
    <dc:date>2021-01-23T20:21:03.171551</dc:date>
    <dc:format>image/svg+xml</dc:format>
    <dc:creator>
     <cc:Agent>
      <dc:title>Matplotlib v3.3.2, https://matplotlib.org/</dc:title>
     </cc:Agent>
    </dc:creator>
   </cc:Work>
  </rdf:RDF>
 </metadata>
 <defs>
  <style type="text/css">*{stroke-linecap:butt;stroke-linejoin:round;}</style>
 </defs>
 <g id="figure_1">
  <g id="patch_1">
   <path d="M 0 432 
L 432 432 
L 432 0 
L 0 0 
z
" style="fill:#ffffff;"/>
  </g>
  <g id="axes_1">
   <g id="patch_2">
    <path d="M 367.2 237.6 
C 367.2 217.744598 363.288919 198.082265 355.690585 179.738265 
C 348.092252 161.394265 336.954435 144.725344 322.914545 130.685455 
C 308.874656 116.645565 292.205735 105.507748 273.861735 97.909415 
C 255.517735 90.311081 235.855402 86.4 216 86.4 
C 196.144598 86.4 176.482265 90.311081 158.138265 97.909415 
C 139.794265 105.507748 123.125344 116.645565 109.085455 130.685455 
C 95.045565 144.725344 83.907748 161.394265 76.309415 179.738265 
C 68.711081 198.082265 64.8 217.744598 64.8 237.6 
C 64.8 257.455402 68.711081 277.117735 76.309415 295.461735 
C 83.907748 313.805735 95.045565 330.474656 109.085455 344.514545 
C 123.125344 358.554435 139.794265 369.692252 158.138265 377.290585 
C 176.482265 384.888919 196.144598 388.8 216 388.8 
C 235.855402 388.8 255.517735 384.888919 273.861735 377.290585 
C 292.205735 369.692252 308.874656 358.554435 322.914545 344.514545 
C 336.954435 330.474656 348.092252 313.805735 355.690585 295.461735 
C 363.288919 277.117735 367.2 257.455402 367.2 237.6 
M 216 237.6 
C 216 237.6 216 237.6 216 237.6 
C 216 237.6 216 237.6 216 237.6 
C 216 237.6 216 237.6 216 237.6 
C 216 237.6 216 237.6 216 237.6 
C 216 237.6 216 237.6 216 237.6 
C 216 237.6 216 237.6 216 237.6 
C 216 237.6 216 237.6 216 237.6 
C 216 237.6 216 237.6 216 237.6 
C 216 237.6 216 237.6 216 237.6 
C 216 237.6 216 237.6 216 237.6 
C 216 237.6 216 237.6 216 237.6 
C 216 237.6 216 237.6 216 237.6 
C 216 237.6 216 237.6 216 237.6 
C 216 237.6 216 237.6 216 237.6 
C 216 237.6 216 237.6 216 237.6 
C 216 237.6 216 237.6 216 237.6 
M 367.2 237.6 
z
" style="fill:#ffffff;"/>
   </g>
   <g id="patch_3">
    <path clip-path="url(#pf255f93249)" d="M 345.561322 237.6 
L 176.096883 168.485773 
L 172.088658 313.656676 
z
" style="fill:#1f77b4;opacity:0.2;"/>
   </g>
   <g id="patch_4">
    <path clip-path="url(#pf255f93249)" d="M 338.59033 237.6 
L 179.592469 174.540306 
L 177.904437 303.583451 
z
" style="fill:#ff7f0e;opacity:0.2;"/>
   </g>
   <g id="patch_5">
    <path clip-path="url(#pf255f93249)" d="M 295.713737 237.6 
L 184.054711 182.269136 
L 179.73362 300.415213 
z
" style="fill:#2ca02c;opacity:0.2;"/>
   </g>
   <g id="matplotlib.axis_1">
    <g id="xtick_1">
     <g id="line2d_1">
      <path clip-path="url(#pf255f93249)" d="M 223.947233 237.6 
L 375.147233 237.6 
" style="fill:none;stroke:#ffffff;stroke-linecap:square;stroke-width:0.8;"/>
     </g>
     <g id="text_1">
      <!-- CO$_{2}$ -->
      <g transform="translate(386.812291 234.970972)scale(0.1 -0.1)">
       <defs>
        <path d="M 54.703125 11.015625 
C 48 6.5 44.90625 5.1875 36.796875 5.1875 
C 22.796875 5.1875 14.59375 20.375 14.59375 34.234375 
C 14.59375 49.015625 23 63.59375 37.203125 63.59375 
C 43.59375 63.59375 47.796875 61.78125 52.90625 58.5625 
L 54.296875 66.484375 
C 49.5 68.890625 43.40625 70 37.296875 70 
C 18.09375 70 6.203125 52.234375 6.203125 34.234375 
C 6.203125 14.4375 20.296875 -1.203125 36.296875 -1.203125 
C 44.90625 -1.203125 47.90625 -0.5 55.296875 4.1875 
z
" id="CMSS17-67"/>
        <path d="M 64 34.390625 
C 64 55.328125 50.296875 71 34.59375 71 
C 18.90625 71 5.203125 55.234375 5.203125 34.390625 
C 5.203125 13.359375 19.09375 -2 34.59375 -2 
C 50.09375 -2 64 13.359375 64 34.390625 
z
M 34.59375 4.296875 
C 23.59375 4.296875 13.59375 16.671875 13.59375 35.703125 
C 13.59375 54.21875 24.203125 64.6875 34.59375 64.6875 
C 45 64.6875 55.59375 54.21875 55.59375 35.703125 
C 55.59375 16.578125 45.5 4.296875 34.59375 4.296875 
z
" id="CMSS17-79"/>
        <path d="M 41.703125 15.46875 
L 39.90625 15.46875 
C 38.90625 8.390625 38.09375 7.1875 37.703125 6.59375 
C 37.203125 5.796875 30 5.796875 28.59375 5.796875 
L 9.40625 5.796875 
C 13 9.6875 20 16.765625 28.5 24.9375 
C 34.59375 30.71875 41.703125 37.5 41.703125 47.390625 
C 41.703125 59.1875 32.296875 66 21.796875 66 
C 10.796875 66 4.09375 56.296875 4.09375 47.296875 
C 4.09375 43.390625 7 42.890625 8.203125 42.890625 
C 9.203125 42.890625 12.203125 43.484375 12.203125 46.984375 
C 12.203125 50.09375 9.59375 51 8.203125 51 
C 7.59375 51 7 50.890625 6.59375 50.6875 
C 8.5 59.1875 14.296875 63.390625 20.40625 63.390625 
C 29.09375 63.390625 34.796875 56.5 34.796875 47.390625 
C 34.796875 38.703125 29.703125 31.21875 24 24.734375 
L 4.09375 2.296875 
L 4.09375 0 
L 39.296875 0 
z
" id="CMR17-50"/>
       </defs>
       <use transform="scale(0.996264)" xlink:href="#CMSS17-67"/>
       <use transform="translate(59.855772 0)scale(0.996264)" xlink:href="#CMSS17-79"/>
       <use transform="translate(128.880027 -14.943915)scale(0.697382)" xlink:href="#CMR17-50"/>
      </g>
      <!-- $500\,$ppm -->
      <g transform="translate(378.240272 245.210348)scale(0.1 -0.1)">
       <defs>
        <path d="M 11.40625 58.59375 
C 12.40625 58.1875 16.5 56.890625 20.703125 56.890625 
C 30 56.890625 35.09375 61.890625 38 64.6875 
C 38 65.484375 38 66 37.40625 66 
C 37.296875 66 37.09375 66 36.296875 65.59375 
C 32.796875 64.09375 28.703125 63 23.703125 63 
C 20.703125 63 16.203125 63.359375 11.296875 65.484375 
C 10.203125 66 10 66 9.90625 66 
C 9.40625 66 9.296875 65.890625 9.296875 63.90625 
L 9.296875 34.859375 
C 9.296875 33.015625 9.296875 32.5 10.296875 32.5 
C 10.796875 32.5 11 32.703125 11.5 33.421875 
C 14.703125 38.046875 19.09375 40 24.09375 40 
C 27.59375 40 35.09375 37.734375 35.09375 20.203125 
C 35.09375 16.984375 35.09375 11.1875 32.09375 6.59375 
C 29.59375 2.484375 25.703125 0.390625 21.40625 0.390625 
C 14.796875 0.390625 8.09375 4.984375 6.296875 12.6875 
C 6.703125 12.59375 7.5 12.390625 7.90625 12.390625 
C 9.203125 12.390625 11.703125 13.09375 11.703125 16.1875 
C 11.703125 18.890625 9.796875 20 7.90625 20 
C 5.59375 20 4.09375 18.59375 4.09375 15.796875 
C 4.09375 7.09375 11 -2 21.59375 -2 
C 31.90625 -2 41.703125 6.890625 41.703125 19.796875 
C 41.703125 32.09375 33.90625 41.59375 24.203125 41.59375 
C 19.09375 41.59375 14.796875 39.6875 11.40625 36 
z
" id="CMR17-53"/>
        <path d="M 42 31.84375 
C 42 37.96875 41.90625 48.421875 37.703125 56.453125 
C 34 63.484375 28.09375 66 22.90625 66 
C 18.09375 66 12 63.78125 8.203125 56.5625 
C 4.203125 49.015625 3.796875 39.671875 3.796875 31.84375 
C 3.796875 26.109375 3.90625 17.375 7 9.734375 
C 11.296875 -0.609375 19 -2 22.90625 -2 
C 27.5 -2 34.5 -0.109375 38.59375 9.4375 
C 41.59375 16.375 42 24.5 42 31.84375 
z
M 22.90625 -0.40625 
C 16.5 -0.40625 12.703125 5.125 11.296875 12.75 
C 10.203125 18.6875 10.203125 27.328125 10.203125 32.953125 
C 10.203125 40.6875 10.203125 47.109375 11.5 53.234375 
C 13.40625 61.78125 19 64.390625 22.90625 64.390625 
C 27 64.390625 32.296875 61.671875 34.203125 53.4375 
C 35.5 47.71875 35.59375 40.984375 35.59375 32.953125 
C 35.59375 26.421875 35.59375 18.375 34.40625 12.453125 
C 32.296875 1.5 26.40625 -0.40625 22.90625 -0.40625 
z
" id="CMR17-48"/>
        <path d="M 15.09375 4.296875 
C 18.40625 1.09375 22.90625 -1 27.703125 -1 
C 37 -1 45 8.640625 45 21.59375 
C 45 33.546875 39 44 30.40625 44 
C 25.40625 44 19.40625 42.1875 14.90625 38.59375 
L 14.90625 43.1875 
L 7.5 43.1875 
L 7.5 -20 
L 15.09375 -20 
z
M 15.09375 32.625 
C 15.90625 33.84375 19.296875 37.6875 24.796875 37.6875 
C 31.796875 37.6875 37.40625 30.40625 37.40625 21.59375 
C 37.40625 11.578125 30.59375 5.09375 23.90625 5.09375 
C 21.90625 5.09375 19.796875 5.59375 17.796875 7.3125 
C 15.09375 9.75 15.09375 11.265625 15.09375 12.6875 
z
" id="CMSS17-112"/>
        <path d="M 67 29.34375 
C 67 36.078125 65.296875 44 54.09375 44 
C 46.59375 44 42.09375 39.296875 40.09375 36.375 
C 38.296875 41.6875 34.09375 44 28.09375 44 
C 21.296875 44 17 40.09375 14.703125 37.28125 
L 14.703125 43.484375 
L 7.40625 43.484375 
L 7.40625 0 
L 15 0 
L 15 24.3125 
C 15 30.25 17.203125 37.890625 24.296875 37.890625 
C 33.40625 37.890625 33.40625 31.453125 33.40625 28.53125 
L 33.40625 0 
L 41 0 
L 41 24.3125 
C 41 30.25 43.203125 37.890625 50.296875 37.890625 
C 59.40625 37.890625 59.40625 31.453125 59.40625 28.53125 
L 59.40625 0 
L 67 0 
z
" id="CMSS17-109"/>
       </defs>
       <use transform="scale(0.996264)" xlink:href="#CMR17-53"/>
       <use transform="translate(45.690477 0)scale(0.996264)" xlink:href="#CMR17-48"/>
       <use transform="translate(91.380954 0)scale(0.996264)" xlink:href="#CMR17-48"/>
       <use transform="translate(153.675837 0)scale(0.996264)" xlink:href="#CMSS17-112"/>
       <use transform="translate(201.88078 0)scale(0.996264)" xlink:href="#CMSS17-112"/>
       <use transform="translate(250.085723 0)scale(0.996264)" xlink:href="#CMSS17-109"/>
      </g>
     </g>
    </g>
    <g id="xtick_2">
     <g id="line2d_2">
      <path clip-path="url(#pf255f93249)" d="M 212.026384 230.717494 
L 136.426384 99.774453 
" style="fill:none;stroke:#ffffff;stroke-linecap:square;stroke-width:0.8;"/>
     </g>
     <g id="text_2">
      <!-- CO -->
      <g transform="translate(119.327061 79.391904)scale(0.1 -0.1)">
       <use transform="scale(0.996264)" xlink:href="#CMSS17-67"/>
       <use transform="translate(59.855772 0)scale(0.996264)" xlink:href="#CMSS17-79"/>
      </g>
      <!-- $150\,$ppm -->
      <g transform="translate(108.769423 89.631281)scale(0.1 -0.1)">
       <defs>
        <path d="M 26.59375 63.796875 
C 26.59375 65.890625 26.5 66 25.09375 66 
C 21.203125 61.359375 15.296875 59.890625 9.703125 59.6875 
C 9.40625 59.6875 8.90625 59.6875 8.796875 59.5 
C 8.703125 59.296875 8.703125 59.09375 8.703125 57 
C 11.796875 57 17 57.59375 21 59.984375 
L 21 7.296875 
C 21 3.796875 20.796875 2.59375 12.203125 2.59375 
L 9.203125 2.59375 
L 9.203125 0 
C 14 0.09375 19 0.1875 23.796875 0.1875 
C 28.59375 0.1875 33.59375 0.09375 38.40625 0 
L 38.40625 2.59375 
L 35.40625 2.59375 
C 26.796875 2.59375 26.59375 3.6875 26.59375 7.296875 
z
" id="CMR17-49"/>
       </defs>
       <use transform="scale(0.996264)" xlink:href="#CMR17-49"/>
       <use transform="translate(45.690477 0)scale(0.996264)" xlink:href="#CMR17-53"/>
       <use transform="translate(91.380954 0)scale(0.996264)" xlink:href="#CMR17-48"/>
       <use transform="translate(153.675837 0)scale(0.996264)" xlink:href="#CMSS17-112"/>
       <use transform="translate(201.88078 0)scale(0.996264)" xlink:href="#CMSS17-112"/>
       <use transform="translate(250.085723 0)scale(0.996264)" xlink:href="#CMSS17-109"/>
      </g>
     </g>
    </g>
    <g id="xtick_3">
     <g id="line2d_3">
      <path clip-path="url(#pf255f93249)" d="M 212.026384 244.482506 
L 136.426384 375.425547 
" style="fill:none;stroke:#ffffff;stroke-linecap:square;stroke-width:0.8;"/>
     </g>
     <g id="text_3">
      <!-- H$_{2}$ -->
      <g transform="translate(120.662309 390.550039)scale(0.1 -0.1)">
       <defs>
        <path d="M 57.40625 69 
L 49 69 
L 49 39 
L 17.203125 39 
L 17.203125 69 
L 8.796875 69 
L 8.796875 0 
L 17.203125 0 
L 17.203125 32.890625 
L 49 32.890625 
L 49 0 
L 57.40625 0 
z
" id="CMSS17-72"/>
       </defs>
       <use transform="scale(0.996264)" xlink:href="#CMSS17-72"/>
       <use transform="translate(66.061519 -14.943915)scale(0.697382)" xlink:href="#CMR17-50"/>
      </g>
      <!-- $150\,$ppm -->
      <g transform="translate(108.769423 400.789416)scale(0.1 -0.1)">
       <use transform="scale(0.996264)" xlink:href="#CMR17-49"/>
       <use transform="translate(45.690477 0)scale(0.996264)" xlink:href="#CMR17-53"/>
       <use transform="translate(91.380954 0)scale(0.996264)" xlink:href="#CMR17-48"/>
       <use transform="translate(153.675837 0)scale(0.996264)" xlink:href="#CMSS17-112"/>
       <use transform="translate(201.88078 0)scale(0.996264)" xlink:href="#CMSS17-112"/>
       <use transform="translate(250.085723 0)scale(0.996264)" xlink:href="#CMSS17-109"/>
      </g>
     </g>
    </g>
   </g>
   <g id="matplotlib.axis_2">
    <g id="ytick_1">
     <g id="line2d_4">
      <path clip-path="url(#pf255f93249)" d="M 223.947233 237.6 
C 223.947233 236.556379 223.741662 235.522906 223.342286 234.558726 
C 222.942909 233.594546 222.357494 232.718409 221.619542 231.980458 
C 220.881591 231.242506 220.005454 230.657091 219.041274 230.257714 
C 218.077094 229.858338 217.043621 229.652767 216 229.652767 
C 214.956379 229.652767 213.922906 229.858338 212.958726 230.257714 
C 211.994546 230.657091 211.118409 231.242506 210.380458 231.980458 
C 209.642506 232.718409 209.057091 233.594546 208.657714 234.558726 
C 208.258338 235.522906 208.052767 236.556379 208.052767 237.6 
C 208.052767 238.643621 208.258338 239.677094 208.657714 240.641274 
C 209.057091 241.605454 209.642506 242.481591 210.380458 243.219542 
C 211.118409 243.957494 211.994546 244.542909 212.958726 244.942286 
C 213.922906 245.341662 214.956379 245.547233 216 245.547233 
C 217.043621 245.547233 218.077094 245.341662 219.041274 244.942286 
C 220.005454 244.542909 220.881591 243.957494 221.619542 243.219542 
C 222.357494 242.481591 222.942909 241.605454 223.342286 240.641274 
C 223.741662 239.677094 223.947233 238.643621 223.947233 237.6 
" style="fill:none;stroke:#000000;stroke-linecap:square;stroke-width:0.8;"/>
     </g>
    </g>
    <g id="ytick_2">
     <g id="line2d_5">
      <path clip-path="url(#pf255f93249)" d="M 295.472328 237.6 
C 295.472328 227.163789 293.416622 216.829058 289.422857 207.187257 
C 285.429093 197.545455 279.574937 188.784093 272.195422 181.404578 
C 264.815907 174.025063 256.054545 168.170907 246.412743 164.177143 
C 236.770942 160.183378 226.436211 158.127672 216 158.127672 
C 205.563789 158.127672 195.229058 160.183378 185.587257 164.177143 
C 175.945455 168.170907 167.184093 174.025063 159.804578 181.404578 
C 152.425063 188.784093 146.570907 197.545455 142.577143 207.187257 
C 138.583378 216.829058 136.527672 227.163789 136.527672 237.6 
C 136.527672 248.036211 138.583378 258.370942 142.577143 268.012743 
C 146.570907 277.654545 152.425063 286.415907 159.804578 293.795422 
C 167.184093 301.174937 175.945455 307.029093 185.587257 311.022857 
C 195.229058 315.016622 205.563789 317.072328 216 317.072328 
C 226.436211 317.072328 236.770942 315.016622 246.412743 311.022857 
C 256.054545 307.029093 264.815907 301.174937 272.195422 293.795422 
C 279.574937 286.415907 285.429093 277.654545 289.422857 268.012743 
C 293.416622 258.370942 295.472328 248.036211 295.472328 237.6 
" style="fill:none;stroke:#000000;stroke-linecap:square;stroke-width:0.8;"/>
     </g>
    </g>
    <g id="ytick_3">
     <g id="line2d_6">
      <path clip-path="url(#pf255f93249)" d="M 366.997424 237.6 
C 366.997424 217.7712 363.091582 198.13521 355.503429 179.815788 
C 347.915276 161.496365 336.792381 144.849777 322.771302 130.828698 
C 308.750223 116.807619 292.103635 105.684724 273.784212 98.096571 
C 255.46479 90.508418 235.8288 86.602576 216 86.602576 
C 196.1712 86.602576 176.53521 90.508418 158.215788 98.096571 
C 139.896365 105.684724 123.249777 116.807619 109.228698 130.828698 
C 95.207619 144.849777 84.084724 161.496365 76.496571 179.815788 
C 68.908418 198.13521 65.002576 217.7712 65.002576 237.6 
C 65.002576 257.4288 68.908418 277.06479 76.496571 295.384212 
C 84.084724 313.703635 95.207619 330.350223 109.228698 344.371302 
C 123.249777 358.392381 139.896365 369.515276 158.215788 377.103429 
C 176.53521 384.691582 196.1712 388.597424 216 388.597424 
C 235.8288 388.597424 255.46479 384.691582 273.784212 377.103429 
C 292.103635 369.515276 308.750223 358.392381 322.771302 344.371302 
C 336.792381 330.350223 347.915276 313.703635 355.503429 295.384212 
C 363.091582 277.06479 366.997424 257.4288 366.997424 237.6 
" style="fill:none;stroke:#000000;stroke-linecap:square;stroke-width:0.8;"/>
     </g>
    </g>
    <g id="ytick_4">
     <g id="line2d_7">
      <path clip-path="url(#pf255f93249)" d="M 245.478432 237.6 
C 245.478432 233.728928 244.715915 229.895497 243.23452 226.319092 
C 241.753125 222.742688 239.581661 219.492862 236.844399 216.755601 
C 234.107138 214.018339 230.857312 211.846875 227.280908 210.36548 
C 223.704503 208.884085 219.871072 208.121568 216 208.121568 
C 212.128928 208.121568 208.295497 208.884085 204.719092 210.36548 
C 201.142688 211.846875 197.892862 214.018339 195.155601 216.755601 
C 192.418339 219.492862 190.246875 222.742688 188.76548 226.319092 
C 187.284085 229.895497 186.521568 233.728928 186.521568 237.6 
C 186.521568 241.471072 187.284085 245.304503 188.76548 248.880908 
C 190.246875 252.457312 192.418339 255.707138 195.155601 258.444399 
C 197.892862 261.181661 201.142688 263.353125 204.719092 264.83452 
C 208.295497 266.315915 212.128928 267.078432 216 267.078432 
C 219.871072 267.078432 223.704503 266.315915 227.280908 264.83452 
C 230.857312 263.353125 234.107138 261.181661 236.844399 258.444399 
C 239.581661 255.707138 241.753125 252.457312 243.23452 248.880908 
C 244.715915 245.304503 245.478432 241.471072 245.478432 237.6 
" style="fill:none;stroke:#808080;stroke-dasharray:2.96,1.28;stroke-dashoffset:0;stroke-width:0.8;"/>
     </g>
    </g>
    <g id="ytick_5">
     <g id="line2d_8">
      <path clip-path="url(#pf255f93249)" d="M 258.073376 237.6 
C 258.073376 232.074975 256.985067 226.603674 254.870731 221.499216 
C 252.756395 216.394758 249.657152 211.756413 245.75037 207.84963 
C 241.843587 203.942848 237.205242 200.843605 232.100784 198.729269 
C 226.996326 196.614933 221.525025 195.526624 216 195.526624 
C 210.474975 195.526624 205.003674 196.614933 199.899216 198.729269 
C 194.794758 200.843605 190.156413 203.942848 186.24963 207.84963 
C 182.342848 211.756413 179.243605 216.394758 177.129269 221.499216 
C 175.014933 226.603674 173.926624 232.074975 173.926624 237.6 
C 173.926624 243.125025 175.014933 248.596326 177.129269 253.700784 
C 179.243605 258.805242 182.342848 263.443587 186.24963 267.35037 
C 190.156413 271.257152 194.794758 274.356395 199.899216 276.470731 
C 205.003674 278.585067 210.474975 279.673376 216 279.673376 
C 221.525025 279.673376 226.996326 278.585067 232.100784 276.470731 
C 237.205242 274.356395 241.843587 271.257152 245.75037 267.35037 
C 249.657152 263.443587 252.756395 258.805242 254.870731 253.700784 
C 256.985067 248.596326 258.073376 243.125025 258.073376 237.6 
" style="fill:none;stroke:#808080;stroke-dasharray:2.96,1.28;stroke-dashoffset:0;stroke-width:0.8;"/>
     </g>
    </g>
    <g id="ytick_6">
     <g id="line2d_9">
      <path clip-path="url(#pf255f93249)" d="M 267.009631 237.6 
C 267.009631 230.901477 265.690168 224.268088 263.126754 218.079459 
C 260.56334 211.890831 256.805827 206.267315 252.069256 201.530744 
C 247.332685 196.794173 241.709169 193.03666 235.520541 190.473246 
C 229.331912 187.909832 222.698523 186.590369 216 186.590369 
C 209.301477 186.590369 202.668088 187.909832 196.479459 190.473246 
C 190.290831 193.03666 184.667315 196.794173 179.930744 201.530744 
C 175.194173 206.267315 171.43666 211.890831 168.873246 218.079459 
C 166.309832 224.268088 164.990369 230.901477 164.990369 237.6 
C 164.990369 244.298523 166.309832 250.931912 168.873246 257.120541 
C 171.43666 263.309169 175.194173 268.932685 179.930744 273.669256 
C 184.667315 278.405827 190.290831 282.16334 196.479459 284.726754 
C 202.668088 287.290168 209.301477 288.609631 216 288.609631 
C 222.698523 288.609631 229.331912 287.290168 235.520541 284.726754 
C 241.709169 282.16334 247.332685 278.405827 252.069256 273.669256 
C 256.805827 268.932685 260.56334 263.309169 263.126754 257.120541 
C 265.690168 250.931912 267.009631 244.298523 267.009631 237.6 
" style="fill:none;stroke:#808080;stroke-dasharray:2.96,1.28;stroke-dashoffset:0;stroke-width:0.8;"/>
     </g>
    </g>
    <g id="ytick_7">
     <g id="line2d_10">
      <path clip-path="url(#pf255f93249)" d="M 273.941129 237.6 
C 273.941129 229.991241 272.442369 222.456467 269.530623 215.42689 
C 266.618877 208.397313 262.350771 202.00964 256.970565 196.629435 
C 251.59036 191.249229 245.202687 186.981123 238.17311 184.069377 
C 231.143533 181.157631 223.608759 179.658871 216 179.658871 
C 208.391241 179.658871 200.856467 181.157631 193.82689 184.069377 
C 186.797313 186.981123 180.40964 191.249229 175.029435 196.629435 
C 169.649229 202.00964 165.381123 208.397313 162.469377 215.42689 
C 159.557631 222.456467 158.058871 229.991241 158.058871 237.6 
C 158.058871 245.208759 159.557631 252.743533 162.469377 259.77311 
C 165.381123 266.802687 169.649229 273.19036 175.029435 278.570565 
C 180.40964 283.950771 186.797313 288.218877 193.82689 291.130623 
C 200.856467 294.042369 208.391241 295.541129 216 295.541129 
C 223.608759 295.541129 231.143533 294.042369 238.17311 291.130623 
C 245.202687 288.218877 251.59036 283.950771 256.970565 278.570565 
C 262.350771 273.19036 266.618877 266.802687 269.530623 259.77311 
C 272.442369 252.743533 273.941129 245.208759 273.941129 237.6 
" style="fill:none;stroke:#808080;stroke-dasharray:2.96,1.28;stroke-dashoffset:0;stroke-width:0.8;"/>
     </g>
    </g>
    <g id="ytick_8">
     <g id="line2d_11">
      <path clip-path="url(#pf255f93249)" d="M 279.604575 237.6 
C 279.604575 229.247524 277.95932 220.976265 274.762965 213.259583 
C 271.566611 205.542901 266.881319 198.530866 260.975226 192.624774 
C 255.069134 186.718681 248.057099 182.033389 240.340417 178.837035 
C 232.623735 175.64068 224.352476 173.995425 216 173.995425 
C 207.647524 173.995425 199.376265 175.64068 191.659583 178.837035 
C 183.942901 182.033389 176.930866 186.718681 171.024774 192.624774 
C 165.118681 198.530866 160.433389 205.542901 157.237035 213.259583 
C 154.04068 220.976265 152.395425 229.247524 152.395425 237.6 
C 152.395425 245.952476 154.04068 254.223735 157.237035 261.940417 
C 160.433389 269.657099 165.118681 276.669134 171.024774 282.575226 
C 176.930866 288.481319 183.942901 293.166611 191.659583 296.362965 
C 199.376265 299.55932 207.647524 301.204575 216 301.204575 
C 224.352476 301.204575 232.623735 299.55932 240.340417 296.362965 
C 248.057099 293.166611 255.069134 288.481319 260.975226 282.575226 
C 266.881319 276.669134 271.566611 269.657099 274.762965 261.940417 
C 277.95932 254.223735 279.604575 245.952476 279.604575 237.6 
" style="fill:none;stroke:#808080;stroke-dasharray:2.96,1.28;stroke-dashoffset:0;stroke-width:0.8;"/>
     </g>
    </g>
    <g id="ytick_9">
     <g id="line2d_12">
      <path clip-path="url(#pf255f93249)" d="M 284.392951 237.6 
C 284.392951 228.61872 282.623834 219.724772 279.186847 211.427151 
C 275.74986 203.12953 270.711843 195.589605 264.361119 189.238881 
C 258.010395 182.888157 250.47047 177.85014 242.172849 174.413153 
C 233.875228 170.976166 224.98128 169.207049 216 169.207049 
C 207.01872 169.207049 198.124772 170.976166 189.827151 174.413153 
C 181.52953 177.85014 173.989605 182.888157 167.638881 189.238881 
C 161.288157 195.589605 156.25014 203.12953 152.813153 211.427151 
C 149.376166 219.724772 147.607049 228.61872 147.607049 237.6 
C 147.607049 246.58128 149.376166 255.475228 152.813153 263.772849 
C 156.25014 272.07047 161.288157 279.610395 167.638881 285.961119 
C 173.989605 292.311843 181.52953 297.34986 189.827151 300.786847 
C 198.124772 304.223834 207.01872 305.992951 216 305.992951 
C 224.98128 305.992951 233.875228 304.223834 242.172849 300.786847 
C 250.47047 297.34986 258.010395 292.311843 264.361119 285.961119 
C 270.711843 279.610395 275.74986 272.07047 279.186847 263.772849 
C 282.623834 255.475228 284.392951 246.58128 284.392951 237.6 
" style="fill:none;stroke:#808080;stroke-dasharray:2.96,1.28;stroke-dashoffset:0;stroke-width:0.8;"/>
     </g>
    </g>
    <g id="ytick_10">
     <g id="line2d_13">
      <path clip-path="url(#pf255f93249)" d="M 288.54083 237.6 
C 288.54083 228.074025 286.664421 218.640679 283.018988 209.839826 
C 279.373556 201.038973 274.029994 193.041768 267.294113 186.305887 
C 260.558232 179.570006 252.561027 174.226444 243.760174 170.581012 
C 234.959321 166.935579 225.525975 165.05917 216 165.05917 
C 206.474025 165.05917 197.040679 166.935579 188.239826 170.581012 
C 179.438973 174.226444 171.441768 179.570006 164.705887 186.305887 
C 157.970006 193.041768 152.626444 201.038973 148.981012 209.839826 
C 145.335579 218.640679 143.45917 228.074025 143.45917 237.6 
C 143.45917 247.125975 145.335579 256.559321 148.981012 265.360174 
C 152.626444 274.161027 157.970006 282.158232 164.705887 288.894113 
C 171.441768 295.629994 179.438973 300.973556 188.239826 304.618988 
C 197.040679 308.264421 206.474025 310.14083 216 310.14083 
C 225.525975 310.14083 234.959321 308.264421 243.760174 304.618988 
C 252.561027 300.973556 260.558232 295.629994 267.294113 288.894113 
C 274.029994 282.158232 279.373556 274.161027 283.018988 265.360174 
C 286.664421 256.559321 288.54083 247.125975 288.54083 237.6 
" style="fill:none;stroke:#808080;stroke-dasharray:2.96,1.28;stroke-dashoffset:0;stroke-width:0.8;"/>
     </g>
    </g>
    <g id="ytick_11">
     <g id="line2d_14">
      <path clip-path="url(#pf255f93249)" d="M 292.199519 237.6 
C 292.199519 227.593571 290.228471 217.684442 286.399176 208.439706 
C 282.569882 199.194971 276.956811 190.794417 269.881197 183.718803 
C 262.805583 176.643189 254.405029 171.030118 245.160294 167.200824 
C 235.915558 163.371529 226.006429 161.400481 216 161.400481 
C 205.993571 161.400481 196.084442 163.371529 186.839706 167.200824 
C 177.594971 171.030118 169.194417 176.643189 162.118803 183.718803 
C 155.043189 190.794417 149.430118 199.194971 145.600824 208.439706 
C 141.771529 217.684442 139.800481 227.593571 139.800481 237.6 
C 139.800481 247.606429 141.771529 257.515558 145.600824 266.760294 
C 149.430118 276.005029 155.043189 284.405583 162.118803 291.481197 
C 169.194417 298.556811 177.594971 304.169882 186.839706 307.999176 
C 196.084442 311.828471 205.993571 313.799519 216 313.799519 
C 226.006429 313.799519 235.915558 311.828471 245.160294 307.999176 
C 254.405029 304.169882 262.805583 298.556811 269.881197 291.481197 
C 276.956811 284.405583 282.569882 276.005029 286.399176 266.760294 
C 290.228471 257.515558 292.199519 247.606429 292.199519 237.6 
" style="fill:none;stroke:#808080;stroke-dasharray:2.96,1.28;stroke-dashoffset:0;stroke-width:0.8;"/>
     </g>
    </g>
    <g id="ytick_12">
     <g id="line2d_15">
      <path clip-path="url(#pf255f93249)" d="M 317.003527 237.6 
C 317.003527 224.336338 314.390875 211.201649 309.315092 198.947623 
C 304.239308 186.693598 296.799104 175.558546 287.420279 166.179721 
C 278.041454 156.800896 266.906402 149.360692 254.652377 144.284908 
C 242.398351 139.209125 229.263662 136.596473 216 136.596473 
C 202.736338 136.596473 189.601649 139.209125 177.347623 144.284908 
C 165.093598 149.360692 153.958546 156.800896 144.579721 166.179721 
C 135.200896 175.558546 127.760692 186.693598 122.684908 198.947623 
C 117.609125 211.201649 114.996473 224.336338 114.996473 237.6 
C 114.996473 250.863662 117.609125 263.998351 122.684908 276.252377 
C 127.760692 288.506402 135.200896 299.641454 144.579721 309.020279 
C 153.958546 318.399104 165.093598 325.839308 177.347623 330.915092 
C 189.601649 335.990875 202.736338 338.603527 216 338.603527 
C 229.263662 338.603527 242.398351 335.990875 254.652377 330.915092 
C 266.906402 325.839308 278.041454 318.399104 287.420279 309.020279 
C 296.799104 299.641454 304.239308 288.506402 309.315092 276.252377 
C 314.390875 263.998351 317.003527 250.863662 317.003527 237.6 
" style="fill:none;stroke:#808080;stroke-dasharray:2.96,1.28;stroke-dashoffset:0;stroke-width:0.8;"/>
     </g>
    </g>
    <g id="ytick_13">
     <g id="line2d_16">
      <path clip-path="url(#pf255f93249)" d="M 329.598472 237.6 
C 329.598472 222.682385 326.660027 207.909826 320.951303 194.127747 
C 315.242579 180.345668 306.874596 167.822097 296.32625 157.27375 
C 285.777903 146.725404 273.254332 138.357421 259.472253 132.648697 
C 245.690174 126.939973 230.917615 124.001528 216 124.001528 
C 201.082385 124.001528 186.309826 126.939973 172.527747 132.648697 
C 158.745668 138.357421 146.222097 146.725404 135.67375 157.27375 
C 125.125404 167.822097 116.757421 180.345668 111.048697 194.127747 
C 105.339973 207.909826 102.401528 222.682385 102.401528 237.6 
C 102.401528 252.517615 105.339973 267.290174 111.048697 281.072253 
C 116.757421 294.854332 125.125404 307.377903 135.67375 317.92625 
C 146.222097 328.474596 158.745668 336.842579 172.527747 342.551303 
C 186.309826 348.260027 201.082385 351.198472 216 351.198472 
C 230.917615 351.198472 245.690174 348.260027 259.472253 342.551303 
C 273.254332 336.842579 285.777903 328.474596 296.32625 317.92625 
C 306.874596 307.377903 315.242579 294.854332 320.951303 281.072253 
C 326.660027 267.290174 329.598472 252.517615 329.598472 237.6 
" style="fill:none;stroke:#808080;stroke-dasharray:2.96,1.28;stroke-dashoffset:0;stroke-width:0.8;"/>
     </g>
    </g>
    <g id="ytick_14">
     <g id="line2d_17">
      <path clip-path="url(#pf255f93249)" d="M 338.534727 237.6 
C 338.534727 221.508887 335.365128 205.57424 329.207326 190.70799 
C 323.049524 175.84174 314.023271 162.332999 302.645136 150.954864 
C 291.267001 139.576729 277.75826 130.550476 262.89201 124.392674 
C 248.02576 118.234872 232.091113 115.065273 216 115.065273 
C 199.908887 115.065273 183.97424 118.234872 169.10799 124.392674 
C 154.24174 130.550476 140.732999 139.576729 129.354864 150.954864 
C 117.976729 162.332999 108.950476 175.84174 102.792674 190.70799 
C 96.634872 205.57424 93.465273 221.508887 93.465273 237.6 
C 93.465273 253.691113 96.634872 269.62576 102.792674 284.49201 
C 108.950476 299.35826 117.976729 312.867001 129.354864 324.245136 
C 140.732999 335.623271 154.24174 344.649524 169.10799 350.807326 
C 183.97424 356.965128 199.908887 360.134727 216 360.134727 
C 232.091113 360.134727 248.02576 356.965128 262.89201 350.807326 
C 277.75826 344.649524 291.267001 335.623271 302.645136 324.245136 
C 314.023271 312.867001 323.049524 299.35826 329.207326 284.49201 
C 335.365128 269.62576 338.534727 253.691113 338.534727 237.6 
" style="fill:none;stroke:#808080;stroke-dasharray:2.96,1.28;stroke-dashoffset:0;stroke-width:0.8;"/>
     </g>
    </g>
    <g id="ytick_15">
     <g id="line2d_18">
      <path clip-path="url(#pf255f93249)" d="M 345.466225 237.6 
C 345.466225 220.598651 342.11733 203.762619 335.611195 188.055421 
C 329.10506 172.348223 319.568214 158.075324 307.546445 146.053555 
C 295.524676 134.031786 281.251777 124.49494 265.544579 117.988805 
C 249.837381 111.48267 233.001349 108.133775 216 108.133775 
C 198.998651 108.133775 182.162619 111.48267 166.455421 117.988805 
C 150.748223 124.49494 136.475324 134.031786 124.453555 146.053555 
C 112.431786 158.075324 102.89494 172.348223 96.388805 188.055421 
C 89.88267 203.762619 86.533775 220.598651 86.533775 237.6 
C 86.533775 254.601349 89.88267 271.437381 96.388805 287.144579 
C 102.89494 302.851777 112.431786 317.124676 124.453555 329.146445 
C 136.475324 341.168214 150.748223 350.70506 166.455421 357.211195 
C 182.162619 363.71733 198.998651 367.066225 216 367.066225 
C 233.001349 367.066225 249.837381 363.71733 265.544579 357.211195 
C 281.251777 350.70506 295.524676 341.168214 307.546445 329.146445 
C 319.568214 317.124676 329.10506 302.851777 335.611195 287.144579 
C 342.11733 271.437381 345.466225 254.601349 345.466225 237.6 
" style="fill:none;stroke:#808080;stroke-dasharray:2.96,1.28;stroke-dashoffset:0;stroke-width:0.8;"/>
     </g>
    </g>
    <g id="ytick_16">
     <g id="line2d_19">
      <path clip-path="url(#pf255f93249)" d="M 351.129671 237.6 
C 351.129671 219.854934 347.63428 202.282417 340.843537 185.888114 
C 334.052794 169.493811 324.098763 154.59655 311.551106 142.048894 
C 299.00345 129.501237 284.106189 119.547206 267.711886 112.756463 
C 251.317583 105.96572 233.745066 102.470329 216 102.470329 
C 198.254934 102.470329 180.682417 105.96572 164.288114 112.756463 
C 147.893811 119.547206 132.99655 129.501237 120.448894 142.048894 
C 107.901237 154.59655 97.947206 169.493811 91.156463 185.888114 
C 84.36572 202.282417 80.870329 219.854934 80.870329 237.6 
C 80.870329 255.345066 84.36572 272.917583 91.156463 289.311886 
C 97.947206 305.706189 107.901237 320.60345 120.448894 333.151106 
C 132.99655 345.698763 147.893811 355.652794 164.288114 362.443537 
C 180.682417 369.23428 198.254934 372.729671 216 372.729671 
C 233.745066 372.729671 251.317583 369.23428 267.711886 362.443537 
C 284.106189 355.652794 299.00345 345.698763 311.551106 333.151106 
C 324.098763 320.60345 334.052794 305.706189 340.843537 289.311886 
C 347.63428 272.917583 351.129671 255.345066 351.129671 237.6 
" style="fill:none;stroke:#808080;stroke-dasharray:2.96,1.28;stroke-dashoffset:0;stroke-width:0.8;"/>
     </g>
    </g>
    <g id="ytick_17">
     <g id="line2d_20">
      <path clip-path="url(#pf255f93249)" d="M 355.918046 237.6 
C 355.918046 219.226131 352.298795 201.030924 345.267419 184.055682 
C 338.236044 167.08044 327.929287 151.655288 314.936999 138.663001 
C 301.944712 125.670713 286.51956 115.363956 269.544318 108.332581 
C 252.569076 101.301205 234.373869 97.681954 216 97.681954 
C 197.626131 97.681954 179.430924 101.301205 162.455682 108.332581 
C 145.48044 115.363956 130.055288 125.670713 117.063001 138.663001 
C 104.070713 151.655288 93.763956 167.08044 86.732581 184.055682 
C 79.701205 201.030924 76.081954 219.226131 76.081954 237.6 
C 76.081954 255.973869 79.701205 274.169076 86.732581 291.144318 
C 93.763956 308.11956 104.070713 323.544712 117.063001 336.536999 
C 130.055288 349.529287 145.48044 359.836044 162.455682 366.867419 
C 179.430924 373.898795 197.626131 377.518046 216 377.518046 
C 234.373869 377.518046 252.569076 373.898795 269.544318 366.867419 
C 286.51956 359.836044 301.944712 349.529287 314.936999 336.536999 
C 327.929287 323.544712 338.236044 308.11956 345.267419 291.144318 
C 352.298795 274.169076 355.918046 255.973869 355.918046 237.6 
" style="fill:none;stroke:#808080;stroke-dasharray:2.96,1.28;stroke-dashoffset:0;stroke-width:0.8;"/>
     </g>
    </g>
    <g id="ytick_18">
     <g id="line2d_21">
      <path clip-path="url(#pf255f93249)" d="M 360.065926 237.6 
C 360.065926 218.681436 356.339381 199.946831 349.09956 182.468357 
C 341.859739 164.989883 331.247438 149.107452 317.869993 135.730007 
C 304.492548 122.352562 288.610117 111.740261 271.131643 104.50044 
C 253.653169 97.260619 234.918564 93.534074 216 93.534074 
C 197.081436 93.534074 178.346831 97.260619 160.868357 104.50044 
C 143.389883 111.740261 127.507452 122.352562 114.130007 135.730007 
C 100.752562 149.107452 90.140261 164.989883 82.90044 182.468357 
C 75.660619 199.946831 71.934074 218.681436 71.934074 237.6 
C 71.934074 256.518564 75.660619 275.253169 82.90044 292.731643 
C 90.140261 310.210117 100.752562 326.092548 114.130007 339.469993 
C 127.507452 352.847438 143.389883 363.459739 160.868357 370.69956 
C 178.346831 377.939381 197.081436 381.665926 216 381.665926 
C 234.918564 381.665926 253.653169 377.939381 271.131643 370.69956 
C 288.610117 363.459739 304.492548 352.847438 317.869993 339.469993 
C 331.247438 326.092548 341.859739 310.210117 349.09956 292.731643 
C 356.339381 275.253169 360.065926 256.518564 360.065926 237.6 
" style="fill:none;stroke:#808080;stroke-dasharray:2.96,1.28;stroke-dashoffset:0;stroke-width:0.8;"/>
     </g>
    </g>
    <g id="ytick_19">
     <g id="line2d_22">
      <path clip-path="url(#pf255f93249)" d="M 363.724615 237.6 
C 363.724615 218.200981 359.903431 198.990594 352.479748 181.068237 
C 345.056065 163.145881 334.174255 146.860101 320.457077 133.142923 
C 306.739899 119.425745 290.454119 108.543935 272.531763 101.120252 
C 254.609406 93.696569 235.399019 89.875385 216 89.875385 
C 196.600981 89.875385 177.390594 93.696569 159.468237 101.120252 
C 141.545881 108.543935 125.260101 119.425745 111.542923 133.142923 
C 97.825745 146.860101 86.943935 163.145881 79.520252 181.068237 
C 72.096569 198.990594 68.275385 218.200981 68.275385 237.6 
C 68.275385 256.999019 72.096569 276.209406 79.520252 294.131763 
C 86.943935 312.054119 97.825745 328.339899 111.542923 342.057077 
C 125.260101 355.774255 141.545881 366.656065 159.468237 374.079748 
C 177.390594 381.503431 196.600981 385.324615 216 385.324615 
C 235.399019 385.324615 254.609406 381.503431 272.531763 374.079748 
C 290.454119 366.656065 306.739899 355.774255 320.457077 342.057077 
C 334.174255 328.339899 345.056065 312.054119 352.479748 294.131763 
C 359.903431 276.209406 363.724615 256.999019 363.724615 237.6 
" style="fill:none;stroke:#808080;stroke-dasharray:2.96,1.28;stroke-dashoffset:0;stroke-width:0.8;"/>
     </g>
    </g>
   </g>
   <g id="line2d_23">
    <path clip-path="url(#pf255f93249)" d="M 223.947233 237.6 
L 366.997424 237.6 
" style="fill:none;stroke:#000000;stroke-linecap:square;stroke-width:0.75;"/>
   </g>
   <g id="line2d_24">
    <path clip-path="url(#pf255f93249)" d="M 212.026384 230.717494 
L 140.501288 106.832395 
" style="fill:none;stroke:#000000;stroke-linecap:square;stroke-width:0.75;"/>
   </g>
   <g id="line2d_25">
    <path clip-path="url(#pf255f93249)" d="M 212.026384 244.482506 
L 140.501288 368.367605 
" style="fill:none;stroke:#000000;stroke-linecap:square;stroke-width:0.75;"/>
   </g>
   <g id="line2d_26">
    <path clip-path="url(#pf255f93249)" d="M 223.947233 237.6 
L 366.997424 237.6 
" style="fill:none;stroke:#000000;stroke-linecap:square;stroke-width:0.75;"/>
   </g>
   <g id="line2d_27">
    <path clip-path="url(#pf255f93249)" d="M 345.561322 237.6 
L 176.096883 168.485773 
L 172.088658 313.656676 
L 345.561322 237.6 
" style="fill:none;stroke:#1f77b4;stroke-linecap:square;stroke-width:1.5;"/>
   </g>
   <g id="line2d_28">
    <path clip-path="url(#pf255f93249)" d="M 338.59033 237.6 
L 179.592469 174.540306 
L 177.904437 303.583451 
L 338.59033 237.6 
" style="fill:none;stroke:#ff7f0e;stroke-linecap:square;stroke-width:1.5;"/>
   </g>
   <g id="line2d_29">
    <path clip-path="url(#pf255f93249)" d="M 295.713737 237.6 
L 184.054711 182.269136 
L 179.73362 300.415213 
L 295.713737 237.6 
" style="fill:none;stroke:#2ca02c;stroke-linecap:square;stroke-width:1.5;"/>
   </g>
   <g id="text_4">
    <!-- Logarithmic polar plot -->
    <g transform="translate(161.839189 66.473406)scale(0.12 -0.12)">
     <defs>
      <path d="M 26.09375 6.5 
C 24.90625 6.5 23.703125 6.390625 22.5 6.390625 
L 17.203125 6.390625 
L 17.203125 69 
L 8.796875 69 
L 8.796875 0 
L 46.90625 0 
L 46.90625 6.5 
z
" id="CMSS17-76"/>
      <path d="M 44.203125 21.1875 
C 44.203125 33.984375 34.703125 44 23.5 44 
C 12 44 2.703125 33.6875 2.703125 21.1875 
C 2.703125 8.5 12.296875 -1 23.40625 -1 
C 34.796875 -1 44.203125 8.796875 44.203125 21.1875 
z
M 23.5 5.296875 
C 16.40625 5.296875 10.296875 11.09375 10.296875 21.984375 
C 10.296875 33.59375 17.40625 37.890625 23.40625 37.890625 
C 29.90625 37.890625 36.59375 33.1875 36.59375 21.984375 
C 36.59375 10.6875 30.09375 5.296875 23.5 5.296875 
z
" id="CMSS17-111"/>
      <path d="M 44.5 44 
C 38.796875 43.890625 33.90625 42.796875 29.90625 40.890625 
C 26.59375 43.484375 23.203125 44 20.90625 44 
C 12.203125 44 5.59375 36.8125 5.59375 28.5 
C 5.59375 23.140625 8.59375 19.09375 8.796875 18.890625 
C 7 16.390625 6 13.6875 6 10.6875 
C 6 7.1875 7.40625 4.6875 8.5 3.296875 
C 3.296875 0.09375 2.59375 -4.8125 2.59375 -6.703125 
C 2.59375 -14 11.703125 -20 23.40625 -20 
C 35.203125 -20 44.296875 -14 44.296875 -6.609375 
C 44.296875 7.1875 29 7.296875 24.796875 7.296875 
L 16.703125 7.296875 
C 15.203125 7.296875 11.203125 7.296875 11.203125 12.390625 
C 11.203125 14.390625 12.09375 15.6875 12.203125 15.796875 
C 13.703125 14.6875 16.796875 13 20.90625 13 
C 29.203125 13 36.09375 19.984375 36.09375 28.5 
C 36.09375 33.25 33.90625 36.703125 33 37.890625 
L 33.296875 37.890625 
C 33.59375 37.890625 37.796875 38.1875 39.296875 38.1875 
C 42.5 38.1875 42.796875 38.09375 45.59375 37.796875 
z
M 20.90625 18.5 
C 17.5 18.5 12.703125 20.578125 12.703125 28.5 
C 12.703125 37.109375 18.203125 38.484375 20.796875 38.484375 
C 24.203125 38.484375 29 36.40625 29 28.5 
C 29 19.875 23.5 18.5 20.90625 18.5 
z
M 24.703125 0 
C 27.09375 0 37.203125 0 37.203125 -6.8125 
C 37.203125 -11.109375 31 -14.5 23.5 -14.5 
C 15.90625 -14.5 9.703125 -11.203125 9.703125 -6.703125 
C 9.703125 -6.203125 9.703125 0 16.59375 0 
z
" id="CMSS17-103"/>
      <path d="M 37.59375 27.953125 
C 37.59375 37.484375 30.90625 44 21.90625 44 
C 17.5 44 12.703125 43.1875 7.203125 39.984375 
L 7.796875 33.328125 
C 10.296875 35.15625 14.59375 38.09375 21.796875 38.09375 
C 26.90625 38.09375 30 34.140625 30 27.84375 
L 30 24 
C 14 23.5 4 18.890625 4 11.109375 
C 4 7.0625 6.5 -1 14.796875 -1 
C 16.296875 -1 24.40625 -0.8125 30.203125 3.5 
L 30.203125 -0.203125 
L 37.59375 -0.203125 
z
M 30 12.875 
C 30 11.109375 30 8.734375 27 6.96875 
C 24.40625 5.296875 21.09375 5.09375 19.703125 5.09375 
C 14.703125 5.09375 11.296875 7.859375 11.296875 11.296875 
C 11.296875 18.203125 26.90625 18.890625 30 19 
z
" id="CMSS17-97"/>
      <path d="M 14.90625 21.390625 
C 14.90625 30.84375 21.796875 37.171875 30.59375 37.375 
L 30.59375 44 
C 24.203125 43.890625 18.203125 40.6875 14.59375 35.46875 
L 14.59375 43.484375 
L 7.5 43.484375 
L 7.5 0 
L 14.90625 0 
z
" id="CMSS17-114"/>
      <path d="M 15.296875 66 
L 6.90625 66 
L 6.90625 57.59375 
L 15.296875 57.59375 
z
M 14.796875 43 
L 7.40625 43 
L 7.40625 0 
L 14.796875 0 
z
" id="CMSS17-105"/>
      <path d="M 16.703125 37.1875 
L 29.703125 37.1875 
L 29.703125 43 
L 16.703125 43 
L 16.703125 55 
L 9.59375 55 
L 9.59375 43 
L 1.703125 43 
L 1.703125 37.1875 
L 9.40625 37.1875 
L 9.40625 11.734375 
C 9.40625 6 10.703125 -1 17.296875 -1 
C 22.296875 -1 26.90625 0.390625 31.296875 2.6875 
L 29.703125 8.609375 
C 27.296875 6.5 24.40625 5.296875 21.296875 5.296875 
C 16.90625 5.296875 16.703125 10.921875 16.703125 13.4375 
z
" id="CMSS17-116"/>
      <path d="M 40.90625 29.34375 
C 40.90625 35.671875 39.40625 44 28.09375 44 
C 21.796875 44 17.703125 40.890625 14.796875 37.484375 
L 14.796875 69 
L 7.40625 69 
L 7.40625 0 
L 15 0 
L 15 24.3125 
C 15 30.65625 17.40625 37.890625 24.203125 37.890625 
C 33 37.890625 33.296875 31.953125 33.296875 28.53125 
L 33.296875 0 
L 40.90625 0 
z
" id="CMSS17-104"/>
      <path d="M 38.5 39.6875 
C 38.5 40.390625 33.90625 42.390625 32.703125 42.796875 
C 29.40625 44 25.203125 44 24.09375 44 
C 11.09375 44 3.296875 32.6875 3.296875 21.296875 
C 3.296875 9.296875 12 -1 23.703125 -1 
C 30.40625 -1 35.203125 1.1875 39.09375 3.796875 
L 38.5 10.390625 
C 34.203125 7.09375 29.203125 5.296875 23.796875 5.296875 
C 16 5.296875 10.90625 12.09375 10.90625 21.390625 
C 10.90625 28.59375 14.203125 37.6875 24.203125 37.6875 
C 29.703125 37.6875 32.796875 36.59375 37.40625 33.484375 
z
" id="CMSS17-99"/>
      <path d="M 14.796875 69 
L 7.40625 69 
L 7.40625 0 
L 14.796875 0 
z
" id="CMSS17-108"/>
     </defs>
     <use transform="scale(0.996264)" xlink:href="#CMSS17-76"/>
     <use transform="translate(50.687105 0)scale(0.996264)" xlink:href="#CMSS17-111"/>
     <use transform="translate(97.530729 0)scale(0.996264)" xlink:href="#CMSS17-103"/>
     <use transform="translate(144.374352 0)scale(0.996264)" xlink:href="#CMSS17-97"/>
     <use transform="translate(186.693819 0)scale(0.996264)" xlink:href="#CMSS17-114"/>
     <use transform="translate(218.603592 0)scale(0.996264)" xlink:href="#CMSS17-105"/>
     <use transform="translate(240.784315 0)scale(0.996264)" xlink:href="#CMSS17-116"/>
     <use transform="translate(274.615881 0)scale(0.996264)" xlink:href="#CMSS17-104"/>
     <use transform="translate(322.820824 0)scale(0.996264)" xlink:href="#CMSS17-109"/>
     <use transform="translate(397.050079 0)scale(0.996264)" xlink:href="#CMSS17-105"/>
     <use transform="translate(419.230802 0)scale(0.996264)" xlink:href="#CMSS17-99"/>
     <use transform="translate(492.098737 0)scale(0.996264)" xlink:href="#CMSS17-112"/>
     <use transform="translate(542.906119 0)scale(0.996264)" xlink:href="#CMSS17-111"/>
     <use transform="translate(589.749742 0)scale(0.996264)" xlink:href="#CMSS17-108"/>
     <use transform="translate(611.930465 0)scale(0.996264)" xlink:href="#CMSS17-97"/>
     <use transform="translate(654.249932 0)scale(0.996264)" xlink:href="#CMSS17-114"/>
     <use transform="translate(717.388817 0)scale(0.996264)" xlink:href="#CMSS17-112"/>
     <use transform="translate(765.59376 0)scale(0.996264)" xlink:href="#CMSS17-108"/>
     <use transform="translate(787.774483 0)scale(0.996264)" xlink:href="#CMSS17-111"/>
     <use transform="translate(834.618107 0)scale(0.996264)" xlink:href="#CMSS17-116"/>
    </g>
   </g>
   <g id="legend_1">
    <g id="patch_6">
     <path d="M 290.867721 138.291866 
L 360.2 138.291866 
Q 362.2 138.291866 362.2 136.291866 
L 362.2 93.4 
Q 362.2 91.4 360.2 91.4 
L 290.867721 91.4 
Q 288.867721 91.4 288.867721 93.4 
L 288.867721 136.291866 
Q 288.867721 138.291866 290.867721 138.291866 
z
" style="fill:#ffffff;opacity:0.8;stroke:#cccccc;stroke-linejoin:miter;"/>
    </g>
    <g id="line2d_30">
     <path d="M 292.867721 99.498438 
L 312.867721 99.498438 
" style="fill:none;stroke:#1f77b4;stroke-linecap:square;stroke-width:1.5;"/>
    </g>
    <g id="line2d_31"/>
    <g id="text_5">
     <!-- $0\,$\% r.h. -->
     <g transform="translate(320.867721 102.998438)scale(0.1 -0.1)">
      <defs>
       <path d="M 61.296875 71.59375 
C 61.90625 72.59375 61.90625 73.09375 61.90625 73.1875 
C 61.90625 74.296875 61 75 60.203125 75 
C 59.09375 75 58.59375 74.1875 58.09375 73.1875 
L 17.203125 -1.703125 
C 17 -2.109375 16.59375 -2.703125 16.59375 -3.3125 
C 16.59375 -4.40625 17.5 -5.109375 18.40625 -5.109375 
C 19.296875 -5.109375 19.5 -4.703125 20.296875 -3.3125 
z
M 73.09375 14.890625 
C 73.09375 26.40625 66.90625 34.890625 60.09375 34.890625 
C 53.40625 34.890625 47 26.609375 47 14.890625 
C 47 3.171875 53.40625 -5.109375 60.09375 -5.109375 
C 67 -5.109375 73.09375 3.375 73.09375 14.890625 
z
M 60.09375 1 
C 58 1 54.59375 2.875 54.59375 14.890625 
C 54.59375 26.8125 58 28.796875 60.09375 28.796875 
C 63.796875 28.796875 65.796875 21.546875 65.796875 14.890625 
C 65.796875 8.234375 63.796875 1 60.09375 1 
z
M 31.296875 54.9375 
C 31.296875 66.5 25.09375 75 18.296875 75 
C 11.59375 75 5.203125 66.703125 5.203125 54.9375 
C 5.203125 43.1875 11.59375 34.890625 18.296875 34.890625 
C 25.203125 34.890625 31.296875 43.390625 31.296875 54.9375 
z
M 18.296875 41 
C 16.203125 41 12.796875 42.890625 12.796875 54.9375 
C 12.796875 66.90625 16.203125 68.890625 18.296875 68.890625 
C 22 68.890625 24 61.625 24 54.9375 
C 24 48.265625 22 41 18.296875 41 
z
" id="CMSS17-37"/>
       <path d="M 17 8 
L 9 8 
L 9 0 
L 17 0 
z
" id="CMSS17-46"/>
      </defs>
      <use transform="scale(0.996264)" xlink:href="#CMR17-48"/>
      <use transform="translate(62.294882 0)scale(0.996264)" xlink:href="#CMSS17-37"/>
      <use transform="translate(171.596731 0)scale(0.996264)" xlink:href="#CMSS17-114"/>
      <use transform="translate(203.506504 0)scale(0.996264)" xlink:href="#CMSS17-46"/>
      <use transform="translate(229.530709 0)scale(0.996264)" xlink:href="#CMSS17-104"/>
      <use transform="translate(277.735652 0)scale(0.996264)" xlink:href="#CMSS17-46"/>
     </g>
    </g>
    <g id="line2d_32">
     <path d="M 292.867721 114.176563 
L 312.867721 114.176563 
" style="fill:none;stroke:#ff7f0e;stroke-linecap:square;stroke-width:1.5;"/>
    </g>
    <g id="line2d_33"/>
    <g id="text_6">
     <!-- $30\,$\% r.h. -->
     <g transform="translate(320.867721 117.676563)scale(0.1 -0.1)">
      <defs>
       <path d="M 22.09375 34 
C 31 34 34.90625 26.140625 34.90625 17.09375 
C 34.90625 5.03125 28.5 0.390625 22.703125 0.390625 
C 17.40625 0.390625 8.796875 3.015625 6.09375 10.796875 
C 6.59375 10.59375 7.09375 10.59375 7.59375 10.59375 
C 10 10.59375 11.796875 12.1875 11.796875 14.796875 
C 11.796875 17.6875 9.59375 19 7.59375 19 
C 5.90625 19 3.296875 18.1875 3.296875 14.484375 
C 3.296875 5.234375 12.296875 -2 22.90625 -2 
C 34 -2 42.5 6.75 42.5 16.984375 
C 42.5 26.84375 34.5 34 25 35.09375 
C 32.59375 36.671875 39.90625 43.375 39.90625 52.390625 
C 39.90625 60.25 32 66 23 66 
C 13.90625 66 5.90625 60.34375 5.90625 52.296875 
C 5.90625 48.796875 8.5 48.1875 9.796875 48.1875 
C 11.90625 48.1875 13.703125 49.484375 13.703125 52.09375 
C 13.703125 54.6875 11.90625 56 9.796875 56 
C 9.40625 56 8.90625 56 8.5 55.796875 
C 11.40625 62.484375 19.296875 63.6875 22.796875 63.6875 
C 26.296875 63.6875 32.90625 61.96875 32.90625 52.296875 
C 32.90625 49.484375 32.5 44.546875 29.09375 40.21875 
C 26.09375 36.390625 22.703125 36.1875 19.40625 35.890625 
C 18.90625 35.890625 16.59375 35.6875 16.203125 35.6875 
C 15.5 35.59375 15.09375 35.5 15.09375 34.796875 
C 15.09375 34.09375 15.203125 34 17.203125 34 
z
" id="CMR17-51"/>
      </defs>
      <use transform="scale(0.996264)" xlink:href="#CMR17-51"/>
      <use transform="translate(45.690477 0)scale(0.996264)" xlink:href="#CMR17-48"/>
      <use transform="translate(107.985359 0)scale(0.996264)" xlink:href="#CMSS17-37"/>
      <use transform="translate(217.287208 0)scale(0.996264)" xlink:href="#CMSS17-114"/>
      <use transform="translate(249.196981 0)scale(0.996264)" xlink:href="#CMSS17-46"/>
      <use transform="translate(275.221186 0)scale(0.996264)" xlink:href="#CMSS17-104"/>
      <use transform="translate(323.426129 0)scale(0.996264)" xlink:href="#CMSS17-46"/>
     </g>
    </g>
    <g id="line2d_34">
     <path d="M 292.867721 128.854688 
L 312.867721 128.854688 
" style="fill:none;stroke:#2ca02c;stroke-linecap:square;stroke-width:1.5;"/>
    </g>
    <g id="line2d_35"/>
    <g id="text_7">
     <!-- $50\,$\% r.h. -->
     <g transform="translate(320.867721 132.354688)scale(0.1 -0.1)">
      <use transform="scale(0.996264)" xlink:href="#CMR17-53"/>
      <use transform="translate(45.690477 0)scale(0.996264)" xlink:href="#CMR17-48"/>
      <use transform="translate(107.985359 0)scale(0.996264)" xlink:href="#CMSS17-37"/>
      <use transform="translate(217.287208 0)scale(0.996264)" xlink:href="#CMSS17-114"/>
      <use transform="translate(249.196981 0)scale(0.996264)" xlink:href="#CMSS17-46"/>
      <use transform="translate(275.221186 0)scale(0.996264)" xlink:href="#CMSS17-104"/>
      <use transform="translate(323.426129 0)scale(0.996264)" xlink:href="#CMSS17-46"/>
     </g>
    </g>
   </g>
  </g>
  <g id="axes_2">
   <g id="matplotlib.axis_3">
    <g id="xtick_4"/>
    <g id="xtick_5"/>
    <g id="xtick_6"/>
    <g id="xtick_7"/>
    <g id="xtick_8"/>
    <g id="xtick_9"/>
   </g>
   <g id="matplotlib.axis_4">
    <g id="ytick_20">
     <g id="line2d_36">
      <defs>
       <path d="M 0 0 
L -3.5 0 
" id="m5c44308301" style="stroke:#000000;stroke-width:0.8;"/>
      </defs>
      <g>
       <use style="stroke:#000000;stroke-width:0.8;" x="43.2" xlink:href="#m5c44308301" y="229.652767"/>
      </g>
     </g>
     <g id="text_8">
      <!-- $\mathdefault{1}$ -->
      <g transform="translate(31.218665 233.112016)scale(0.1 -0.1)">
       <use transform="scale(0.996264)" xlink:href="#CMR17-49"/>
      </g>
     </g>
    </g>
    <g id="ytick_21">
     <g id="line2d_37">
      <g>
       <use style="stroke:#000000;stroke-width:0.8;" x="43.2" xlink:href="#m5c44308301" y="158.127672"/>
      </g>
     </g>
     <g id="text_9">
      <!-- $\mathdefault{10}$ -->
      <g transform="translate(26.237329 161.586921)scale(0.1 -0.1)">
       <use transform="scale(0.996264)" xlink:href="#CMR17-49"/>
       <use transform="translate(45.690477 0)scale(0.996264)" xlink:href="#CMR17-48"/>
      </g>
     </g>
    </g>
    <g id="ytick_22">
     <g id="line2d_38">
      <g>
       <use style="stroke:#000000;stroke-width:0.8;" x="43.2" xlink:href="#m5c44308301" y="86.602576"/>
      </g>
     </g>
     <g id="text_10">
      <!-- $\mathdefault{100}$ -->
      <g transform="translate(21.255994 90.061826)scale(0.1 -0.1)">
       <use transform="scale(0.996264)" xlink:href="#CMR17-49"/>
       <use transform="translate(45.690477 0)scale(0.996264)" xlink:href="#CMR17-48"/>
       <use transform="translate(91.380954 0)scale(0.996264)" xlink:href="#CMR17-48"/>
      </g>
     </g>
    </g>
    <g id="ytick_23">
     <g id="line2d_39">
      <defs>
       <path d="M 0 0 
L -2 0 
" id="m2939a7ae1f" style="stroke:#000000;stroke-width:0.6;"/>
      </defs>
      <g>
       <use style="stroke:#000000;stroke-width:0.6;" x="43.2" xlink:href="#m2939a7ae1f" y="208.121568"/>
      </g>
     </g>
    </g>
    <g id="ytick_24">
     <g id="line2d_40">
      <g>
       <use style="stroke:#000000;stroke-width:0.6;" x="43.2" xlink:href="#m2939a7ae1f" y="195.526624"/>
      </g>
     </g>
    </g>
    <g id="ytick_25">
     <g id="line2d_41">
      <g>
       <use style="stroke:#000000;stroke-width:0.6;" x="43.2" xlink:href="#m2939a7ae1f" y="186.590369"/>
      </g>
     </g>
    </g>
    <g id="ytick_26">
     <g id="line2d_42">
      <g>
       <use style="stroke:#000000;stroke-width:0.6;" x="43.2" xlink:href="#m2939a7ae1f" y="179.658871"/>
      </g>
     </g>
    </g>
    <g id="ytick_27">
     <g id="line2d_43">
      <g>
       <use style="stroke:#000000;stroke-width:0.6;" x="43.2" xlink:href="#m2939a7ae1f" y="173.995425"/>
      </g>
     </g>
    </g>
    <g id="ytick_28">
     <g id="line2d_44">
      <g>
       <use style="stroke:#000000;stroke-width:0.6;" x="43.2" xlink:href="#m2939a7ae1f" y="169.207049"/>
      </g>
     </g>
    </g>
    <g id="ytick_29">
     <g id="line2d_45">
      <g>
       <use style="stroke:#000000;stroke-width:0.6;" x="43.2" xlink:href="#m2939a7ae1f" y="165.05917"/>
      </g>
     </g>
    </g>
    <g id="ytick_30">
     <g id="line2d_46">
      <g>
       <use style="stroke:#000000;stroke-width:0.6;" x="43.2" xlink:href="#m2939a7ae1f" y="161.400481"/>
      </g>
     </g>
    </g>
    <g id="ytick_31">
     <g id="line2d_47">
      <g>
       <use style="stroke:#000000;stroke-width:0.6;" x="43.2" xlink:href="#m2939a7ae1f" y="136.596473"/>
      </g>
     </g>
    </g>
    <g id="ytick_32">
     <g id="line2d_48">
      <g>
       <use style="stroke:#000000;stroke-width:0.6;" x="43.2" xlink:href="#m2939a7ae1f" y="124.001528"/>
      </g>
     </g>
    </g>
    <g id="ytick_33">
     <g id="line2d_49">
      <g>
       <use style="stroke:#000000;stroke-width:0.6;" x="43.2" xlink:href="#m2939a7ae1f" y="115.065273"/>
      </g>
     </g>
    </g>
    <g id="ytick_34">
     <g id="line2d_50">
      <g>
       <use style="stroke:#000000;stroke-width:0.6;" x="43.2" xlink:href="#m2939a7ae1f" y="108.133775"/>
      </g>
     </g>
    </g>
    <g id="ytick_35">
     <g id="line2d_51">
      <g>
       <use style="stroke:#000000;stroke-width:0.6;" x="43.2" xlink:href="#m2939a7ae1f" y="102.470329"/>
      </g>
     </g>
    </g>
    <g id="ytick_36">
     <g id="line2d_52">
      <g>
       <use style="stroke:#000000;stroke-width:0.6;" x="43.2" xlink:href="#m2939a7ae1f" y="97.681954"/>
      </g>
     </g>
    </g>
    <g id="ytick_37">
     <g id="line2d_53">
      <g>
       <use style="stroke:#000000;stroke-width:0.6;" x="43.2" xlink:href="#m2939a7ae1f" y="93.534074"/>
      </g>
     </g>
    </g>
    <g id="ytick_38">
     <g id="line2d_54">
      <g>
       <use style="stroke:#000000;stroke-width:0.6;" x="43.2" xlink:href="#m2939a7ae1f" y="89.875385"/>
      </g>
     </g>
    </g>
    <g id="text_11">
     <!-- Sensor signals -->
     <g transform="translate(15.318816 182.889104)rotate(-90)scale(0.1 -0.1)">
      <defs>
       <path d="M 43.703125 66.09375 
C 39.296875 68.6875 34.5 71 26.40625 71 
C 13.5 71 5.203125 61.46875 5.203125 51.703125 
C 5.203125 47.875 6.296875 43.546875 10.203125 39.125 
C 14.09375 34.6875 18.5 33.484375 24.09375 32.078125 
C 26.40625 31.46875 30.296875 30.359375 31 30.0625 
C 36.59375 27.84375 39.296875 22.71875 39.296875 17.875 
C 39.296875 11.53125 34.40625 4.796875 25.703125 4.796875 
C 22.703125 4.796875 13.90625 5.296875 5.59375 12.953125 
L 4.203125 5 
C 12.40625 -1 21.296875 -2 25.796875 -2 
C 38.09375 -2 46.90625 7.71875 46.90625 18.78125 
C 46.90625 22.8125 45.703125 27.953125 41.5 32.6875 
C 37.40625 37.203125 33.796875 38.21875 25.59375 40.4375 
C 20.90625 41.640625 17.90625 42.453125 15.40625 45.5625 
C 13.703125 47.78125 12.796875 49.890625 12.796875 52.609375 
C 12.796875 58.25 17.59375 64.390625 26.40625 64.390625 
C 30.796875 64.390625 36.5 63.484375 42.296875 58.046875 
z
" id="CMSS17-83"/>
       <path d="M 39.09375 21.484375 
C 39.09375 24.796875 38.90625 31.265625 35.703125 36.671875 
C 32.203125 42.390625 26.5 44 22.203125 44 
C 11.796875 44 3 34.125 3 21.296875 
C 3 9.046875 12.09375 -1 23.59375 -1 
C 28.09375 -1 33.59375 0.296875 38.59375 3.890625 
C 38.59375 4.296875 38.40625 6.46875 38.296875 6.578125 
C 38.296875 6.765625 38 9.828125 38 10.234375 
C 33.203125 6.375 27.703125 5.09375 23.703125 5.09375 
C 17.296875 5.09375 10.40625 10.421875 10.09375 21.484375 
z
M 10.90625 27 
C 12.203125 32.59375 16.59375 37.890625 22.203125 37.890625 
C 23.703125 37.890625 30.703125 37.6875 32.5 27 
z
" id="CMSS17-101"/>
       <path d="M 40.90625 29.34375 
C 40.90625 35.671875 39.40625 44 28.09375 44 
C 21.703125 44 17.5 40.6875 14.703125 37.28125 
L 14.703125 43.484375 
L 7.40625 43.484375 
L 7.40625 0 
L 15 0 
L 15 24.3125 
C 15 30.65625 17.40625 37.890625 24.203125 37.890625 
C 33 37.890625 33.296875 31.953125 33.296875 28.53125 
L 33.296875 0 
L 40.90625 0 
z
" id="CMSS17-110"/>
       <path d="M 32.203125 40.984375 
C 26.296875 43.796875 21.703125 44 18.703125 44 
C 11.59375 44 3.09375 41.484375 3.09375 31.390625 
C 3.09375 21.296875 14.09375 19.09375 17.09375 18.484375 
C 21.703125 17.59375 26.796875 16.59375 26.796875 11.59375 
C 26.796875 5.296875 19.59375 5.296875 18.296875 5.296875 
C 14.296875 5.296875 8.796875 6.390625 3.796875 9.984375 
L 2.59375 3.296875 
C 8.296875 0 13.796875 -1 18.40625 -1 
C 30.703125 -1 33.796875 6.5 33.796875 12.1875 
C 33.796875 17.09375 31 20.390625 29.09375 21.890625 
C 25.796875 24.484375 24.59375 24.796875 16.40625 26.484375 
C 15 26.6875 10.09375 27.796875 10.09375 32.296875 
C 10.09375 37.984375 16.40625 37.984375 17.796875 37.984375 
C 24.296875 37.984375 28.296875 35.984375 31 34.484375 
z
" id="CMSS17-115"/>
      </defs>
      <use transform="scale(0.996264)" xlink:href="#CMSS17-83"/>
      <use transform="translate(52.048516 0)scale(0.996264)" xlink:href="#CMSS17-101"/>
      <use transform="translate(93.687338 0)scale(0.996264)" xlink:href="#CMSS17-110"/>
      <use transform="translate(141.892281 0)scale(0.996264)" xlink:href="#CMSS17-115"/>
      <use transform="translate(177.805823 0)scale(0.996264)" xlink:href="#CMSS17-111"/>
      <use transform="translate(222.046993 0)scale(0.996264)" xlink:href="#CMSS17-114"/>
      <use transform="translate(285.185878 0)scale(0.996264)" xlink:href="#CMSS17-115"/>
      <use transform="translate(321.09942 0)scale(0.996264)" xlink:href="#CMSS17-105"/>
      <use transform="translate(343.280143 0)scale(0.996264)" xlink:href="#CMSS17-103"/>
      <use transform="translate(390.123767 0)scale(0.996264)" xlink:href="#CMSS17-110"/>
      <use transform="translate(438.32871 0)scale(0.996264)" xlink:href="#CMSS17-97"/>
      <use transform="translate(483.250631 0)scale(0.996264)" xlink:href="#CMSS17-108"/>
      <use transform="translate(505.431354 0)scale(0.996264)" xlink:href="#CMSS17-115"/>
     </g>
    </g>
   </g>
   <g id="patch_7">
    <path d="M 43.2 229.652767 
L 43.2 78.452767 
" style="fill:none;stroke:#000000;stroke-linecap:square;stroke-linejoin:miter;stroke-width:0.8;"/>
   </g>
  </g>
 </g>
 <defs>
  <clipPath id="pf255f93249">
   <path d="M 367.2 237.6 
C 367.2 217.744598 363.288919 198.082265 355.690585 179.738265 
C 348.092252 161.394265 336.954435 144.725344 322.914545 130.685455 
C 308.874656 116.645565 292.205735 105.507748 273.861735 97.909415 
C 255.517735 90.311081 235.855402 86.4 216 86.4 
C 196.144598 86.4 176.482265 90.311081 158.138265 97.909415 
C 139.794265 105.507748 123.125344 116.645565 109.085455 130.685455 
C 95.045565 144.725344 83.907748 161.394265 76.309415 179.738265 
C 68.711081 198.082265 64.8 217.744598 64.8 237.6 
C 64.8 257.455402 68.711081 277.117735 76.309415 295.461735 
C 83.907748 313.805735 95.045565 330.474656 109.085455 344.514545 
C 123.125344 358.554435 139.794265 369.692252 158.138265 377.290585 
C 176.482265 384.888919 196.144598 388.8 216 388.8 
C 235.855402 388.8 255.517735 384.888919 273.861735 377.290585 
C 292.205735 369.692252 308.874656 358.554435 322.914545 344.514545 
C 336.954435 330.474656 348.092252 313.805735 355.690585 295.461735 
C 363.288919 277.117735 367.2 257.455402 367.2 237.6 
M 216 237.6 
C 216 237.6 216 237.6 216 237.6 
C 216 237.6 216 237.6 216 237.6 
C 216 237.6 216 237.6 216 237.6 
C 216 237.6 216 237.6 216 237.6 
C 216 237.6 216 237.6 216 237.6 
C 216 237.6 216 237.6 216 237.6 
C 216 237.6 216 237.6 216 237.6 
C 216 237.6 216 237.6 216 237.6 
C 216 237.6 216 237.6 216 237.6 
C 216 237.6 216 237.6 216 237.6 
C 216 237.6 216 237.6 216 237.6 
C 216 237.6 216 237.6 216 237.6 
C 216 237.6 216 237.6 216 237.6 
C 216 237.6 216 237.6 216 237.6 
C 216 237.6 216 237.6 216 237.6 
C 216 237.6 216 237.6 216 237.6 
M 367.2 237.6 
z
"/>
  </clipPath>
 </defs>
</svg>
