<?xml version="1.0" encoding="utf-8" standalone="no"?>
<!DOCTYPE svg PUBLIC "-//W3C//DTD SVG 1.1//EN"
  "http://www.w3.org/Graphics/SVG/1.1/DTD/svg11.dtd">
<!-- Created with matplotlib (https://matplotlib.org/) -->
<svg height="432pt" version="1.1" viewBox="0 0 432 432" width="432pt" xmlns="http://www.w3.org/2000/svg" xmlns:xlink="http://www.w3.org/1999/xlink">
 <metadata>
  <rdf:RDF xmlns:cc="http://creativecommons.org/ns#" xmlns:dc="http://purl.org/dc/elements/1.1/" xmlns:rdf="http://www.w3.org/1999/02/22-rdf-syntax-ns#">
   <cc:Work>
    <dc:type rdf:resource="http://purl.org/dc/dcmitype/StillImage"/>
    <dc:date>2021-01-23T20:17:47.151299</dc:date>
    <dc:format>image/svg+xml</dc:format>
    <dc:creator>
     <cc:Agent>
      <dc:title>Matplotlib v3.3.2, https://matplotlib.org/</dc:title>
     </cc:Agent>
    </dc:creator>
   </cc:Work>
  </rdf:RDF>
 </metadata>
 <defs>
  <style type="text/css">*{stroke-linecap:butt;stroke-linejoin:round;}</style>
 </defs>
 <g id="figure_1">
  <g id="patch_1">
   <path d="M 0 432 
L 432 432 
L 432 0 
L 0 0 
z
" style="fill:#ffffff;"/>
  </g>
  <g id="axes_1">
   <g id="patch_2">
    <path d="M 367.2 237.6 
C 367.2 217.744598 363.288919 198.082265 355.690585 179.738265 
C 348.092252 161.394265 336.954435 144.725344 322.914545 130.685455 
C 308.874656 116.645565 292.205735 105.507748 273.861735 97.909415 
C 255.517735 90.311081 235.855402 86.4 216 86.4 
C 196.144598 86.4 176.482265 90.311081 158.138265 97.909415 
C 139.794265 105.507748 123.125344 116.645565 109.085455 130.685455 
C 95.045565 144.725344 83.907748 161.394265 76.309415 179.738265 
C 68.711081 198.082265 64.8 217.744598 64.8 237.6 
C 64.8 257.455402 68.711081 277.117735 76.309415 295.461735 
C 83.907748 313.805735 95.045565 330.474656 109.085455 344.514545 
C 123.125344 358.554435 139.794265 369.692252 158.138265 377.290585 
C 176.482265 384.888919 196.144598 388.8 216 388.8 
C 235.855402 388.8 255.517735 384.888919 273.861735 377.290585 
C 292.205735 369.692252 308.874656 358.554435 322.914545 344.514545 
C 336.954435 330.474656 348.092252 313.805735 355.690585 295.461735 
C 363.288919 277.117735 367.2 257.455402 367.2 237.6 
M 216 237.6 
C 216 237.6 216 237.6 216 237.6 
C 216 237.6 216 237.6 216 237.6 
C 216 237.6 216 237.6 216 237.6 
C 216 237.6 216 237.6 216 237.6 
C 216 237.6 216 237.6 216 237.6 
C 216 237.6 216 237.6 216 237.6 
C 216 237.6 216 237.6 216 237.6 
C 216 237.6 216 237.6 216 237.6 
C 216 237.6 216 237.6 216 237.6 
C 216 237.6 216 237.6 216 237.6 
C 216 237.6 216 237.6 216 237.6 
C 216 237.6 216 237.6 216 237.6 
C 216 237.6 216 237.6 216 237.6 
C 216 237.6 216 237.6 216 237.6 
C 216 237.6 216 237.6 216 237.6 
C 216 237.6 216 237.6 216 237.6 
M 367.2 237.6 
z
" style="fill:#ffffff;"/>
   </g>
   <g id="patch_3">
    <path clip-path="url(#p5b076514b0)" d="M 314.474067 237.6 
L 191.1394 194.540177 
L 214.868765 239.559356 
z
" style="fill:#1f77b4;opacity:0.2;"/>
   </g>
   <g id="patch_4">
    <path clip-path="url(#p5b076514b0)" d="M 312.218648 237.6 
L 200.806149 211.283478 
L 215.728062 238.07101 
z
" style="fill:#ff7f0e;opacity:0.2;"/>
   </g>
   <g id="patch_5">
    <path clip-path="url(#p5b076514b0)" d="M 306.882915 237.6 
L 208.069601 223.864146 
L 215.728062 238.07101 
z
" style="fill:#2ca02c;opacity:0.2;"/>
   </g>
   <g id="matplotlib.axis_1">
    <g id="xtick_1">
     <g id="line2d_1">
      <path clip-path="url(#p5b076514b0)" d="M 218.569999 237.6 
L 369.769999 237.6 
" style="fill:none;stroke:#ffffff;stroke-linecap:square;stroke-width:0.8;"/>
     </g>
     <g id="text_1">
      <!-- CO$_{2}$ -->
      <g transform="translate(381.435057 234.970972)scale(0.1 -0.1)">
       <defs>
        <path d="M 54.703125 11.015625 
C 48 6.5 44.90625 5.1875 36.796875 5.1875 
C 22.796875 5.1875 14.59375 20.375 14.59375 34.234375 
C 14.59375 49.015625 23 63.59375 37.203125 63.59375 
C 43.59375 63.59375 47.796875 61.78125 52.90625 58.5625 
L 54.296875 66.484375 
C 49.5 68.890625 43.40625 70 37.296875 70 
C 18.09375 70 6.203125 52.234375 6.203125 34.234375 
C 6.203125 14.4375 20.296875 -1.203125 36.296875 -1.203125 
C 44.90625 -1.203125 47.90625 -0.5 55.296875 4.1875 
z
" id="CMSS17-67"/>
        <path d="M 64 34.390625 
C 64 55.328125 50.296875 71 34.59375 71 
C 18.90625 71 5.203125 55.234375 5.203125 34.390625 
C 5.203125 13.359375 19.09375 -2 34.59375 -2 
C 50.09375 -2 64 13.359375 64 34.390625 
z
M 34.59375 4.296875 
C 23.59375 4.296875 13.59375 16.671875 13.59375 35.703125 
C 13.59375 54.21875 24.203125 64.6875 34.59375 64.6875 
C 45 64.6875 55.59375 54.21875 55.59375 35.703125 
C 55.59375 16.578125 45.5 4.296875 34.59375 4.296875 
z
" id="CMSS17-79"/>
        <path d="M 41.703125 15.46875 
L 39.90625 15.46875 
C 38.90625 8.390625 38.09375 7.1875 37.703125 6.59375 
C 37.203125 5.796875 30 5.796875 28.59375 5.796875 
L 9.40625 5.796875 
C 13 9.6875 20 16.765625 28.5 24.9375 
C 34.59375 30.71875 41.703125 37.5 41.703125 47.390625 
C 41.703125 59.1875 32.296875 66 21.796875 66 
C 10.796875 66 4.09375 56.296875 4.09375 47.296875 
C 4.09375 43.390625 7 42.890625 8.203125 42.890625 
C 9.203125 42.890625 12.203125 43.484375 12.203125 46.984375 
C 12.203125 50.09375 9.59375 51 8.203125 51 
C 7.59375 51 7 50.890625 6.59375 50.6875 
C 8.5 59.1875 14.296875 63.390625 20.40625 63.390625 
C 29.09375 63.390625 34.796875 56.5 34.796875 47.390625 
C 34.796875 38.703125 29.703125 31.21875 24 24.734375 
L 4.09375 2.296875 
L 4.09375 0 
L 39.296875 0 
z
" id="CMR17-50"/>
       </defs>
       <use transform="scale(0.996264)" xlink:href="#CMSS17-67"/>
       <use transform="translate(59.855772 0)scale(0.996264)" xlink:href="#CMSS17-79"/>
       <use transform="translate(128.880027 -14.943915)scale(0.697382)" xlink:href="#CMR17-50"/>
      </g>
      <!-- $500\,$ppm -->
      <g transform="translate(372.863038 245.210348)scale(0.1 -0.1)">
       <defs>
        <path d="M 11.40625 58.59375 
C 12.40625 58.1875 16.5 56.890625 20.703125 56.890625 
C 30 56.890625 35.09375 61.890625 38 64.6875 
C 38 65.484375 38 66 37.40625 66 
C 37.296875 66 37.09375 66 36.296875 65.59375 
C 32.796875 64.09375 28.703125 63 23.703125 63 
C 20.703125 63 16.203125 63.359375 11.296875 65.484375 
C 10.203125 66 10 66 9.90625 66 
C 9.40625 66 9.296875 65.890625 9.296875 63.90625 
L 9.296875 34.859375 
C 9.296875 33.015625 9.296875 32.5 10.296875 32.5 
C 10.796875 32.5 11 32.703125 11.5 33.421875 
C 14.703125 38.046875 19.09375 40 24.09375 40 
C 27.59375 40 35.09375 37.734375 35.09375 20.203125 
C 35.09375 16.984375 35.09375 11.1875 32.09375 6.59375 
C 29.59375 2.484375 25.703125 0.390625 21.40625 0.390625 
C 14.796875 0.390625 8.09375 4.984375 6.296875 12.6875 
C 6.703125 12.59375 7.5 12.390625 7.90625 12.390625 
C 9.203125 12.390625 11.703125 13.09375 11.703125 16.1875 
C 11.703125 18.890625 9.796875 20 7.90625 20 
C 5.59375 20 4.09375 18.59375 4.09375 15.796875 
C 4.09375 7.09375 11 -2 21.59375 -2 
C 31.90625 -2 41.703125 6.890625 41.703125 19.796875 
C 41.703125 32.09375 33.90625 41.59375 24.203125 41.59375 
C 19.09375 41.59375 14.796875 39.6875 11.40625 36 
z
" id="CMR17-53"/>
        <path d="M 42 31.84375 
C 42 37.96875 41.90625 48.421875 37.703125 56.453125 
C 34 63.484375 28.09375 66 22.90625 66 
C 18.09375 66 12 63.78125 8.203125 56.5625 
C 4.203125 49.015625 3.796875 39.671875 3.796875 31.84375 
C 3.796875 26.109375 3.90625 17.375 7 9.734375 
C 11.296875 -0.609375 19 -2 22.90625 -2 
C 27.5 -2 34.5 -0.109375 38.59375 9.4375 
C 41.59375 16.375 42 24.5 42 31.84375 
z
M 22.90625 -0.40625 
C 16.5 -0.40625 12.703125 5.125 11.296875 12.75 
C 10.203125 18.6875 10.203125 27.328125 10.203125 32.953125 
C 10.203125 40.6875 10.203125 47.109375 11.5 53.234375 
C 13.40625 61.78125 19 64.390625 22.90625 64.390625 
C 27 64.390625 32.296875 61.671875 34.203125 53.4375 
C 35.5 47.71875 35.59375 40.984375 35.59375 32.953125 
C 35.59375 26.421875 35.59375 18.375 34.40625 12.453125 
C 32.296875 1.5 26.40625 -0.40625 22.90625 -0.40625 
z
" id="CMR17-48"/>
        <path d="M 15.09375 4.296875 
C 18.40625 1.09375 22.90625 -1 27.703125 -1 
C 37 -1 45 8.640625 45 21.59375 
C 45 33.546875 39 44 30.40625 44 
C 25.40625 44 19.40625 42.1875 14.90625 38.59375 
L 14.90625 43.1875 
L 7.5 43.1875 
L 7.5 -20 
L 15.09375 -20 
z
M 15.09375 32.625 
C 15.90625 33.84375 19.296875 37.6875 24.796875 37.6875 
C 31.796875 37.6875 37.40625 30.40625 37.40625 21.59375 
C 37.40625 11.578125 30.59375 5.09375 23.90625 5.09375 
C 21.90625 5.09375 19.796875 5.59375 17.796875 7.3125 
C 15.09375 9.75 15.09375 11.265625 15.09375 12.6875 
z
" id="CMSS17-112"/>
        <path d="M 67 29.34375 
C 67 36.078125 65.296875 44 54.09375 44 
C 46.59375 44 42.09375 39.296875 40.09375 36.375 
C 38.296875 41.6875 34.09375 44 28.09375 44 
C 21.296875 44 17 40.09375 14.703125 37.28125 
L 14.703125 43.484375 
L 7.40625 43.484375 
L 7.40625 0 
L 15 0 
L 15 24.3125 
C 15 30.25 17.203125 37.890625 24.296875 37.890625 
C 33.40625 37.890625 33.40625 31.453125 33.40625 28.53125 
L 33.40625 0 
L 41 0 
L 41 24.3125 
C 41 30.25 43.203125 37.890625 50.296875 37.890625 
C 59.40625 37.890625 59.40625 31.453125 59.40625 28.53125 
L 59.40625 0 
L 67 0 
z
" id="CMSS17-109"/>
       </defs>
       <use transform="scale(0.996264)" xlink:href="#CMR17-53"/>
       <use transform="translate(45.690477 0)scale(0.996264)" xlink:href="#CMR17-48"/>
       <use transform="translate(91.380954 0)scale(0.996264)" xlink:href="#CMR17-48"/>
       <use transform="translate(153.675837 0)scale(0.996264)" xlink:href="#CMSS17-112"/>
       <use transform="translate(201.88078 0)scale(0.996264)" xlink:href="#CMSS17-112"/>
       <use transform="translate(250.085723 0)scale(0.996264)" xlink:href="#CMSS17-109"/>
      </g>
     </g>
    </g>
    <g id="xtick_2">
     <g id="line2d_2">
      <path clip-path="url(#p5b076514b0)" d="M 214.715001 235.374316 
L 139.115001 104.431275 
" style="fill:none;stroke:#ffffff;stroke-linecap:square;stroke-width:0.8;"/>
     </g>
     <g id="text_2">
      <!-- CO -->
      <g transform="translate(122.015678 84.048726)scale(0.1 -0.1)">
       <use transform="scale(0.996264)" xlink:href="#CMSS17-67"/>
       <use transform="translate(59.855772 0)scale(0.996264)" xlink:href="#CMSS17-79"/>
      </g>
      <!-- $150\,$ppm -->
      <g transform="translate(111.45804 94.288102)scale(0.1 -0.1)">
       <defs>
        <path d="M 26.59375 63.796875 
C 26.59375 65.890625 26.5 66 25.09375 66 
C 21.203125 61.359375 15.296875 59.890625 9.703125 59.6875 
C 9.40625 59.6875 8.90625 59.6875 8.796875 59.5 
C 8.703125 59.296875 8.703125 59.09375 8.703125 57 
C 11.796875 57 17 57.59375 21 59.984375 
L 21 7.296875 
C 21 3.796875 20.796875 2.59375 12.203125 2.59375 
L 9.203125 2.59375 
L 9.203125 0 
C 14 0.09375 19 0.1875 23.796875 0.1875 
C 28.59375 0.1875 33.59375 0.09375 38.40625 0 
L 38.40625 2.59375 
L 35.40625 2.59375 
C 26.796875 2.59375 26.59375 3.6875 26.59375 7.296875 
z
" id="CMR17-49"/>
       </defs>
       <use transform="scale(0.996264)" xlink:href="#CMR17-49"/>
       <use transform="translate(45.690477 0)scale(0.996264)" xlink:href="#CMR17-53"/>
       <use transform="translate(91.380954 0)scale(0.996264)" xlink:href="#CMR17-48"/>
       <use transform="translate(153.675837 0)scale(0.996264)" xlink:href="#CMSS17-112"/>
       <use transform="translate(201.88078 0)scale(0.996264)" xlink:href="#CMSS17-112"/>
       <use transform="translate(250.085723 0)scale(0.996264)" xlink:href="#CMSS17-109"/>
      </g>
     </g>
    </g>
    <g id="xtick_3">
     <g id="line2d_3">
      <path clip-path="url(#p5b076514b0)" d="M 214.715001 239.825684 
L 139.115001 370.768725 
" style="fill:none;stroke:#ffffff;stroke-linecap:square;stroke-width:0.8;"/>
     </g>
     <g id="text_3">
      <!-- H$_{2}$ -->
      <g transform="translate(123.350927 385.893218)scale(0.1 -0.1)">
       <defs>
        <path d="M 57.40625 69 
L 49 69 
L 49 39 
L 17.203125 39 
L 17.203125 69 
L 8.796875 69 
L 8.796875 0 
L 17.203125 0 
L 17.203125 32.890625 
L 49 32.890625 
L 49 0 
L 57.40625 0 
z
" id="CMSS17-72"/>
       </defs>
       <use transform="scale(0.996264)" xlink:href="#CMSS17-72"/>
       <use transform="translate(66.061519 -14.943915)scale(0.697382)" xlink:href="#CMR17-50"/>
      </g>
      <!-- $150\,$ppm -->
      <g transform="translate(111.45804 396.132594)scale(0.1 -0.1)">
       <use transform="scale(0.996264)" xlink:href="#CMR17-49"/>
       <use transform="translate(45.690477 0)scale(0.996264)" xlink:href="#CMR17-53"/>
       <use transform="translate(91.380954 0)scale(0.996264)" xlink:href="#CMR17-48"/>
       <use transform="translate(153.675837 0)scale(0.996264)" xlink:href="#CMSS17-112"/>
       <use transform="translate(201.88078 0)scale(0.996264)" xlink:href="#CMSS17-112"/>
       <use transform="translate(250.085723 0)scale(0.996264)" xlink:href="#CMSS17-109"/>
      </g>
     </g>
    </g>
   </g>
   <g id="matplotlib.axis_2">
    <g id="ytick_1">
     <g id="line2d_4">
      <path clip-path="url(#p5b076514b0)" d="M 265.492689 237.6 
C 265.492689 231.10068 264.212464 224.664557 261.725282 218.659968 
C 259.2381 212.655379 255.592329 207.199098 250.996616 202.603384 
C 246.400902 198.007671 240.944621 194.3619 234.940032 191.874718 
C 228.935443 189.387536 222.49932 188.107311 216 188.107311 
C 209.50068 188.107311 203.064557 189.387536 197.059968 191.874718 
C 191.055379 194.3619 185.599098 198.007671 181.003384 202.603384 
C 176.407671 207.199098 172.7619 212.655379 170.274718 218.659968 
C 167.787536 224.664557 166.507311 231.10068 166.507311 237.6 
C 166.507311 244.09932 167.787536 250.535443 170.274718 256.540032 
C 172.7619 262.544621 176.407671 268.000902 181.003384 272.596616 
C 185.599098 277.192329 191.055379 280.8381 197.059968 283.325282 
C 203.064557 285.812464 209.50068 287.092689 216 287.092689 
C 222.49932 287.092689 228.935443 285.812464 234.940032 283.325282 
C 240.944621 280.8381 246.400902 277.192329 250.996616 272.596616 
C 255.592329 268.000902 259.2381 262.544621 261.725282 256.540032 
C 264.212464 250.535443 265.492689 244.09932 265.492689 237.6 
" style="fill:none;stroke:#000000;stroke-linecap:square;stroke-width:0.8;"/>
     </g>
    </g>
    <g id="ytick_2">
     <g id="line2d_5">
      <path clip-path="url(#p5b076514b0)" d="M 314.441502 237.6 
C 314.441502 224.67278 311.895122 211.871262 306.948089 199.928068 
C 302.001056 187.984875 294.749578 177.132271 285.608654 167.991346 
C 276.467729 158.850422 265.615125 151.598944 253.671932 146.651911 
C 241.728738 141.704878 228.92722 139.158498 216 139.158498 
C 203.07278 139.158498 190.271262 141.704878 178.328068 146.651911 
C 166.384875 151.598944 155.532271 158.850422 146.391346 167.991346 
C 137.250422 177.132271 129.998944 187.984875 125.051911 199.928068 
C 120.104878 211.871262 117.558498 224.67278 117.558498 237.6 
C 117.558498 250.52722 120.104878 263.328738 125.051911 275.271932 
C 129.998944 287.215125 137.250422 298.067729 146.391346 307.208654 
C 155.532271 316.349578 166.384875 323.601056 178.328068 328.548089 
C 190.271262 333.495122 203.07278 336.041502 216 336.041502 
C 228.92722 336.041502 241.728738 333.495122 253.671932 328.548089 
C 265.615125 323.601056 276.467729 316.349578 285.608654 307.208654 
C 294.749578 298.067729 302.001056 287.215125 306.948089 275.271932 
C 311.895122 263.328738 314.441502 250.52722 314.441502 237.6 
" style="fill:none;stroke:#000000;stroke-linecap:square;stroke-width:0.8;"/>
     </g>
    </g>
    <g id="ytick_3">
     <g id="line2d_6">
      <path clip-path="url(#p5b076514b0)" d="M 363.390315 237.6 
C 363.390315 218.244881 359.577779 199.077966 352.170896 181.196168 
C 344.764012 163.31437 333.906827 147.065444 320.220691 133.379309 
C 306.534556 119.693173 290.28563 108.835988 272.403832 101.429104 
C 254.522034 94.022221 235.355119 90.209685 216 90.209685 
C 196.644881 90.209685 177.477966 94.022221 159.596168 101.429104 
C 141.71437 108.835988 125.465444 119.693173 111.779309 133.379309 
C 98.093173 147.065444 87.235988 163.31437 79.829104 181.196168 
C 72.422221 199.077966 68.609685 218.244881 68.609685 237.6 
C 68.609685 256.955119 72.422221 276.122034 79.829104 294.003832 
C 87.235988 311.88563 98.093173 328.134556 111.779309 341.820691 
C 125.465444 355.506827 141.71437 366.364012 159.596168 373.770896 
C 177.477966 381.177779 196.644881 384.990315 216 384.990315 
C 235.355119 384.990315 254.522034 381.177779 272.403832 373.770896 
C 290.28563 366.364012 306.534556 355.506827 320.220691 341.820691 
C 333.906827 328.134556 344.764012 311.88563 352.170896 294.003832 
C 359.577779 276.122034 363.390315 256.955119 363.390315 237.6 
" style="fill:none;stroke:#000000;stroke-linecap:square;stroke-width:0.8;"/>
     </g>
    </g>
    <g id="ytick_4">
     <g id="line2d_7">
      <path clip-path="url(#p5b076514b0)" d="M 231.278937 237.6 
C 231.278937 235.593588 230.883717 233.606687 230.115897 231.753004 
C 229.348076 229.899321 228.222587 228.214907 226.80384 226.79616 
C 225.385093 225.377413 223.700679 224.251924 221.846996 223.484103 
C 219.993313 222.716283 218.006412 222.321063 216 222.321063 
C 213.993588 222.321063 212.006687 222.716283 210.153004 223.484103 
C 208.299321 224.251924 206.614907 225.377413 205.19616 226.79616 
C 203.777413 228.214907 202.651924 229.899321 201.884103 231.753004 
C 201.116283 233.606687 200.721063 235.593588 200.721063 237.6 
C 200.721063 239.606412 201.116283 241.593313 201.884103 243.446996 
C 202.651924 245.300679 203.777413 246.985093 205.19616 248.40384 
C 206.614907 249.822587 208.299321 250.948076 210.153004 251.715897 
C 212.006687 252.483717 213.993588 252.878937 216 252.878937 
C 218.006412 252.878937 219.993313 252.483717 221.846996 251.715897 
C 223.700679 250.948076 225.385093 249.822587 226.80384 248.40384 
C 228.222587 246.985093 229.348076 245.300679 230.115897 243.446996 
C 230.883717 241.593313 231.278937 239.606412 231.278937 237.6 
" style="fill:none;stroke:#808080;stroke-dasharray:2.96,1.28;stroke-dashoffset:0;stroke-width:0.8;"/>
     </g>
    </g>
    <g id="ytick_5">
     <g id="line2d_8">
      <path clip-path="url(#p5b076514b0)" d="M 239.898395 237.6 
C 239.898395 234.461692 239.280217 231.353899 238.079238 228.45448 
C 236.878259 225.555061 235.117836 222.920402 232.898717 220.701283 
C 230.679598 218.482164 228.044939 216.721741 225.14552 215.520762 
C 222.246101 214.319783 219.138308 213.701605 216 213.701605 
C 212.861692 213.701605 209.753899 214.319783 206.85448 215.520762 
C 203.955061 216.721741 201.320402 218.482164 199.101283 220.701283 
C 196.882164 222.920402 195.121741 225.555061 193.920762 228.45448 
C 192.719783 231.353899 192.101605 234.461692 192.101605 237.6 
C 192.101605 240.738308 192.719783 243.846101 193.920762 246.74552 
C 195.121741 249.644939 196.882164 252.279598 199.101283 254.498717 
C 201.320402 256.717836 203.955061 258.478259 206.85448 259.679238 
C 209.753899 260.880217 212.861692 261.498395 216 261.498395 
C 219.138308 261.498395 222.246101 260.880217 225.14552 259.679238 
C 228.044939 258.478259 230.679598 256.717836 232.898717 254.498717 
C 235.117836 252.279598 236.878259 249.644939 238.079238 246.74552 
C 239.280217 243.846101 239.898395 240.738308 239.898395 237.6 
" style="fill:none;stroke:#808080;stroke-dasharray:2.96,1.28;stroke-dashoffset:0;stroke-width:0.8;"/>
     </g>
    </g>
    <g id="ytick_6">
     <g id="line2d_9">
      <path clip-path="url(#p5b076514b0)" d="M 246.013998 237.6 
C 246.013998 233.658598 245.237627 229.755521 243.729318 226.11414 
C 242.221009 222.47276 240.010093 219.163891 237.223101 216.376899 
C 234.436109 213.589907 231.12724 211.378991 227.48586 209.870682 
C 223.844479 208.362373 219.941402 207.586002 216 207.586002 
C 212.058598 207.586002 208.155521 208.362373 204.51414 209.870682 
C 200.87276 211.378991 197.563891 213.589907 194.776899 216.376899 
C 191.989907 219.163891 189.778991 222.47276 188.270682 226.11414 
C 186.762373 229.755521 185.986002 233.658598 185.986002 237.6 
C 185.986002 241.541402 186.762373 245.444479 188.270682 249.08586 
C 189.778991 252.72724 191.989907 256.036109 194.776899 258.823101 
C 197.563891 261.610093 200.87276 263.821009 204.51414 265.329318 
C 208.155521 266.837627 212.058598 267.613998 216 267.613998 
C 219.941402 267.613998 223.844479 266.837627 227.48586 265.329318 
C 231.12724 263.821009 234.436109 261.610093 237.223101 258.823101 
C 240.010093 256.036109 242.221009 252.72724 243.729318 249.08586 
C 245.237627 245.444479 246.013998 241.541402 246.013998 237.6 
" style="fill:none;stroke:#808080;stroke-dasharray:2.96,1.28;stroke-dashoffset:0;stroke-width:0.8;"/>
     </g>
    </g>
    <g id="ytick_7">
     <g id="line2d_10">
      <path clip-path="url(#p5b076514b0)" d="M 250.757628 237.6 
C 250.757628 233.03567 249.858554 228.515723 248.111861 224.298832 
C 246.365168 220.081941 243.804823 216.250114 240.577354 213.022646 
C 237.349886 209.795177 233.518059 207.234832 229.301168 205.488139 
C 225.084277 203.741446 220.56433 202.842372 216 202.842372 
C 211.43567 202.842372 206.915723 203.741446 202.698832 205.488139 
C 198.481941 207.234832 194.650114 209.795177 191.422646 213.022646 
C 188.195177 216.250114 185.634832 220.081941 183.888139 224.298832 
C 182.141446 228.515723 181.242372 233.03567 181.242372 237.6 
C 181.242372 242.16433 182.141446 246.684277 183.888139 250.901168 
C 185.634832 255.118059 188.195177 258.949886 191.422646 262.177354 
C 194.650114 265.404823 198.481941 267.965168 202.698832 269.711861 
C 206.915723 271.458554 211.43567 272.357628 216 272.357628 
C 220.56433 272.357628 225.084277 271.458554 229.301168 269.711861 
C 233.518059 267.965168 237.349886 265.404823 240.577354 262.177354 
C 243.804823 258.949886 246.365168 255.118059 248.111861 250.901168 
C 249.858554 246.684277 250.757628 242.16433 250.757628 237.6 
" style="fill:none;stroke:#808080;stroke-dasharray:2.96,1.28;stroke-dashoffset:0;stroke-width:0.8;"/>
     </g>
    </g>
    <g id="ytick_8">
     <g id="line2d_11">
      <path clip-path="url(#p5b076514b0)" d="M 254.633456 237.6 
C 254.633456 232.526701 253.634127 227.502734 251.692659 222.815616 
C 249.751192 218.128499 246.905343 213.869385 243.317979 210.282021 
C 239.730615 206.694657 235.471501 203.848808 230.784384 201.907341 
C 226.097266 199.965873 221.073299 198.966544 216 198.966544 
C 210.926701 198.966544 205.902734 199.965873 201.215616 201.907341 
C 196.528499 203.848808 192.269385 206.694657 188.682021 210.282021 
C 185.094657 213.869385 182.248808 218.128499 180.307341 222.815616 
C 178.365873 227.502734 177.366544 232.526701 177.366544 237.6 
C 177.366544 242.673299 178.365873 247.697266 180.307341 252.384384 
C 182.248808 257.071501 185.094657 261.330615 188.682021 264.917979 
C 192.269385 268.505343 196.528499 271.351192 201.215616 273.292659 
C 205.902734 275.234127 210.926701 276.233456 216 276.233456 
C 221.073299 276.233456 226.097266 275.234127 230.784384 273.292659 
C 235.471501 271.351192 239.730615 268.505343 243.317979 264.917979 
C 246.905343 261.330615 249.751192 257.071501 251.692659 252.384384 
C 253.634127 247.697266 254.633456 242.673299 254.633456 237.6 
" style="fill:none;stroke:#808080;stroke-dasharray:2.96,1.28;stroke-dashoffset:0;stroke-width:0.8;"/>
     </g>
    </g>
    <g id="ytick_9">
     <g id="line2d_12">
      <path clip-path="url(#p5b076514b0)" d="M 257.910422 237.6 
C 257.910422 232.096374 256.826327 226.646264 254.720181 221.561576 
C 252.614034 216.476888 249.526795 211.856508 245.635143 207.964857 
C 241.743492 204.073205 237.123112 200.985966 232.038424 198.879819 
C 226.953736 196.773673 221.503626 195.689578 216 195.689578 
C 210.496374 195.689578 205.046264 196.773673 199.961576 198.879819 
C 194.876888 200.985966 190.256508 204.073205 186.364857 207.964857 
C 182.473205 211.856508 179.385966 216.476888 177.279819 221.561576 
C 175.173673 226.646264 174.089578 232.096374 174.089578 237.6 
C 174.089578 243.103626 175.173673 248.553736 177.279819 253.638424 
C 179.385966 258.723112 182.473205 263.343492 186.364857 267.235143 
C 190.256508 271.126795 194.876888 274.214034 199.961576 276.320181 
C 205.046264 278.426327 210.496374 279.510422 216 279.510422 
C 221.503626 279.510422 226.953736 278.426327 232.038424 276.320181 
C 237.123112 274.214034 241.743492 271.126795 245.635143 267.235143 
C 249.526795 263.343492 252.614034 258.723112 254.720181 253.638424 
C 256.826327 248.553736 257.910422 243.103626 257.910422 237.6 
" style="fill:none;stroke:#808080;stroke-dasharray:2.96,1.28;stroke-dashoffset:0;stroke-width:0.8;"/>
     </g>
    </g>
    <g id="ytick_10">
     <g id="line2d_13">
      <path clip-path="url(#p5b076514b0)" d="M 260.749059 237.6 
C 260.749059 231.723607 259.591538 225.904355 257.342739 220.475277 
C 255.093941 215.046198 251.7976 210.112874 247.642363 205.957637 
C 243.487126 201.8024 238.553802 198.506059 233.124723 196.257261 
C 227.695645 194.008462 221.876393 192.850941 216 192.850941 
C 210.123607 192.850941 204.304355 194.008462 198.875277 196.257261 
C 193.446198 198.506059 188.512874 201.8024 184.357637 205.957637 
C 180.2024 210.112874 176.906059 215.046198 174.657261 220.475277 
C 172.408462 225.904355 171.250941 231.723607 171.250941 237.6 
C 171.250941 243.476393 172.408462 249.295645 174.657261 254.724723 
C 176.906059 260.153802 180.2024 265.087126 184.357637 269.242363 
C 188.512874 273.3976 193.446198 276.693941 198.875277 278.942739 
C 204.304355 281.191538 210.123607 282.349059 216 282.349059 
C 221.876393 282.349059 227.695645 281.191538 233.124723 278.942739 
C 238.553802 276.693941 243.487126 273.3976 247.642363 269.242363 
C 251.7976 265.087126 255.093941 260.153802 257.342739 254.724723 
C 259.591538 249.295645 260.749059 243.476393 260.749059 237.6 
" style="fill:none;stroke:#808080;stroke-dasharray:2.96,1.28;stroke-dashoffset:0;stroke-width:0.8;"/>
     </g>
    </g>
    <g id="ytick_11">
     <g id="line2d_14">
      <path clip-path="url(#p5b076514b0)" d="M 263.252914 237.6 
C 263.252914 231.394804 262.030626 225.249946 259.656 219.517093 
C 257.281374 213.784239 253.800592 208.57488 249.412856 204.187144 
C 245.02512 199.799408 239.815761 196.318626 234.082907 193.944 
C 228.350054 191.569374 222.205196 190.347086 216 190.347086 
C 209.794804 190.347086 203.649946 191.569374 197.917093 193.944 
C 192.184239 196.318626 186.97488 199.799408 182.587144 204.187144 
C 178.199408 208.57488 174.718626 213.784239 172.344 219.517093 
C 169.969374 225.249946 168.747086 231.394804 168.747086 237.6 
C 168.747086 243.805196 169.969374 249.950054 172.344 255.682907 
C 174.718626 261.415761 178.199408 266.62512 182.587144 271.012856 
C 186.97488 275.400592 192.184239 278.881374 197.917093 281.256 
C 203.649946 283.630626 209.794804 284.852914 216 284.852914 
C 222.205196 284.852914 228.350054 283.630626 234.082907 281.256 
C 239.815761 278.881374 245.02512 275.400592 249.412856 271.012856 
C 253.800592 266.62512 257.281374 261.415761 259.656 255.682907 
C 262.030626 249.950054 263.252914 243.805196 263.252914 237.6 
" style="fill:none;stroke:#808080;stroke-dasharray:2.96,1.28;stroke-dashoffset:0;stroke-width:0.8;"/>
     </g>
    </g>
    <g id="ytick_12">
     <g id="line2d_15">
      <path clip-path="url(#p5b076514b0)" d="M 280.22775 237.6 
C 280.22775 229.165689 278.566375 220.813391 275.338704 213.021104 
C 272.111033 205.228817 267.379836 198.148081 261.415877 192.184123 
C 255.451919 186.220164 248.371183 181.488967 240.578896 178.261296 
C 232.786609 175.033625 224.434311 173.37225 216 173.37225 
C 207.565689 173.37225 199.213391 175.033625 191.421104 178.261296 
C 183.628817 181.488967 176.548081 186.220164 170.584123 192.184123 
C 164.620164 198.148081 159.888967 205.228817 156.661296 213.021104 
C 153.433625 220.813391 151.77225 229.165689 151.77225 237.6 
C 151.77225 246.034311 153.433625 254.386609 156.661296 262.178896 
C 159.888967 269.971183 164.620164 277.051919 170.584123 283.015877 
C 176.548081 288.979836 183.628817 293.711033 191.421104 296.938704 
C 199.213391 300.166375 207.565689 301.82775 216 301.82775 
C 224.434311 301.82775 232.786609 300.166375 240.578896 296.938704 
C 248.371183 293.711033 255.451919 288.979836 261.415877 283.015877 
C 267.379836 277.051919 272.111033 269.971183 275.338704 262.178896 
C 278.566375 254.386609 280.22775 246.034311 280.22775 237.6 
" style="fill:none;stroke:#808080;stroke-dasharray:2.96,1.28;stroke-dashoffset:0;stroke-width:0.8;"/>
     </g>
    </g>
    <g id="ytick_13">
     <g id="line2d_16">
      <path clip-path="url(#p5b076514b0)" d="M 288.847208 237.6 
C 288.847208 228.033792 286.962874 218.560604 283.302045 209.72258 
C 279.641215 200.884557 274.275085 192.853576 267.510755 186.089245 
C 260.746424 179.324915 252.715443 173.958785 243.87742 170.297955 
C 235.039396 166.637126 225.566208 164.752792 216 164.752792 
C 206.433792 164.752792 196.960604 166.637126 188.12258 170.297955 
C 179.284557 173.958785 171.253576 179.324915 164.489245 186.089245 
C 157.724915 192.853576 152.358785 200.884557 148.697955 209.72258 
C 145.037126 218.560604 143.152792 228.033792 143.152792 237.6 
C 143.152792 247.166208 145.037126 256.639396 148.697955 265.47742 
C 152.358785 274.315443 157.724915 282.346424 164.489245 289.110755 
C 171.253576 295.875085 179.284557 301.241215 188.12258 304.902045 
C 196.960604 308.562874 206.433792 310.447208 216 310.447208 
C 225.566208 310.447208 235.039396 308.562874 243.87742 304.902045 
C 252.715443 301.241215 260.746424 295.875085 267.510755 289.110755 
C 274.275085 282.346424 279.641215 274.315443 283.302045 265.47742 
C 286.962874 256.639396 288.847208 247.166208 288.847208 237.6 
" style="fill:none;stroke:#808080;stroke-dasharray:2.96,1.28;stroke-dashoffset:0;stroke-width:0.8;"/>
     </g>
    </g>
    <g id="ytick_14">
     <g id="line2d_17">
      <path clip-path="url(#p5b076514b0)" d="M 294.962811 237.6 
C 294.962811 227.230699 292.920285 216.962226 288.952125 207.38224 
C 284.983965 197.802255 279.167342 189.097064 271.835139 181.764861 
C 264.502936 174.432658 255.797745 168.616035 246.21776 164.647875 
C 236.637774 160.679715 226.369301 158.637189 216 158.637189 
C 205.630699 158.637189 195.362226 160.679715 185.78224 164.647875 
C 176.202255 168.616035 167.497064 174.432658 160.164861 181.764861 
C 152.832658 189.097064 147.016035 197.802255 143.047875 207.38224 
C 139.079715 216.962226 137.037189 227.230699 137.037189 237.6 
C 137.037189 247.969301 139.079715 258.237774 143.047875 267.81776 
C 147.016035 277.397745 152.832658 286.102936 160.164861 293.435139 
C 167.497064 300.767342 176.202255 306.583965 185.78224 310.552125 
C 195.362226 314.520285 205.630699 316.562811 216 316.562811 
C 226.369301 316.562811 236.637774 314.520285 246.21776 310.552125 
C 255.797745 306.583965 264.502936 300.767342 271.835139 293.435139 
C 279.167342 286.102936 284.983965 277.397745 288.952125 267.81776 
C 292.920285 258.237774 294.962811 247.969301 294.962811 237.6 
" style="fill:none;stroke:#808080;stroke-dasharray:2.96,1.28;stroke-dashoffset:0;stroke-width:0.8;"/>
     </g>
    </g>
    <g id="ytick_15">
     <g id="line2d_18">
      <path clip-path="url(#p5b076514b0)" d="M 299.706441 237.6 
C 299.706441 226.607771 297.541212 215.722427 293.334668 205.566932 
C 289.128124 195.411436 282.962072 186.183288 275.189392 178.410608 
C 267.416712 170.637928 258.188564 164.471876 248.033068 160.265332 
C 237.877573 156.058788 226.992229 153.893559 216 153.893559 
C 205.007771 153.893559 194.122427 156.058788 183.966932 160.265332 
C 173.811436 164.471876 164.583288 170.637928 156.810608 178.410608 
C 149.037928 186.183288 142.871876 195.411436 138.665332 205.566932 
C 134.458788 215.722427 132.293559 226.607771 132.293559 237.6 
C 132.293559 248.592229 134.458788 259.477573 138.665332 269.633068 
C 142.871876 279.788564 149.037928 289.016712 156.810608 296.789392 
C 164.583288 304.562072 173.811436 310.728124 183.966932 314.934668 
C 194.122427 319.141212 205.007771 321.306441 216 321.306441 
C 226.992229 321.306441 237.877573 319.141212 248.033068 314.934668 
C 258.188564 310.728124 267.416712 304.562072 275.189392 296.789392 
C 282.962072 289.016712 289.128124 279.788564 293.334668 269.633068 
C 297.541212 259.477573 299.706441 248.592229 299.706441 237.6 
" style="fill:none;stroke:#808080;stroke-dasharray:2.96,1.28;stroke-dashoffset:0;stroke-width:0.8;"/>
     </g>
    </g>
    <g id="ytick_16">
     <g id="line2d_19">
      <path clip-path="url(#p5b076514b0)" d="M 303.582269 237.6 
C 303.582269 226.098802 301.316784 214.709438 296.915466 204.083717 
C 292.514148 193.457995 286.062592 183.802559 277.930016 175.669984 
C 269.797441 167.537408 260.142005 161.085852 249.516283 156.684534 
C 238.890562 152.283216 227.501198 150.017731 216 150.017731 
C 204.498802 150.017731 193.109438 152.283216 182.483717 156.684534 
C 171.857995 161.085852 162.202559 167.537408 154.069984 175.669984 
C 145.937408 183.802559 139.485852 193.457995 135.084534 204.083717 
C 130.683216 214.709438 128.417731 226.098802 128.417731 237.6 
C 128.417731 249.101198 130.683216 260.490562 135.084534 271.116283 
C 139.485852 281.742005 145.937408 291.397441 154.069984 299.530016 
C 162.202559 307.662592 171.857995 314.114148 182.483717 318.515466 
C 193.109438 322.916784 204.498802 325.182269 216 325.182269 
C 227.501198 325.182269 238.890562 322.916784 249.516283 318.515466 
C 260.142005 314.114148 269.797441 307.662592 277.930016 299.530016 
C 286.062592 291.397441 292.514148 281.742005 296.915466 271.116283 
C 301.316784 260.490562 303.582269 249.101198 303.582269 237.6 
" style="fill:none;stroke:#808080;stroke-dasharray:2.96,1.28;stroke-dashoffset:0;stroke-width:0.8;"/>
     </g>
    </g>
    <g id="ytick_17">
     <g id="line2d_20">
      <path clip-path="url(#p5b076514b0)" d="M 306.859235 237.6 
C 306.859235 225.668475 304.508985 213.852968 299.942988 202.829676 
C 295.37699 191.806384 288.684044 181.789681 280.247181 173.352819 
C 271.810319 164.915956 261.793616 158.22301 250.770324 153.657012 
C 239.747032 149.091015 227.931525 146.740765 216 146.740765 
C 204.068475 146.740765 192.252968 149.091015 181.229676 153.657012 
C 170.206384 158.22301 160.189681 164.915956 151.752819 173.352819 
C 143.315956 181.789681 136.62301 191.806384 132.057012 202.829676 
C 127.491015 213.852968 125.140765 225.668475 125.140765 237.6 
C 125.140765 249.531525 127.491015 261.347032 132.057012 272.370324 
C 136.62301 283.393616 143.315956 293.410319 151.752819 301.847181 
C 160.189681 310.284044 170.206384 316.97699 181.229676 321.542988 
C 192.252968 326.108985 204.068475 328.459235 216 328.459235 
C 227.931525 328.459235 239.747032 326.108985 250.770324 321.542988 
C 261.793616 316.97699 271.810319 310.284044 280.247181 301.847181 
C 288.684044 293.410319 295.37699 283.393616 299.942988 272.370324 
C 304.508985 261.347032 306.859235 249.531525 306.859235 237.6 
" style="fill:none;stroke:#808080;stroke-dasharray:2.96,1.28;stroke-dashoffset:0;stroke-width:0.8;"/>
     </g>
    </g>
    <g id="ytick_18">
     <g id="line2d_21">
      <path clip-path="url(#p5b076514b0)" d="M 309.697872 237.6 
C 309.697872 225.295708 307.274195 213.11106 302.565546 201.743377 
C 297.856897 190.375693 290.954849 180.046048 282.254401 171.345599 
C 273.553952 162.645151 263.224307 155.743103 251.856623 151.034454 
C 240.48894 146.325805 228.304292 143.902128 216 143.902128 
C 203.695708 143.902128 191.51106 146.325805 180.143377 151.034454 
C 168.775693 155.743103 158.446048 162.645151 149.745599 171.345599 
C 141.045151 180.046048 134.143103 190.375693 129.434454 201.743377 
C 124.725805 213.11106 122.302128 225.295708 122.302128 237.6 
C 122.302128 249.904292 124.725805 262.08894 129.434454 273.456623 
C 134.143103 284.824307 141.045151 295.153952 149.745599 303.854401 
C 158.446048 312.554849 168.775693 319.456897 180.143377 324.165546 
C 191.51106 328.874195 203.695708 331.297872 216 331.297872 
C 228.304292 331.297872 240.48894 328.874195 251.856623 324.165546 
C 263.224307 319.456897 273.553952 312.554849 282.254401 303.854401 
C 290.954849 295.153952 297.856897 284.824307 302.565546 273.456623 
C 307.274195 262.08894 309.697872 249.904292 309.697872 237.6 
" style="fill:none;stroke:#808080;stroke-dasharray:2.96,1.28;stroke-dashoffset:0;stroke-width:0.8;"/>
     </g>
    </g>
    <g id="ytick_19">
     <g id="line2d_22">
      <path clip-path="url(#p5b076514b0)" d="M 312.201727 237.6 
C 312.201727 224.966905 309.713283 212.456651 304.878807 200.785193 
C 300.044331 189.113735 292.957841 178.508054 284.024894 169.575106 
C 275.091946 160.642159 264.486265 153.555669 252.814807 148.721193 
C 241.143349 143.886717 228.633095 141.398273 216 141.398273 
C 203.366905 141.398273 190.856651 143.886717 179.185193 148.721193 
C 167.513735 153.555669 156.908054 160.642159 147.975106 169.575106 
C 139.042159 178.508054 131.955669 189.113735 127.121193 200.785193 
C 122.286717 212.456651 119.798273 224.966905 119.798273 237.6 
C 119.798273 250.233095 122.286717 262.743349 127.121193 274.414807 
C 131.955669 286.086265 139.042159 296.691946 147.975106 305.624894 
C 156.908054 314.557841 167.513735 321.644331 179.185193 326.478807 
C 190.856651 331.313283 203.366905 333.801727 216 333.801727 
C 228.633095 333.801727 241.143349 331.313283 252.814807 326.478807 
C 264.486265 321.644331 275.091946 314.557841 284.024894 305.624894 
C 292.957841 296.691946 300.044331 286.086265 304.878807 274.414807 
C 309.713283 262.743349 312.201727 250.233095 312.201727 237.6 
" style="fill:none;stroke:#808080;stroke-dasharray:2.96,1.28;stroke-dashoffset:0;stroke-width:0.8;"/>
     </g>
    </g>
    <g id="ytick_20">
     <g id="line2d_23">
      <path clip-path="url(#p5b076514b0)" d="M 329.176563 237.6 
C 329.176563 222.73779 326.249032 208.020096 320.56151 194.289204 
C 314.873989 180.558313 306.537085 168.081254 296.027915 157.572085 
C 285.518746 147.062915 273.041687 138.726011 259.310796 133.03849 
C 245.579904 127.350968 230.86221 124.423437 216 124.423437 
C 201.13779 124.423437 186.420096 127.350968 172.689204 133.03849 
C 158.958313 138.726011 146.481254 147.062915 135.972085 157.572085 
C 125.462915 168.081254 117.126011 180.558313 111.43849 194.289204 
C 105.750968 208.020096 102.823437 222.73779 102.823437 237.6 
C 102.823437 252.46221 105.750968 267.179904 111.43849 280.910796 
C 117.126011 294.641687 125.462915 307.118746 135.972085 317.627915 
C 146.481254 328.137085 158.958313 336.473989 172.689204 342.16151 
C 186.420096 347.849032 201.13779 350.776563 216 350.776563 
C 230.86221 350.776563 245.579904 347.849032 259.310796 342.16151 
C 273.041687 336.473989 285.518746 328.137085 296.027915 317.627915 
C 306.537085 307.118746 314.873989 294.641687 320.56151 280.910796 
C 326.249032 267.179904 329.176563 252.46221 329.176563 237.6 
" style="fill:none;stroke:#808080;stroke-dasharray:2.96,1.28;stroke-dashoffset:0;stroke-width:0.8;"/>
     </g>
    </g>
    <g id="ytick_21">
     <g id="line2d_24">
      <path clip-path="url(#p5b076514b0)" d="M 337.796021 237.6 
C 337.796021 221.605893 334.645531 205.767309 328.524851 190.990681 
C 322.404171 176.214052 313.432334 162.786749 302.122793 151.477207 
C 290.813251 140.167666 277.385948 131.195829 262.609319 125.075149 
C 247.832691 118.954469 231.994107 115.803979 216 115.803979 
C 200.005893 115.803979 184.167309 118.954469 169.390681 125.075149 
C 154.614052 131.195829 141.186749 140.167666 129.877207 151.477207 
C 118.567666 162.786749 109.595829 176.214052 103.475149 190.990681 
C 97.354469 205.767309 94.203979 221.605893 94.203979 237.6 
C 94.203979 253.594107 97.354469 269.432691 103.475149 284.209319 
C 109.595829 298.985948 118.567666 312.413251 129.877207 323.722793 
C 141.186749 335.032334 154.614052 344.004171 169.390681 350.124851 
C 184.167309 356.245531 200.005893 359.396021 216 359.396021 
C 231.994107 359.396021 247.832691 356.245531 262.609319 350.124851 
C 277.385948 344.004171 290.813251 335.032334 302.122793 323.722793 
C 313.432334 312.413251 322.404171 298.985948 328.524851 284.209319 
C 334.645531 269.432691 337.796021 253.594107 337.796021 237.6 
" style="fill:none;stroke:#808080;stroke-dasharray:2.96,1.28;stroke-dashoffset:0;stroke-width:0.8;"/>
     </g>
    </g>
    <g id="ytick_22">
     <g id="line2d_25">
      <path clip-path="url(#p5b076514b0)" d="M 343.911624 237.6 
C 343.911624 220.802799 340.602942 204.16893 334.174931 188.650341 
C 327.746921 173.131751 318.324591 159.030238 306.447177 147.152823 
C 294.569762 135.275409 280.468249 125.853079 264.949659 119.425069 
C 249.43107 112.997058 232.797201 109.688376 216 109.688376 
C 199.202799 109.688376 182.56893 112.997058 167.050341 119.425069 
C 151.531751 125.853079 137.430238 135.275409 125.552823 147.152823 
C 113.675409 159.030238 104.253079 173.131751 97.825069 188.650341 
C 91.397058 204.16893 88.088376 220.802799 88.088376 237.6 
C 88.088376 254.397201 91.397058 271.03107 97.825069 286.549659 
C 104.253079 302.068249 113.675409 316.169762 125.552823 328.047177 
C 137.430238 339.924591 151.531751 349.346921 167.050341 355.774931 
C 182.56893 362.202942 199.202799 365.511624 216 365.511624 
C 232.797201 365.511624 249.43107 362.202942 264.949659 355.774931 
C 280.468249 349.346921 294.569762 339.924591 306.447177 328.047177 
C 318.324591 316.169762 327.746921 302.068249 334.174931 286.549659 
C 340.602942 271.03107 343.911624 254.397201 343.911624 237.6 
" style="fill:none;stroke:#808080;stroke-dasharray:2.96,1.28;stroke-dashoffset:0;stroke-width:0.8;"/>
     </g>
    </g>
    <g id="ytick_23">
     <g id="line2d_26">
      <path clip-path="url(#p5b076514b0)" d="M 348.655254 237.6 
C 348.655254 220.179872 345.223869 202.929132 338.557474 186.835032 
C 331.89108 170.740932 322.119321 156.116461 309.80143 143.79857 
C 297.483539 131.480679 282.859068 121.70892 266.764968 115.042526 
C 250.670868 108.376131 233.420128 104.944746 216 104.944746 
C 198.579872 104.944746 181.329132 108.376131 165.235032 115.042526 
C 149.140932 121.70892 134.516461 131.480679 122.19857 143.79857 
C 109.880679 156.116461 100.10892 170.740932 93.442526 186.835032 
C 86.776131 202.929132 83.344746 220.179872 83.344746 237.6 
C 83.344746 255.020128 86.776131 272.270868 93.442526 288.364968 
C 100.10892 304.459068 109.880679 319.083539 122.19857 331.40143 
C 134.516461 343.719321 149.140932 353.49108 165.235032 360.157474 
C 181.329132 366.823869 198.579872 370.255254 216 370.255254 
C 233.420128 370.255254 250.670868 366.823869 266.764968 360.157474 
C 282.859068 353.49108 297.483539 343.719321 309.80143 331.40143 
C 322.119321 319.083539 331.89108 304.459068 338.557474 288.364968 
C 345.223869 272.270868 348.655254 255.020128 348.655254 237.6 
" style="fill:none;stroke:#808080;stroke-dasharray:2.96,1.28;stroke-dashoffset:0;stroke-width:0.8;"/>
     </g>
    </g>
    <g id="ytick_24">
     <g id="line2d_27">
      <path clip-path="url(#p5b076514b0)" d="M 352.531082 237.6 
C 352.531082 219.670903 348.999441 201.916143 342.138272 185.351817 
C 335.277104 168.787491 325.21984 153.735732 312.542054 141.057946 
C 299.864268 128.38016 284.812509 118.322896 268.248183 111.461728 
C 251.683857 104.600559 233.929097 101.068918 216 101.068918 
C 198.070903 101.068918 180.316143 104.600559 163.751817 111.461728 
C 147.187491 118.322896 132.135732 128.38016 119.457946 141.057946 
C 106.78016 153.735732 96.722896 168.787491 89.861728 185.351817 
C 83.000559 201.916143 79.468918 219.670903 79.468918 237.6 
C 79.468918 255.529097 83.000559 273.283857 89.861728 289.848183 
C 96.722896 306.412509 106.78016 321.464268 119.457946 334.142054 
C 132.135732 346.81984 147.187491 356.877104 163.751817 363.738272 
C 180.316143 370.599441 198.070903 374.131082 216 374.131082 
C 233.929097 374.131082 251.683857 370.599441 268.248183 363.738272 
C 284.812509 356.877104 299.864268 346.81984 312.542054 334.142054 
C 325.21984 321.464268 335.277104 306.412509 342.138272 289.848183 
C 348.999441 273.283857 352.531082 255.529097 352.531082 237.6 
" style="fill:none;stroke:#808080;stroke-dasharray:2.96,1.28;stroke-dashoffset:0;stroke-width:0.8;"/>
     </g>
    </g>
    <g id="ytick_25">
     <g id="line2d_28">
      <path clip-path="url(#p5b076514b0)" d="M 355.808048 237.6 
C 355.808048 219.240575 352.191642 201.059673 345.165794 184.097776 
C 338.139947 167.13588 327.841293 151.722855 314.859219 138.740781 
C 301.877145 125.758707 286.46412 115.460053 269.502224 108.434206 
C 252.540327 101.408358 234.359425 97.791952 216 97.791952 
C 197.640575 97.791952 179.459673 101.408358 162.497776 108.434206 
C 145.53588 115.460053 130.122855 125.758707 117.140781 138.740781 
C 104.158707 151.722855 93.860053 167.13588 86.834206 184.097776 
C 79.808358 201.059673 76.191952 219.240575 76.191952 237.6 
C 76.191952 255.959425 79.808358 274.140327 86.834206 291.102224 
C 93.860053 308.06412 104.158707 323.477145 117.140781 336.459219 
C 130.122855 349.441293 145.53588 359.739947 162.497776 366.765794 
C 179.459673 373.791642 197.640575 377.408048 216 377.408048 
C 234.359425 377.408048 252.540327 373.791642 269.502224 366.765794 
C 286.46412 359.739947 301.877145 349.441293 314.859219 336.459219 
C 327.841293 323.477145 338.139947 308.06412 345.165794 291.102224 
C 352.191642 274.140327 355.808048 255.959425 355.808048 237.6 
" style="fill:none;stroke:#808080;stroke-dasharray:2.96,1.28;stroke-dashoffset:0;stroke-width:0.8;"/>
     </g>
    </g>
    <g id="ytick_26">
     <g id="line2d_29">
      <path clip-path="url(#p5b076514b0)" d="M 358.646685 237.6 
C 358.646685 218.867809 354.956852 200.317765 347.788353 183.011477 
C 340.619854 165.705189 330.112098 149.979221 316.866438 136.733562 
C 303.620779 123.487902 287.894811 112.980146 270.588523 105.811647 
C 253.282235 98.643148 234.732191 94.953315 216 94.953315 
C 197.267809 94.953315 178.717765 98.643148 161.411477 105.811647 
C 144.105189 112.980146 128.379221 123.487902 115.133562 136.733562 
C 101.887902 149.979221 91.380146 165.705189 84.211647 183.011477 
C 77.043148 200.317765 73.353315 218.867809 73.353315 237.6 
C 73.353315 256.332191 77.043148 274.882235 84.211647 292.188523 
C 91.380146 309.494811 101.887902 325.220779 115.133562 338.466438 
C 128.379221 351.712098 144.105189 362.219854 161.411477 369.388353 
C 178.717765 376.556852 197.267809 380.246685 216 380.246685 
C 234.732191 380.246685 253.282235 376.556852 270.588523 369.388353 
C 287.894811 362.219854 303.620779 351.712098 316.866438 338.466438 
C 330.112098 325.220779 340.619854 309.494811 347.788353 292.188523 
C 354.956852 274.882235 358.646685 256.332191 358.646685 237.6 
" style="fill:none;stroke:#808080;stroke-dasharray:2.96,1.28;stroke-dashoffset:0;stroke-width:0.8;"/>
     </g>
    </g>
    <g id="ytick_27">
     <g id="line2d_30">
      <path clip-path="url(#p5b076514b0)" d="M 361.15054 237.6 
C 361.15054 218.539006 357.39594 199.663356 350.101613 182.053293 
C 342.807287 164.44323 332.11509 148.441227 318.636931 134.963069 
C 305.158773 121.48491 289.15677 110.792713 271.546707 103.498387 
C 253.936644 96.20406 235.060994 92.44946 216 92.44946 
C 196.939006 92.44946 178.063356 96.20406 160.453293 103.498387 
C 142.84323 110.792713 126.841227 121.48491 113.363069 134.963069 
C 99.88491 148.441227 89.192713 164.44323 81.898387 182.053293 
C 74.60406 199.663356 70.84946 218.539006 70.84946 237.6 
C 70.84946 256.660994 74.60406 275.536644 81.898387 293.146707 
C 89.192713 310.75677 99.88491 326.758773 113.363069 340.236931 
C 126.841227 353.71509 142.84323 364.407287 160.453293 371.701613 
C 178.063356 378.99594 196.939006 382.75054 216 382.75054 
C 235.060994 382.75054 253.936644 378.99594 271.546707 371.701613 
C 289.15677 364.407287 305.158773 353.71509 318.636931 340.236931 
C 332.11509 326.758773 342.807287 310.75677 350.101613 293.146707 
C 357.39594 275.536644 361.15054 256.660994 361.15054 237.6 
" style="fill:none;stroke:#808080;stroke-dasharray:2.96,1.28;stroke-dashoffset:0;stroke-width:0.8;"/>
     </g>
    </g>
   </g>
   <g id="line2d_31">
    <path clip-path="url(#p5b076514b0)" d="M 216.543876 237.6 
L 363.390315 237.6 
" style="fill:none;stroke:#000000;stroke-linecap:square;stroke-width:0.75;"/>
   </g>
   <g id="line2d_32">
    <path clip-path="url(#p5b076514b0)" d="M 215.728062 237.12899 
L 142.304842 109.956243 
" style="fill:none;stroke:#000000;stroke-linecap:square;stroke-width:0.75;"/>
   </g>
   <g id="line2d_33">
    <path clip-path="url(#p5b076514b0)" d="M 215.728062 238.07101 
L 142.304842 365.243757 
" style="fill:none;stroke:#000000;stroke-linecap:square;stroke-width:0.75;"/>
   </g>
   <g id="line2d_34">
    <path clip-path="url(#p5b076514b0)" d="M 216.543876 237.6 
L 363.390315 237.6 
" style="fill:none;stroke:#000000;stroke-linecap:square;stroke-width:0.75;"/>
   </g>
   <g id="line2d_35">
    <path clip-path="url(#p5b076514b0)" d="M 314.474067 237.6 
L 191.1394 194.540177 
L 214.868765 239.559356 
L 314.474067 237.6 
" style="fill:none;stroke:#1f77b4;stroke-linecap:square;stroke-width:1.5;"/>
   </g>
   <g id="line2d_36">
    <path clip-path="url(#p5b076514b0)" d="M 312.218648 237.6 
L 200.806149 211.283478 
L 215.728062 238.07101 
L 312.218648 237.6 
" style="fill:none;stroke:#ff7f0e;stroke-linecap:square;stroke-width:1.5;"/>
   </g>
   <g id="line2d_37">
    <path clip-path="url(#p5b076514b0)" d="M 306.882915 237.6 
L 208.069601 223.864146 
L 215.728062 238.07101 
L 306.882915 237.6 
" style="fill:none;stroke:#2ca02c;stroke-linecap:square;stroke-width:1.5;"/>
   </g>
   <g id="text_4">
    <!-- Logarithmic polar plot -->
    <g transform="translate(161.839189 71.130228)scale(0.12 -0.12)">
     <defs>
      <path d="M 26.09375 6.5 
C 24.90625 6.5 23.703125 6.390625 22.5 6.390625 
L 17.203125 6.390625 
L 17.203125 69 
L 8.796875 69 
L 8.796875 0 
L 46.90625 0 
L 46.90625 6.5 
z
" id="CMSS17-76"/>
      <path d="M 44.203125 21.1875 
C 44.203125 33.984375 34.703125 44 23.5 44 
C 12 44 2.703125 33.6875 2.703125 21.1875 
C 2.703125 8.5 12.296875 -1 23.40625 -1 
C 34.796875 -1 44.203125 8.796875 44.203125 21.1875 
z
M 23.5 5.296875 
C 16.40625 5.296875 10.296875 11.09375 10.296875 21.984375 
C 10.296875 33.59375 17.40625 37.890625 23.40625 37.890625 
C 29.90625 37.890625 36.59375 33.1875 36.59375 21.984375 
C 36.59375 10.6875 30.09375 5.296875 23.5 5.296875 
z
" id="CMSS17-111"/>
      <path d="M 44.5 44 
C 38.796875 43.890625 33.90625 42.796875 29.90625 40.890625 
C 26.59375 43.484375 23.203125 44 20.90625 44 
C 12.203125 44 5.59375 36.8125 5.59375 28.5 
C 5.59375 23.140625 8.59375 19.09375 8.796875 18.890625 
C 7 16.390625 6 13.6875 6 10.6875 
C 6 7.1875 7.40625 4.6875 8.5 3.296875 
C 3.296875 0.09375 2.59375 -4.8125 2.59375 -6.703125 
C 2.59375 -14 11.703125 -20 23.40625 -20 
C 35.203125 -20 44.296875 -14 44.296875 -6.609375 
C 44.296875 7.1875 29 7.296875 24.796875 7.296875 
L 16.703125 7.296875 
C 15.203125 7.296875 11.203125 7.296875 11.203125 12.390625 
C 11.203125 14.390625 12.09375 15.6875 12.203125 15.796875 
C 13.703125 14.6875 16.796875 13 20.90625 13 
C 29.203125 13 36.09375 19.984375 36.09375 28.5 
C 36.09375 33.25 33.90625 36.703125 33 37.890625 
L 33.296875 37.890625 
C 33.59375 37.890625 37.796875 38.1875 39.296875 38.1875 
C 42.5 38.1875 42.796875 38.09375 45.59375 37.796875 
z
M 20.90625 18.5 
C 17.5 18.5 12.703125 20.578125 12.703125 28.5 
C 12.703125 37.109375 18.203125 38.484375 20.796875 38.484375 
C 24.203125 38.484375 29 36.40625 29 28.5 
C 29 19.875 23.5 18.5 20.90625 18.5 
z
M 24.703125 0 
C 27.09375 0 37.203125 0 37.203125 -6.8125 
C 37.203125 -11.109375 31 -14.5 23.5 -14.5 
C 15.90625 -14.5 9.703125 -11.203125 9.703125 -6.703125 
C 9.703125 -6.203125 9.703125 0 16.59375 0 
z
" id="CMSS17-103"/>
      <path d="M 37.59375 27.953125 
C 37.59375 37.484375 30.90625 44 21.90625 44 
C 17.5 44 12.703125 43.1875 7.203125 39.984375 
L 7.796875 33.328125 
C 10.296875 35.15625 14.59375 38.09375 21.796875 38.09375 
C 26.90625 38.09375 30 34.140625 30 27.84375 
L 30 24 
C 14 23.5 4 18.890625 4 11.109375 
C 4 7.0625 6.5 -1 14.796875 -1 
C 16.296875 -1 24.40625 -0.8125 30.203125 3.5 
L 30.203125 -0.203125 
L 37.59375 -0.203125 
z
M 30 12.875 
C 30 11.109375 30 8.734375 27 6.96875 
C 24.40625 5.296875 21.09375 5.09375 19.703125 5.09375 
C 14.703125 5.09375 11.296875 7.859375 11.296875 11.296875 
C 11.296875 18.203125 26.90625 18.890625 30 19 
z
" id="CMSS17-97"/>
      <path d="M 14.90625 21.390625 
C 14.90625 30.84375 21.796875 37.171875 30.59375 37.375 
L 30.59375 44 
C 24.203125 43.890625 18.203125 40.6875 14.59375 35.46875 
L 14.59375 43.484375 
L 7.5 43.484375 
L 7.5 0 
L 14.90625 0 
z
" id="CMSS17-114"/>
      <path d="M 15.296875 66 
L 6.90625 66 
L 6.90625 57.59375 
L 15.296875 57.59375 
z
M 14.796875 43 
L 7.40625 43 
L 7.40625 0 
L 14.796875 0 
z
" id="CMSS17-105"/>
      <path d="M 16.703125 37.1875 
L 29.703125 37.1875 
L 29.703125 43 
L 16.703125 43 
L 16.703125 55 
L 9.59375 55 
L 9.59375 43 
L 1.703125 43 
L 1.703125 37.1875 
L 9.40625 37.1875 
L 9.40625 11.734375 
C 9.40625 6 10.703125 -1 17.296875 -1 
C 22.296875 -1 26.90625 0.390625 31.296875 2.6875 
L 29.703125 8.609375 
C 27.296875 6.5 24.40625 5.296875 21.296875 5.296875 
C 16.90625 5.296875 16.703125 10.921875 16.703125 13.4375 
z
" id="CMSS17-116"/>
      <path d="M 40.90625 29.34375 
C 40.90625 35.671875 39.40625 44 28.09375 44 
C 21.796875 44 17.703125 40.890625 14.796875 37.484375 
L 14.796875 69 
L 7.40625 69 
L 7.40625 0 
L 15 0 
L 15 24.3125 
C 15 30.65625 17.40625 37.890625 24.203125 37.890625 
C 33 37.890625 33.296875 31.953125 33.296875 28.53125 
L 33.296875 0 
L 40.90625 0 
z
" id="CMSS17-104"/>
      <path d="M 38.5 39.6875 
C 38.5 40.390625 33.90625 42.390625 32.703125 42.796875 
C 29.40625 44 25.203125 44 24.09375 44 
C 11.09375 44 3.296875 32.6875 3.296875 21.296875 
C 3.296875 9.296875 12 -1 23.703125 -1 
C 30.40625 -1 35.203125 1.1875 39.09375 3.796875 
L 38.5 10.390625 
C 34.203125 7.09375 29.203125 5.296875 23.796875 5.296875 
C 16 5.296875 10.90625 12.09375 10.90625 21.390625 
C 10.90625 28.59375 14.203125 37.6875 24.203125 37.6875 
C 29.703125 37.6875 32.796875 36.59375 37.40625 33.484375 
z
" id="CMSS17-99"/>
      <path d="M 14.796875 69 
L 7.40625 69 
L 7.40625 0 
L 14.796875 0 
z
" id="CMSS17-108"/>
     </defs>
     <use transform="scale(0.996264)" xlink:href="#CMSS17-76"/>
     <use transform="translate(50.687105 0)scale(0.996264)" xlink:href="#CMSS17-111"/>
     <use transform="translate(97.530729 0)scale(0.996264)" xlink:href="#CMSS17-103"/>
     <use transform="translate(144.374352 0)scale(0.996264)" xlink:href="#CMSS17-97"/>
     <use transform="translate(186.693819 0)scale(0.996264)" xlink:href="#CMSS17-114"/>
     <use transform="translate(218.603592 0)scale(0.996264)" xlink:href="#CMSS17-105"/>
     <use transform="translate(240.784315 0)scale(0.996264)" xlink:href="#CMSS17-116"/>
     <use transform="translate(274.615881 0)scale(0.996264)" xlink:href="#CMSS17-104"/>
     <use transform="translate(322.820824 0)scale(0.996264)" xlink:href="#CMSS17-109"/>
     <use transform="translate(397.050079 0)scale(0.996264)" xlink:href="#CMSS17-105"/>
     <use transform="translate(419.230802 0)scale(0.996264)" xlink:href="#CMSS17-99"/>
     <use transform="translate(492.098737 0)scale(0.996264)" xlink:href="#CMSS17-112"/>
     <use transform="translate(542.906119 0)scale(0.996264)" xlink:href="#CMSS17-111"/>
     <use transform="translate(589.749742 0)scale(0.996264)" xlink:href="#CMSS17-108"/>
     <use transform="translate(611.930465 0)scale(0.996264)" xlink:href="#CMSS17-97"/>
     <use transform="translate(654.249932 0)scale(0.996264)" xlink:href="#CMSS17-114"/>
     <use transform="translate(717.388817 0)scale(0.996264)" xlink:href="#CMSS17-112"/>
     <use transform="translate(765.59376 0)scale(0.996264)" xlink:href="#CMSS17-108"/>
     <use transform="translate(787.774483 0)scale(0.996264)" xlink:href="#CMSS17-111"/>
     <use transform="translate(834.618107 0)scale(0.996264)" xlink:href="#CMSS17-116"/>
    </g>
   </g>
   <g id="legend_1">
    <g id="patch_6">
     <path d="M 290.867721 138.291866 
L 360.2 138.291866 
Q 362.2 138.291866 362.2 136.291866 
L 362.2 93.4 
Q 362.2 91.4 360.2 91.4 
L 290.867721 91.4 
Q 288.867721 91.4 288.867721 93.4 
L 288.867721 136.291866 
Q 288.867721 138.291866 290.867721 138.291866 
z
" style="fill:#ffffff;opacity:0.8;stroke:#cccccc;stroke-linejoin:miter;"/>
    </g>
    <g id="line2d_38">
     <path d="M 292.867721 99.498438 
L 312.867721 99.498438 
" style="fill:none;stroke:#1f77b4;stroke-linecap:square;stroke-width:1.5;"/>
    </g>
    <g id="line2d_39"/>
    <g id="text_5">
     <!-- $0\,$\% r.h. -->
     <g transform="translate(320.867721 102.998438)scale(0.1 -0.1)">
      <defs>
       <path d="M 61.296875 71.59375 
C 61.90625 72.59375 61.90625 73.09375 61.90625 73.1875 
C 61.90625 74.296875 61 75 60.203125 75 
C 59.09375 75 58.59375 74.1875 58.09375 73.1875 
L 17.203125 -1.703125 
C 17 -2.109375 16.59375 -2.703125 16.59375 -3.3125 
C 16.59375 -4.40625 17.5 -5.109375 18.40625 -5.109375 
C 19.296875 -5.109375 19.5 -4.703125 20.296875 -3.3125 
z
M 73.09375 14.890625 
C 73.09375 26.40625 66.90625 34.890625 60.09375 34.890625 
C 53.40625 34.890625 47 26.609375 47 14.890625 
C 47 3.171875 53.40625 -5.109375 60.09375 -5.109375 
C 67 -5.109375 73.09375 3.375 73.09375 14.890625 
z
M 60.09375 1 
C 58 1 54.59375 2.875 54.59375 14.890625 
C 54.59375 26.8125 58 28.796875 60.09375 28.796875 
C 63.796875 28.796875 65.796875 21.546875 65.796875 14.890625 
C 65.796875 8.234375 63.796875 1 60.09375 1 
z
M 31.296875 54.9375 
C 31.296875 66.5 25.09375 75 18.296875 75 
C 11.59375 75 5.203125 66.703125 5.203125 54.9375 
C 5.203125 43.1875 11.59375 34.890625 18.296875 34.890625 
C 25.203125 34.890625 31.296875 43.390625 31.296875 54.9375 
z
M 18.296875 41 
C 16.203125 41 12.796875 42.890625 12.796875 54.9375 
C 12.796875 66.90625 16.203125 68.890625 18.296875 68.890625 
C 22 68.890625 24 61.625 24 54.9375 
C 24 48.265625 22 41 18.296875 41 
z
" id="CMSS17-37"/>
       <path d="M 17 8 
L 9 8 
L 9 0 
L 17 0 
z
" id="CMSS17-46"/>
      </defs>
      <use transform="scale(0.996264)" xlink:href="#CMR17-48"/>
      <use transform="translate(62.294882 0)scale(0.996264)" xlink:href="#CMSS17-37"/>
      <use transform="translate(171.596731 0)scale(0.996264)" xlink:href="#CMSS17-114"/>
      <use transform="translate(203.506504 0)scale(0.996264)" xlink:href="#CMSS17-46"/>
      <use transform="translate(229.530709 0)scale(0.996264)" xlink:href="#CMSS17-104"/>
      <use transform="translate(277.735652 0)scale(0.996264)" xlink:href="#CMSS17-46"/>
     </g>
    </g>
    <g id="line2d_40">
     <path d="M 292.867721 114.176563 
L 312.867721 114.176563 
" style="fill:none;stroke:#ff7f0e;stroke-linecap:square;stroke-width:1.5;"/>
    </g>
    <g id="line2d_41"/>
    <g id="text_6">
     <!-- $30\,$\% r.h. -->
     <g transform="translate(320.867721 117.676563)scale(0.1 -0.1)">
      <defs>
       <path d="M 22.09375 34 
C 31 34 34.90625 26.140625 34.90625 17.09375 
C 34.90625 5.03125 28.5 0.390625 22.703125 0.390625 
C 17.40625 0.390625 8.796875 3.015625 6.09375 10.796875 
C 6.59375 10.59375 7.09375 10.59375 7.59375 10.59375 
C 10 10.59375 11.796875 12.1875 11.796875 14.796875 
C 11.796875 17.6875 9.59375 19 7.59375 19 
C 5.90625 19 3.296875 18.1875 3.296875 14.484375 
C 3.296875 5.234375 12.296875 -2 22.90625 -2 
C 34 -2 42.5 6.75 42.5 16.984375 
C 42.5 26.84375 34.5 34 25 35.09375 
C 32.59375 36.671875 39.90625 43.375 39.90625 52.390625 
C 39.90625 60.25 32 66 23 66 
C 13.90625 66 5.90625 60.34375 5.90625 52.296875 
C 5.90625 48.796875 8.5 48.1875 9.796875 48.1875 
C 11.90625 48.1875 13.703125 49.484375 13.703125 52.09375 
C 13.703125 54.6875 11.90625 56 9.796875 56 
C 9.40625 56 8.90625 56 8.5 55.796875 
C 11.40625 62.484375 19.296875 63.6875 22.796875 63.6875 
C 26.296875 63.6875 32.90625 61.96875 32.90625 52.296875 
C 32.90625 49.484375 32.5 44.546875 29.09375 40.21875 
C 26.09375 36.390625 22.703125 36.1875 19.40625 35.890625 
C 18.90625 35.890625 16.59375 35.6875 16.203125 35.6875 
C 15.5 35.59375 15.09375 35.5 15.09375 34.796875 
C 15.09375 34.09375 15.203125 34 17.203125 34 
z
" id="CMR17-51"/>
      </defs>
      <use transform="scale(0.996264)" xlink:href="#CMR17-51"/>
      <use transform="translate(45.690477 0)scale(0.996264)" xlink:href="#CMR17-48"/>
      <use transform="translate(107.985359 0)scale(0.996264)" xlink:href="#CMSS17-37"/>
      <use transform="translate(217.287208 0)scale(0.996264)" xlink:href="#CMSS17-114"/>
      <use transform="translate(249.196981 0)scale(0.996264)" xlink:href="#CMSS17-46"/>
      <use transform="translate(275.221186 0)scale(0.996264)" xlink:href="#CMSS17-104"/>
      <use transform="translate(323.426129 0)scale(0.996264)" xlink:href="#CMSS17-46"/>
     </g>
    </g>
    <g id="line2d_42">
     <path d="M 292.867721 128.854688 
L 312.867721 128.854688 
" style="fill:none;stroke:#2ca02c;stroke-linecap:square;stroke-width:1.5;"/>
    </g>
    <g id="line2d_43"/>
    <g id="text_7">
     <!-- $50\,$\% r.h. -->
     <g transform="translate(320.867721 132.354688)scale(0.1 -0.1)">
      <use transform="scale(0.996264)" xlink:href="#CMR17-53"/>
      <use transform="translate(45.690477 0)scale(0.996264)" xlink:href="#CMR17-48"/>
      <use transform="translate(107.985359 0)scale(0.996264)" xlink:href="#CMSS17-37"/>
      <use transform="translate(217.287208 0)scale(0.996264)" xlink:href="#CMSS17-114"/>
      <use transform="translate(249.196981 0)scale(0.996264)" xlink:href="#CMSS17-46"/>
      <use transform="translate(275.221186 0)scale(0.996264)" xlink:href="#CMSS17-104"/>
      <use transform="translate(323.426129 0)scale(0.996264)" xlink:href="#CMSS17-46"/>
     </g>
    </g>
   </g>
  </g>
  <g id="axes_2">
   <g id="matplotlib.axis_3">
    <g id="xtick_4"/>
    <g id="xtick_5"/>
    <g id="xtick_6"/>
    <g id="xtick_7"/>
    <g id="xtick_8"/>
    <g id="xtick_9"/>
   </g>
   <g id="matplotlib.axis_4">
    <g id="ytick_28">
     <g id="line2d_44">
      <defs>
       <path d="M 0 0 
L -3.5 0 
" id="me276493bcc" style="stroke:#000000;stroke-width:0.8;"/>
      </defs>
      <g>
       <use style="stroke:#000000;stroke-width:0.8;" x="43.2" xlink:href="#me276493bcc" y="188.107311"/>
      </g>
     </g>
     <g id="text_8">
      <!-- $\mathdefault{10}$ -->
      <g transform="translate(26.237329 191.56656)scale(0.1 -0.1)">
       <use transform="scale(0.996264)" xlink:href="#CMR17-49"/>
       <use transform="translate(45.690477 0)scale(0.996264)" xlink:href="#CMR17-48"/>
      </g>
     </g>
    </g>
    <g id="ytick_29">
     <g id="line2d_45">
      <g>
       <use style="stroke:#000000;stroke-width:0.8;" x="43.2" xlink:href="#me276493bcc" y="139.158498"/>
      </g>
     </g>
     <g id="text_9">
      <!-- $\mathdefault{100}$ -->
      <g transform="translate(21.255994 142.617747)scale(0.1 -0.1)">
       <use transform="scale(0.996264)" xlink:href="#CMR17-49"/>
       <use transform="translate(45.690477 0)scale(0.996264)" xlink:href="#CMR17-48"/>
       <use transform="translate(91.380954 0)scale(0.996264)" xlink:href="#CMR17-48"/>
      </g>
     </g>
    </g>
    <g id="ytick_30">
     <g id="line2d_46">
      <g>
       <use style="stroke:#000000;stroke-width:0.8;" x="43.2" xlink:href="#me276493bcc" y="90.209685"/>
      </g>
     </g>
     <g id="text_10">
      <!-- $\mathdefault{1000}$ -->
      <g transform="translate(16.274659 93.668934)scale(0.1 -0.1)">
       <use transform="scale(0.996264)" xlink:href="#CMR17-49"/>
       <use transform="translate(45.690477 0)scale(0.996264)" xlink:href="#CMR17-48"/>
       <use transform="translate(91.380954 0)scale(0.996264)" xlink:href="#CMR17-48"/>
       <use transform="translate(137.071431 0)scale(0.996264)" xlink:href="#CMR17-48"/>
      </g>
     </g>
    </g>
    <g id="ytick_31">
     <g id="line2d_47">
      <defs>
       <path d="M 0 0 
L -2 0 
" id="m561d5b05c1" style="stroke:#000000;stroke-width:0.6;"/>
      </defs>
      <g>
       <use style="stroke:#000000;stroke-width:0.6;" x="43.2" xlink:href="#m561d5b05c1" y="222.321063"/>
      </g>
     </g>
    </g>
    <g id="ytick_32">
     <g id="line2d_48">
      <g>
       <use style="stroke:#000000;stroke-width:0.6;" x="43.2" xlink:href="#m561d5b05c1" y="213.701605"/>
      </g>
     </g>
    </g>
    <g id="ytick_33">
     <g id="line2d_49">
      <g>
       <use style="stroke:#000000;stroke-width:0.6;" x="43.2" xlink:href="#m561d5b05c1" y="207.586002"/>
      </g>
     </g>
    </g>
    <g id="ytick_34">
     <g id="line2d_50">
      <g>
       <use style="stroke:#000000;stroke-width:0.6;" x="43.2" xlink:href="#m561d5b05c1" y="202.842372"/>
      </g>
     </g>
    </g>
    <g id="ytick_35">
     <g id="line2d_51">
      <g>
       <use style="stroke:#000000;stroke-width:0.6;" x="43.2" xlink:href="#m561d5b05c1" y="198.966544"/>
      </g>
     </g>
    </g>
    <g id="ytick_36">
     <g id="line2d_52">
      <g>
       <use style="stroke:#000000;stroke-width:0.6;" x="43.2" xlink:href="#m561d5b05c1" y="195.689578"/>
      </g>
     </g>
    </g>
    <g id="ytick_37">
     <g id="line2d_53">
      <g>
       <use style="stroke:#000000;stroke-width:0.6;" x="43.2" xlink:href="#m561d5b05c1" y="192.850941"/>
      </g>
     </g>
    </g>
    <g id="ytick_38">
     <g id="line2d_54">
      <g>
       <use style="stroke:#000000;stroke-width:0.6;" x="43.2" xlink:href="#m561d5b05c1" y="190.347086"/>
      </g>
     </g>
    </g>
    <g id="ytick_39">
     <g id="line2d_55">
      <g>
       <use style="stroke:#000000;stroke-width:0.6;" x="43.2" xlink:href="#m561d5b05c1" y="173.37225"/>
      </g>
     </g>
    </g>
    <g id="ytick_40">
     <g id="line2d_56">
      <g>
       <use style="stroke:#000000;stroke-width:0.6;" x="43.2" xlink:href="#m561d5b05c1" y="164.752792"/>
      </g>
     </g>
    </g>
    <g id="ytick_41">
     <g id="line2d_57">
      <g>
       <use style="stroke:#000000;stroke-width:0.6;" x="43.2" xlink:href="#m561d5b05c1" y="158.637189"/>
      </g>
     </g>
    </g>
    <g id="ytick_42">
     <g id="line2d_58">
      <g>
       <use style="stroke:#000000;stroke-width:0.6;" x="43.2" xlink:href="#m561d5b05c1" y="153.893559"/>
      </g>
     </g>
    </g>
    <g id="ytick_43">
     <g id="line2d_59">
      <g>
       <use style="stroke:#000000;stroke-width:0.6;" x="43.2" xlink:href="#m561d5b05c1" y="150.017731"/>
      </g>
     </g>
    </g>
    <g id="ytick_44">
     <g id="line2d_60">
      <g>
       <use style="stroke:#000000;stroke-width:0.6;" x="43.2" xlink:href="#m561d5b05c1" y="146.740765"/>
      </g>
     </g>
    </g>
    <g id="ytick_45">
     <g id="line2d_61">
      <g>
       <use style="stroke:#000000;stroke-width:0.6;" x="43.2" xlink:href="#m561d5b05c1" y="143.902128"/>
      </g>
     </g>
    </g>
    <g id="ytick_46">
     <g id="line2d_62">
      <g>
       <use style="stroke:#000000;stroke-width:0.6;" x="43.2" xlink:href="#m561d5b05c1" y="141.398273"/>
      </g>
     </g>
    </g>
    <g id="ytick_47">
     <g id="line2d_63">
      <g>
       <use style="stroke:#000000;stroke-width:0.6;" x="43.2" xlink:href="#m561d5b05c1" y="124.423437"/>
      </g>
     </g>
    </g>
    <g id="ytick_48">
     <g id="line2d_64">
      <g>
       <use style="stroke:#000000;stroke-width:0.6;" x="43.2" xlink:href="#m561d5b05c1" y="115.803979"/>
      </g>
     </g>
    </g>
    <g id="ytick_49">
     <g id="line2d_65">
      <g>
       <use style="stroke:#000000;stroke-width:0.6;" x="43.2" xlink:href="#m561d5b05c1" y="109.688376"/>
      </g>
     </g>
    </g>
    <g id="ytick_50">
     <g id="line2d_66">
      <g>
       <use style="stroke:#000000;stroke-width:0.6;" x="43.2" xlink:href="#m561d5b05c1" y="104.944746"/>
      </g>
     </g>
    </g>
    <g id="ytick_51">
     <g id="line2d_67">
      <g>
       <use style="stroke:#000000;stroke-width:0.6;" x="43.2" xlink:href="#m561d5b05c1" y="101.068918"/>
      </g>
     </g>
    </g>
    <g id="ytick_52">
     <g id="line2d_68">
      <g>
       <use style="stroke:#000000;stroke-width:0.6;" x="43.2" xlink:href="#m561d5b05c1" y="97.791952"/>
      </g>
     </g>
    </g>
    <g id="ytick_53">
     <g id="line2d_69">
      <g>
       <use style="stroke:#000000;stroke-width:0.6;" x="43.2" xlink:href="#m561d5b05c1" y="94.953315"/>
      </g>
     </g>
    </g>
    <g id="ytick_54">
     <g id="line2d_70">
      <g>
       <use style="stroke:#000000;stroke-width:0.6;" x="43.2" xlink:href="#m561d5b05c1" y="92.44946"/>
      </g>
     </g>
    </g>
    <g id="text_11">
     <!-- Sensor signals -->
     <g transform="translate(10.337481 188.266338)rotate(-90)scale(0.1 -0.1)">
      <defs>
       <path d="M 43.703125 66.09375 
C 39.296875 68.6875 34.5 71 26.40625 71 
C 13.5 71 5.203125 61.46875 5.203125 51.703125 
C 5.203125 47.875 6.296875 43.546875 10.203125 39.125 
C 14.09375 34.6875 18.5 33.484375 24.09375 32.078125 
C 26.40625 31.46875 30.296875 30.359375 31 30.0625 
C 36.59375 27.84375 39.296875 22.71875 39.296875 17.875 
C 39.296875 11.53125 34.40625 4.796875 25.703125 4.796875 
C 22.703125 4.796875 13.90625 5.296875 5.59375 12.953125 
L 4.203125 5 
C 12.40625 -1 21.296875 -2 25.796875 -2 
C 38.09375 -2 46.90625 7.71875 46.90625 18.78125 
C 46.90625 22.8125 45.703125 27.953125 41.5 32.6875 
C 37.40625 37.203125 33.796875 38.21875 25.59375 40.4375 
C 20.90625 41.640625 17.90625 42.453125 15.40625 45.5625 
C 13.703125 47.78125 12.796875 49.890625 12.796875 52.609375 
C 12.796875 58.25 17.59375 64.390625 26.40625 64.390625 
C 30.796875 64.390625 36.5 63.484375 42.296875 58.046875 
z
" id="CMSS17-83"/>
       <path d="M 39.09375 21.484375 
C 39.09375 24.796875 38.90625 31.265625 35.703125 36.671875 
C 32.203125 42.390625 26.5 44 22.203125 44 
C 11.796875 44 3 34.125 3 21.296875 
C 3 9.046875 12.09375 -1 23.59375 -1 
C 28.09375 -1 33.59375 0.296875 38.59375 3.890625 
C 38.59375 4.296875 38.40625 6.46875 38.296875 6.578125 
C 38.296875 6.765625 38 9.828125 38 10.234375 
C 33.203125 6.375 27.703125 5.09375 23.703125 5.09375 
C 17.296875 5.09375 10.40625 10.421875 10.09375 21.484375 
z
M 10.90625 27 
C 12.203125 32.59375 16.59375 37.890625 22.203125 37.890625 
C 23.703125 37.890625 30.703125 37.6875 32.5 27 
z
" id="CMSS17-101"/>
       <path d="M 40.90625 29.34375 
C 40.90625 35.671875 39.40625 44 28.09375 44 
C 21.703125 44 17.5 40.6875 14.703125 37.28125 
L 14.703125 43.484375 
L 7.40625 43.484375 
L 7.40625 0 
L 15 0 
L 15 24.3125 
C 15 30.65625 17.40625 37.890625 24.203125 37.890625 
C 33 37.890625 33.296875 31.953125 33.296875 28.53125 
L 33.296875 0 
L 40.90625 0 
z
" id="CMSS17-110"/>
       <path d="M 32.203125 40.984375 
C 26.296875 43.796875 21.703125 44 18.703125 44 
C 11.59375 44 3.09375 41.484375 3.09375 31.390625 
C 3.09375 21.296875 14.09375 19.09375 17.09375 18.484375 
C 21.703125 17.59375 26.796875 16.59375 26.796875 11.59375 
C 26.796875 5.296875 19.59375 5.296875 18.296875 5.296875 
C 14.296875 5.296875 8.796875 6.390625 3.796875 9.984375 
L 2.59375 3.296875 
C 8.296875 0 13.796875 -1 18.40625 -1 
C 30.703125 -1 33.796875 6.5 33.796875 12.1875 
C 33.796875 17.09375 31 20.390625 29.09375 21.890625 
C 25.796875 24.484375 24.59375 24.796875 16.40625 26.484375 
C 15 26.6875 10.09375 27.796875 10.09375 32.296875 
C 10.09375 37.984375 16.40625 37.984375 17.796875 37.984375 
C 24.296875 37.984375 28.296875 35.984375 31 34.484375 
z
" id="CMSS17-115"/>
      </defs>
      <use transform="scale(0.996264)" xlink:href="#CMSS17-83"/>
      <use transform="translate(52.048516 0)scale(0.996264)" xlink:href="#CMSS17-101"/>
      <use transform="translate(93.687338 0)scale(0.996264)" xlink:href="#CMSS17-110"/>
      <use transform="translate(141.892281 0)scale(0.996264)" xlink:href="#CMSS17-115"/>
      <use transform="translate(177.805823 0)scale(0.996264)" xlink:href="#CMSS17-111"/>
      <use transform="translate(222.046993 0)scale(0.996264)" xlink:href="#CMSS17-114"/>
      <use transform="translate(285.185878 0)scale(0.996264)" xlink:href="#CMSS17-115"/>
      <use transform="translate(321.09942 0)scale(0.996264)" xlink:href="#CMSS17-105"/>
      <use transform="translate(343.280143 0)scale(0.996264)" xlink:href="#CMSS17-103"/>
      <use transform="translate(390.123767 0)scale(0.996264)" xlink:href="#CMSS17-110"/>
      <use transform="translate(438.32871 0)scale(0.996264)" xlink:href="#CMSS17-97"/>
      <use transform="translate(483.250631 0)scale(0.996264)" xlink:href="#CMSS17-108"/>
      <use transform="translate(505.431354 0)scale(0.996264)" xlink:href="#CMSS17-115"/>
     </g>
    </g>
   </g>
   <g id="patch_7">
    <path d="M 43.2 235.030001 
L 43.2 83.830001 
" style="fill:none;stroke:#000000;stroke-linecap:square;stroke-linejoin:miter;stroke-width:0.8;"/>
   </g>
  </g>
 </g>
 <defs>
  <clipPath id="p5b076514b0">
   <path d="M 367.2 237.6 
C 367.2 217.744598 363.288919 198.082265 355.690585 179.738265 
C 348.092252 161.394265 336.954435 144.725344 322.914545 130.685455 
C 308.874656 116.645565 292.205735 105.507748 273.861735 97.909415 
C 255.517735 90.311081 235.855402 86.4 216 86.4 
C 196.144598 86.4 176.482265 90.311081 158.138265 97.909415 
C 139.794265 105.507748 123.125344 116.645565 109.085455 130.685455 
C 95.045565 144.725344 83.907748 161.394265 76.309415 179.738265 
C 68.711081 198.082265 64.8 217.744598 64.8 237.6 
C 64.8 257.455402 68.711081 277.117735 76.309415 295.461735 
C 83.907748 313.805735 95.045565 330.474656 109.085455 344.514545 
C 123.125344 358.554435 139.794265 369.692252 158.138265 377.290585 
C 176.482265 384.888919 196.144598 388.8 216 388.8 
C 235.855402 388.8 255.517735 384.888919 273.861735 377.290585 
C 292.205735 369.692252 308.874656 358.554435 322.914545 344.514545 
C 336.954435 330.474656 348.092252 313.805735 355.690585 295.461735 
C 363.288919 277.117735 367.2 257.455402 367.2 237.6 
M 216 237.6 
C 216 237.6 216 237.6 216 237.6 
C 216 237.6 216 237.6 216 237.6 
C 216 237.6 216 237.6 216 237.6 
C 216 237.6 216 237.6 216 237.6 
C 216 237.6 216 237.6 216 237.6 
C 216 237.6 216 237.6 216 237.6 
C 216 237.6 216 237.6 216 237.6 
C 216 237.6 216 237.6 216 237.6 
C 216 237.6 216 237.6 216 237.6 
C 216 237.6 216 237.6 216 237.6 
C 216 237.6 216 237.6 216 237.6 
C 216 237.6 216 237.6 216 237.6 
C 216 237.6 216 237.6 216 237.6 
C 216 237.6 216 237.6 216 237.6 
C 216 237.6 216 237.6 216 237.6 
C 216 237.6 216 237.6 216 237.6 
M 367.2 237.6 
z
"/>
  </clipPath>
 </defs>
</svg>
