<?xml version="1.0" encoding="utf-8" standalone="no"?>
<!DOCTYPE svg PUBLIC "-//W3C//DTD SVG 1.1//EN"
  "http://www.w3.org/Graphics/SVG/1.1/DTD/svg11.dtd">
<!-- Created with matplotlib (https://matplotlib.org/) -->
<svg height="432pt" version="1.1" viewBox="0 0 432 432" width="432pt" xmlns="http://www.w3.org/2000/svg" xmlns:xlink="http://www.w3.org/1999/xlink">
 <metadata>
  <rdf:RDF xmlns:cc="http://creativecommons.org/ns#" xmlns:dc="http://purl.org/dc/elements/1.1/" xmlns:rdf="http://www.w3.org/1999/02/22-rdf-syntax-ns#">
   <cc:Work>
    <dc:type rdf:resource="http://purl.org/dc/dcmitype/StillImage"/>
    <dc:date>2021-01-23T20:22:19.769246</dc:date>
    <dc:format>image/svg+xml</dc:format>
    <dc:creator>
     <cc:Agent>
      <dc:title>Matplotlib v3.3.2, https://matplotlib.org/</dc:title>
     </cc:Agent>
    </dc:creator>
   </cc:Work>
  </rdf:RDF>
 </metadata>
 <defs>
  <style type="text/css">*{stroke-linecap:butt;stroke-linejoin:round;}</style>
 </defs>
 <g id="figure_1">
  <g id="patch_1">
   <path d="M 0 432 
L 432 432 
L 432 0 
L 0 0 
z
" style="fill:#ffffff;"/>
  </g>
  <g id="axes_1">
   <g id="patch_2">
    <path d="M 367.2 237.6 
C 367.2 217.744598 363.288919 198.082265 355.690585 179.738265 
C 348.092252 161.394265 336.954435 144.725344 322.914545 130.685455 
C 308.874656 116.645565 292.205735 105.507748 273.861735 97.909415 
C 255.517735 90.311081 235.855402 86.4 216 86.4 
C 196.144598 86.4 176.482265 90.311081 158.138265 97.909415 
C 139.794265 105.507748 123.125344 116.645565 109.085455 130.685455 
C 95.045565 144.725344 83.907748 161.394265 76.309415 179.738265 
C 68.711081 198.082265 64.8 217.744598 64.8 237.6 
C 64.8 257.455402 68.711081 277.117735 76.309415 295.461735 
C 83.907748 313.805735 95.045565 330.474656 109.085455 344.514545 
C 123.125344 358.554435 139.794265 369.692252 158.138265 377.290585 
C 176.482265 384.888919 196.144598 388.8 216 388.8 
C 235.855402 388.8 255.517735 384.888919 273.861735 377.290585 
C 292.205735 369.692252 308.874656 358.554435 322.914545 344.514545 
C 336.954435 330.474656 348.092252 313.805735 355.690585 295.461735 
C 363.288919 277.117735 367.2 257.455402 367.2 237.6 
M 216 237.6 
C 216 237.6 216 237.6 216 237.6 
C 216 237.6 216 237.6 216 237.6 
C 216 237.6 216 237.6 216 237.6 
C 216 237.6 216 237.6 216 237.6 
C 216 237.6 216 237.6 216 237.6 
C 216 237.6 216 237.6 216 237.6 
C 216 237.6 216 237.6 216 237.6 
C 216 237.6 216 237.6 216 237.6 
C 216 237.6 216 237.6 216 237.6 
C 216 237.6 216 237.6 216 237.6 
C 216 237.6 216 237.6 216 237.6 
C 216 237.6 216 237.6 216 237.6 
C 216 237.6 216 237.6 216 237.6 
C 216 237.6 216 237.6 216 237.6 
C 216 237.6 216 237.6 216 237.6 
C 216 237.6 216 237.6 216 237.6 
M 367.2 237.6 
z
" style="fill:#ffffff;"/>
   </g>
   <g id="patch_3">
    <path clip-path="url(#pf492ab44c6)" d="M 303.493959 237.6 
L 232.654127 186.343866 
L 168.019248 202.739943 
L 118.430872 308.488121 
L 258.214856 367.523968 
z
" style="fill:#1f77b4;opacity:0.2;"/>
   </g>
   <g id="patch_4">
    <path clip-path="url(#pf492ab44c6)" d="M 298.786384 237.6 
L 231.195196 190.833997 
L 174.373995 207.356937 
L 134.097141 297.10591 
L 249.30563 340.10419 
z
" style="fill:#ff7f0e;opacity:0.2;"/>
   </g>
   <g id="patch_5">
    <path clip-path="url(#pf492ab44c6)" d="M 269.831424 237.6 
L 229.332816 196.565812 
L 176.372694 208.809077 
L 157.800209 279.884623 
L 245.299298 327.773966 
z
" style="fill:#2ca02c;opacity:0.2;"/>
   </g>
   <g id="matplotlib.axis_1">
    <g id="xtick_1">
     <g id="line2d_1">
      <path clip-path="url(#pf492ab44c6)" d="M 221.36684 237.6 
L 372.56684 237.6 
" style="fill:none;stroke:#ffffff;stroke-linecap:square;stroke-width:0.8;"/>
     </g>
     <g id="text_1">
      <!-- CO$_{2}$ -->
      <g transform="translate(384.231898 234.970972)scale(0.1 -0.1)">
       <defs>
        <path d="M 54.703125 11.015625 
C 48 6.5 44.90625 5.1875 36.796875 5.1875 
C 22.796875 5.1875 14.59375 20.375 14.59375 34.234375 
C 14.59375 49.015625 23 63.59375 37.203125 63.59375 
C 43.59375 63.59375 47.796875 61.78125 52.90625 58.5625 
L 54.296875 66.484375 
C 49.5 68.890625 43.40625 70 37.296875 70 
C 18.09375 70 6.203125 52.234375 6.203125 34.234375 
C 6.203125 14.4375 20.296875 -1.203125 36.296875 -1.203125 
C 44.90625 -1.203125 47.90625 -0.5 55.296875 4.1875 
z
" id="CMSS17-67"/>
        <path d="M 64 34.390625 
C 64 55.328125 50.296875 71 34.59375 71 
C 18.90625 71 5.203125 55.234375 5.203125 34.390625 
C 5.203125 13.359375 19.09375 -2 34.59375 -2 
C 50.09375 -2 64 13.359375 64 34.390625 
z
M 34.59375 4.296875 
C 23.59375 4.296875 13.59375 16.671875 13.59375 35.703125 
C 13.59375 54.21875 24.203125 64.6875 34.59375 64.6875 
C 45 64.6875 55.59375 54.21875 55.59375 35.703125 
C 55.59375 16.578125 45.5 4.296875 34.59375 4.296875 
z
" id="CMSS17-79"/>
        <path d="M 41.703125 15.46875 
L 39.90625 15.46875 
C 38.90625 8.390625 38.09375 7.1875 37.703125 6.59375 
C 37.203125 5.796875 30 5.796875 28.59375 5.796875 
L 9.40625 5.796875 
C 13 9.6875 20 16.765625 28.5 24.9375 
C 34.59375 30.71875 41.703125 37.5 41.703125 47.390625 
C 41.703125 59.1875 32.296875 66 21.796875 66 
C 10.796875 66 4.09375 56.296875 4.09375 47.296875 
C 4.09375 43.390625 7 42.890625 8.203125 42.890625 
C 9.203125 42.890625 12.203125 43.484375 12.203125 46.984375 
C 12.203125 50.09375 9.59375 51 8.203125 51 
C 7.59375 51 7 50.890625 6.59375 50.6875 
C 8.5 59.1875 14.296875 63.390625 20.40625 63.390625 
C 29.09375 63.390625 34.796875 56.5 34.796875 47.390625 
C 34.796875 38.703125 29.703125 31.21875 24 24.734375 
L 4.09375 2.296875 
L 4.09375 0 
L 39.296875 0 
z
" id="CMR17-50"/>
       </defs>
       <use transform="scale(0.996264)" xlink:href="#CMSS17-67"/>
       <use transform="translate(59.855772 0)scale(0.996264)" xlink:href="#CMSS17-79"/>
       <use transform="translate(128.880027 -14.943915)scale(0.697382)" xlink:href="#CMR17-50"/>
      </g>
      <!-- $500\,$ppm -->
      <g transform="translate(375.659879 245.210348)scale(0.1 -0.1)">
       <defs>
        <path d="M 11.40625 58.59375 
C 12.40625 58.1875 16.5 56.890625 20.703125 56.890625 
C 30 56.890625 35.09375 61.890625 38 64.6875 
C 38 65.484375 38 66 37.40625 66 
C 37.296875 66 37.09375 66 36.296875 65.59375 
C 32.796875 64.09375 28.703125 63 23.703125 63 
C 20.703125 63 16.203125 63.359375 11.296875 65.484375 
C 10.203125 66 10 66 9.90625 66 
C 9.40625 66 9.296875 65.890625 9.296875 63.90625 
L 9.296875 34.859375 
C 9.296875 33.015625 9.296875 32.5 10.296875 32.5 
C 10.796875 32.5 11 32.703125 11.5 33.421875 
C 14.703125 38.046875 19.09375 40 24.09375 40 
C 27.59375 40 35.09375 37.734375 35.09375 20.203125 
C 35.09375 16.984375 35.09375 11.1875 32.09375 6.59375 
C 29.59375 2.484375 25.703125 0.390625 21.40625 0.390625 
C 14.796875 0.390625 8.09375 4.984375 6.296875 12.6875 
C 6.703125 12.59375 7.5 12.390625 7.90625 12.390625 
C 9.203125 12.390625 11.703125 13.09375 11.703125 16.1875 
C 11.703125 18.890625 9.796875 20 7.90625 20 
C 5.59375 20 4.09375 18.59375 4.09375 15.796875 
C 4.09375 7.09375 11 -2 21.59375 -2 
C 31.90625 -2 41.703125 6.890625 41.703125 19.796875 
C 41.703125 32.09375 33.90625 41.59375 24.203125 41.59375 
C 19.09375 41.59375 14.796875 39.6875 11.40625 36 
z
" id="CMR17-53"/>
        <path d="M 42 31.84375 
C 42 37.96875 41.90625 48.421875 37.703125 56.453125 
C 34 63.484375 28.09375 66 22.90625 66 
C 18.09375 66 12 63.78125 8.203125 56.5625 
C 4.203125 49.015625 3.796875 39.671875 3.796875 31.84375 
C 3.796875 26.109375 3.90625 17.375 7 9.734375 
C 11.296875 -0.609375 19 -2 22.90625 -2 
C 27.5 -2 34.5 -0.109375 38.59375 9.4375 
C 41.59375 16.375 42 24.5 42 31.84375 
z
M 22.90625 -0.40625 
C 16.5 -0.40625 12.703125 5.125 11.296875 12.75 
C 10.203125 18.6875 10.203125 27.328125 10.203125 32.953125 
C 10.203125 40.6875 10.203125 47.109375 11.5 53.234375 
C 13.40625 61.78125 19 64.390625 22.90625 64.390625 
C 27 64.390625 32.296875 61.671875 34.203125 53.4375 
C 35.5 47.71875 35.59375 40.984375 35.59375 32.953125 
C 35.59375 26.421875 35.59375 18.375 34.40625 12.453125 
C 32.296875 1.5 26.40625 -0.40625 22.90625 -0.40625 
z
" id="CMR17-48"/>
        <path d="M 15.09375 4.296875 
C 18.40625 1.09375 22.90625 -1 27.703125 -1 
C 37 -1 45 8.640625 45 21.59375 
C 45 33.546875 39 44 30.40625 44 
C 25.40625 44 19.40625 42.1875 14.90625 38.59375 
L 14.90625 43.1875 
L 7.5 43.1875 
L 7.5 -20 
L 15.09375 -20 
z
M 15.09375 32.625 
C 15.90625 33.84375 19.296875 37.6875 24.796875 37.6875 
C 31.796875 37.6875 37.40625 30.40625 37.40625 21.59375 
C 37.40625 11.578125 30.59375 5.09375 23.90625 5.09375 
C 21.90625 5.09375 19.796875 5.59375 17.796875 7.3125 
C 15.09375 9.75 15.09375 11.265625 15.09375 12.6875 
z
" id="CMSS17-112"/>
        <path d="M 67 29.34375 
C 67 36.078125 65.296875 44 54.09375 44 
C 46.59375 44 42.09375 39.296875 40.09375 36.375 
C 38.296875 41.6875 34.09375 44 28.09375 44 
C 21.296875 44 17 40.09375 14.703125 37.28125 
L 14.703125 43.484375 
L 7.40625 43.484375 
L 7.40625 0 
L 15 0 
L 15 24.3125 
C 15 30.25 17.203125 37.890625 24.296875 37.890625 
C 33.40625 37.890625 33.40625 31.453125 33.40625 28.53125 
L 33.40625 0 
L 41 0 
L 41 24.3125 
C 41 30.25 43.203125 37.890625 50.296875 37.890625 
C 59.40625 37.890625 59.40625 31.453125 59.40625 28.53125 
L 59.40625 0 
L 67 0 
z
" id="CMSS17-109"/>
       </defs>
       <use transform="scale(0.996264)" xlink:href="#CMR17-53"/>
       <use transform="translate(45.690477 0)scale(0.996264)" xlink:href="#CMR17-48"/>
       <use transform="translate(91.380954 0)scale(0.996264)" xlink:href="#CMR17-48"/>
       <use transform="translate(153.675837 0)scale(0.996264)" xlink:href="#CMSS17-112"/>
       <use transform="translate(201.88078 0)scale(0.996264)" xlink:href="#CMSS17-112"/>
       <use transform="translate(250.085723 0)scale(0.996264)" xlink:href="#CMSS17-109"/>
      </g>
     </g>
    </g>
    <g id="xtick_2">
     <g id="line2d_2">
      <path clip-path="url(#pf492ab44c6)" d="M 217.658445 232.495832 
L 264.381814 88.696087 
" style="fill:none;stroke:#ffffff;stroke-linecap:square;stroke-width:0.8;"/>
     </g>
     <g id="text_2">
      <!-- CO -->
      <g transform="translate(263.86734 66.5704)scale(0.1 -0.1)">
       <use transform="scale(0.996264)" xlink:href="#CMSS17-67"/>
       <use transform="translate(59.855772 0)scale(0.996264)" xlink:href="#CMSS17-79"/>
      </g>
      <!-- $150\,$ppm -->
      <g transform="translate(253.309702 76.809776)scale(0.1 -0.1)">
       <defs>
        <path d="M 26.59375 63.796875 
C 26.59375 65.890625 26.5 66 25.09375 66 
C 21.203125 61.359375 15.296875 59.890625 9.703125 59.6875 
C 9.40625 59.6875 8.90625 59.6875 8.796875 59.5 
C 8.703125 59.296875 8.703125 59.09375 8.703125 57 
C 11.796875 57 17 57.59375 21 59.984375 
L 21 7.296875 
C 21 3.796875 20.796875 2.59375 12.203125 2.59375 
L 9.203125 2.59375 
L 9.203125 0 
C 14 0.09375 19 0.1875 23.796875 0.1875 
C 28.59375 0.1875 33.59375 0.09375 38.40625 0 
L 38.40625 2.59375 
L 35.40625 2.59375 
C 26.796875 2.59375 26.59375 3.6875 26.59375 7.296875 
z
" id="CMR17-49"/>
       </defs>
       <use transform="scale(0.996264)" xlink:href="#CMR17-49"/>
       <use transform="translate(45.690477 0)scale(0.996264)" xlink:href="#CMR17-53"/>
       <use transform="translate(91.380954 0)scale(0.996264)" xlink:href="#CMR17-48"/>
       <use transform="translate(153.675837 0)scale(0.996264)" xlink:href="#CMSS17-112"/>
       <use transform="translate(201.88078 0)scale(0.996264)" xlink:href="#CMSS17-112"/>
       <use transform="translate(250.085723 0)scale(0.996264)" xlink:href="#CMSS17-109"/>
      </g>
     </g>
    </g>
    <g id="xtick_3">
     <g id="line2d_3">
      <path clip-path="url(#pf492ab44c6)" d="M 211.658135 234.445451 
L 89.334766 145.572321 
" style="fill:none;stroke:#ffffff;stroke-linecap:square;stroke-width:0.8;"/>
     </g>
     <g id="text_3">
      <!-- H$_{2}$ -->
      <g transform="translate(67.235843 130.893695)scale(0.1 -0.1)">
       <defs>
        <path d="M 57.40625 69 
L 49 69 
L 49 39 
L 17.203125 39 
L 17.203125 69 
L 8.796875 69 
L 8.796875 0 
L 17.203125 0 
L 17.203125 32.890625 
L 49 32.890625 
L 49 0 
L 57.40625 0 
z
" id="CMSS17-72"/>
       </defs>
       <use transform="scale(0.996264)" xlink:href="#CMSS17-72"/>
       <use transform="translate(66.061519 -14.943915)scale(0.697382)" xlink:href="#CMR17-50"/>
      </g>
      <!-- $150\,$ppm -->
      <g transform="translate(55.342957 141.133071)scale(0.1 -0.1)">
       <use transform="scale(0.996264)" xlink:href="#CMR17-49"/>
       <use transform="translate(45.690477 0)scale(0.996264)" xlink:href="#CMR17-53"/>
       <use transform="translate(91.380954 0)scale(0.996264)" xlink:href="#CMR17-48"/>
       <use transform="translate(153.675837 0)scale(0.996264)" xlink:href="#CMSS17-112"/>
       <use transform="translate(201.88078 0)scale(0.996264)" xlink:href="#CMSS17-112"/>
       <use transform="translate(250.085723 0)scale(0.996264)" xlink:href="#CMSS17-109"/>
      </g>
     </g>
    </g>
    <g id="xtick_4">
     <g id="line2d_4">
      <path clip-path="url(#pf492ab44c6)" d="M 211.658135 240.754549 
L 89.334766 329.627679 
" style="fill:none;stroke:#ffffff;stroke-linecap:square;stroke-width:0.8;"/>
     </g>
     <g id="text_4">
      <!-- N$_{2}$ -->
      <g transform="translate(67.235843 339.048249)scale(0.1 -0.1)">
       <defs>
        <path d="M 22.90625 65.296875 
L 21.09375 69 
L 8.796875 69 
L 8.796875 0 
L 16.59375 0 
L 16.59375 61.328125 
L 16.703125 61.421875 
C 17.40625 59.640625 17.796875 58.734375 21.90625 49.890625 
L 43.296875 3.6875 
L 45.09375 0 
L 57.40625 0 
L 57.40625 69 
L 49.59375 69 
L 49.59375 7.65625 
L 49.5 7.5625 
C 48.796875 9.34375 48.40625 10.234375 44.296875 19.09375 
z
" id="CMSS17-78"/>
       </defs>
       <use transform="scale(0.996264)" xlink:href="#CMSS17-78"/>
       <use transform="translate(66.061519 -14.943915)scale(0.697382)" xlink:href="#CMR17-50"/>
      </g>
      <!-- $150\,$ppm -->
      <g transform="translate(55.342957 349.287625)scale(0.1 -0.1)">
       <use transform="scale(0.996264)" xlink:href="#CMR17-49"/>
       <use transform="translate(45.690477 0)scale(0.996264)" xlink:href="#CMR17-53"/>
       <use transform="translate(91.380954 0)scale(0.996264)" xlink:href="#CMR17-48"/>
       <use transform="translate(153.675837 0)scale(0.996264)" xlink:href="#CMSS17-112"/>
       <use transform="translate(201.88078 0)scale(0.996264)" xlink:href="#CMSS17-112"/>
       <use transform="translate(250.085723 0)scale(0.996264)" xlink:href="#CMSS17-109"/>
      </g>
     </g>
    </g>
    <g id="xtick_5">
     <g id="line2d_5">
      <path clip-path="url(#pf492ab44c6)" d="M 217.658445 242.704168 
L 264.381814 386.503913 
" style="fill:none;stroke:#ffffff;stroke-linecap:square;stroke-width:0.8;"/>
     </g>
     <g id="text_5">
      <!-- O$_{2}$ -->
      <g transform="translate(265.064237 403.371544)scale(0.1 -0.1)">
       <use transform="scale(0.996264)" xlink:href="#CMSS17-79"/>
       <use transform="translate(69.024255 -14.943915)scale(0.697382)" xlink:href="#CMR17-50"/>
      </g>
      <!-- $300\,$ppm -->
      <g transform="translate(253.309702 413.61092)scale(0.1 -0.1)">
       <defs>
        <path d="M 22.09375 34 
C 31 34 34.90625 26.140625 34.90625 17.09375 
C 34.90625 5.03125 28.5 0.390625 22.703125 0.390625 
C 17.40625 0.390625 8.796875 3.015625 6.09375 10.796875 
C 6.59375 10.59375 7.09375 10.59375 7.59375 10.59375 
C 10 10.59375 11.796875 12.1875 11.796875 14.796875 
C 11.796875 17.6875 9.59375 19 7.59375 19 
C 5.90625 19 3.296875 18.1875 3.296875 14.484375 
C 3.296875 5.234375 12.296875 -2 22.90625 -2 
C 34 -2 42.5 6.75 42.5 16.984375 
C 42.5 26.84375 34.5 34 25 35.09375 
C 32.59375 36.671875 39.90625 43.375 39.90625 52.390625 
C 39.90625 60.25 32 66 23 66 
C 13.90625 66 5.90625 60.34375 5.90625 52.296875 
C 5.90625 48.796875 8.5 48.1875 9.796875 48.1875 
C 11.90625 48.1875 13.703125 49.484375 13.703125 52.09375 
C 13.703125 54.6875 11.90625 56 9.796875 56 
C 9.40625 56 8.90625 56 8.5 55.796875 
C 11.40625 62.484375 19.296875 63.6875 22.796875 63.6875 
C 26.296875 63.6875 32.90625 61.96875 32.90625 52.296875 
C 32.90625 49.484375 32.5 44.546875 29.09375 40.21875 
C 26.09375 36.390625 22.703125 36.1875 19.40625 35.890625 
C 18.90625 35.890625 16.59375 35.6875 16.203125 35.6875 
C 15.5 35.59375 15.09375 35.5 15.09375 34.796875 
C 15.09375 34.09375 15.203125 34 17.203125 34 
z
" id="CMR17-51"/>
       </defs>
       <use transform="scale(0.996264)" xlink:href="#CMR17-51"/>
       <use transform="translate(45.690477 0)scale(0.996264)" xlink:href="#CMR17-48"/>
       <use transform="translate(91.380954 0)scale(0.996264)" xlink:href="#CMR17-48"/>
       <use transform="translate(153.675837 0)scale(0.996264)" xlink:href="#CMSS17-112"/>
       <use transform="translate(201.88078 0)scale(0.996264)" xlink:href="#CMSS17-112"/>
       <use transform="translate(250.085723 0)scale(0.996264)" xlink:href="#CMSS17-109"/>
      </g>
     </g>
    </g>
   </g>
   <g id="matplotlib.axis_2">
    <g id="ytick_1">
     <g id="line2d_6">
      <path clip-path="url(#pf492ab44c6)" d="M 221.36684 237.6 
C 221.36684 236.895233 221.228016 236.197319 220.958313 235.546199 
C 220.688611 234.89508 220.293274 234.303417 219.794929 233.805071 
C 219.296583 233.306726 218.70492 232.911389 218.053801 232.641687 
C 217.402681 232.371984 216.704767 232.23316 216 232.23316 
C 215.295233 232.23316 214.597319 232.371984 213.946199 232.641687 
C 213.29508 232.911389 212.703417 233.306726 212.205071 233.805071 
C 211.706726 234.303417 211.311389 234.89508 211.041687 235.546199 
C 210.771984 236.197319 210.63316 236.895233 210.63316 237.6 
C 210.63316 238.304767 210.771984 239.002681 211.041687 239.653801 
C 211.311389 240.30492 211.706726 240.896583 212.205071 241.394929 
C 212.703417 241.893274 213.29508 242.288611 213.946199 242.558313 
C 214.597319 242.828016 215.295233 242.96684 216 242.96684 
C 216.704767 242.96684 217.402681 242.828016 218.053801 242.558313 
C 218.70492 242.288611 219.296583 241.893274 219.794929 241.394929 
C 220.293274 240.896583 220.688611 240.30492 220.958313 239.653801 
C 221.228016 239.002681 221.36684 238.304767 221.36684 237.6 
" style="fill:none;stroke:#000000;stroke-linecap:square;stroke-width:0.8;"/>
     </g>
    </g>
    <g id="ytick_2">
     <g id="line2d_7">
      <path clip-path="url(#pf492ab44c6)" d="M 269.668398 237.6 
C 269.668398 230.55233 268.280161 223.573191 265.583135 217.061993 
C 262.886109 210.550795 258.932743 204.634166 253.949288 199.650712 
C 248.965834 194.667257 243.049205 190.713891 236.538007 188.016865 
C 230.026809 185.319839 223.04767 183.931602 216 183.931602 
C 208.95233 183.931602 201.973191 185.319839 195.461993 188.016865 
C 188.950795 190.713891 183.034166 194.667257 178.050712 199.650712 
C 173.067257 204.634166 169.113891 210.550795 166.416865 217.061993 
C 163.719839 223.573191 162.331602 230.55233 162.331602 237.6 
C 162.331602 244.64767 163.719839 251.626809 166.416865 258.138007 
C 169.113891 264.649205 173.067257 270.565834 178.050712 275.549288 
C 183.034166 280.532743 188.950795 284.486109 195.461993 287.183135 
C 201.973191 289.880161 208.95233 291.268398 216 291.268398 
C 223.04767 291.268398 230.026809 289.880161 236.538007 287.183135 
C 243.049205 284.486109 248.965834 280.532743 253.949288 275.549288 
C 258.932743 270.565834 262.886109 264.649205 265.583135 258.138007 
C 268.280161 251.626809 269.668398 244.64767 269.668398 237.6 
" style="fill:none;stroke:#000000;stroke-linecap:square;stroke-width:0.8;"/>
     </g>
    </g>
    <g id="ytick_3">
     <g id="line2d_8">
      <path clip-path="url(#pf492ab44c6)" d="M 317.969957 237.6 
C 317.969957 224.209428 315.332306 210.949062 310.207956 198.577787 
C 305.083606 186.206511 297.572212 174.964916 288.103648 165.496352 
C 278.635084 156.027788 267.393489 148.516394 255.022213 143.392044 
C 242.650938 138.267694 229.390572 135.630043 216 135.630043 
C 202.609428 135.630043 189.349062 138.267694 176.977787 143.392044 
C 164.606511 148.516394 153.364916 156.027788 143.896352 165.496352 
C 134.427788 174.964916 126.916394 186.206511 121.792044 198.577787 
C 116.667694 210.949062 114.030043 224.209428 114.030043 237.6 
C 114.030043 250.990572 116.667694 264.250938 121.792044 276.622213 
C 126.916394 288.993489 134.427788 300.235084 143.896352 309.703648 
C 153.364916 319.172212 164.606511 326.683606 176.977787 331.807956 
C 189.349062 336.932306 202.609428 339.569957 216 339.569957 
C 229.390572 339.569957 242.650938 336.932306 255.022213 331.807956 
C 267.393489 326.683606 278.635084 319.172212 288.103648 309.703648 
C 297.572212 300.235084 305.083606 288.993489 310.207956 276.622213 
C 315.332306 264.250938 317.969957 250.990572 317.969957 237.6 
" style="fill:none;stroke:#000000;stroke-linecap:square;stroke-width:0.8;"/>
     </g>
    </g>
    <g id="ytick_4">
     <g id="line2d_9">
      <path clip-path="url(#pf492ab44c6)" d="M 366.271516 237.6 
C 366.271516 217.866525 362.384451 198.324934 354.832778 180.093581 
C 347.281104 161.862227 336.211681 145.295666 322.258008 131.341992 
C 308.304334 117.388319 291.737773 106.318896 273.506419 98.767222 
C 255.275066 91.215549 235.733475 87.328484 216 87.328484 
C 196.266525 87.328484 176.724934 91.215549 158.493581 98.767222 
C 140.262227 106.318896 123.695666 117.388319 109.741992 131.341992 
C 95.788319 145.295666 84.718896 161.862227 77.167222 180.093581 
C 69.615549 198.324934 65.728484 217.866525 65.728484 237.6 
C 65.728484 257.333475 69.615549 276.875066 77.167222 295.106419 
C 84.718896 313.337773 95.788319 329.904334 109.741992 343.858008 
C 123.695666 357.811681 140.262227 368.881104 158.493581 376.432778 
C 176.724934 383.984451 196.266525 387.871516 216 387.871516 
C 235.733475 387.871516 255.275066 383.984451 273.506419 376.432778 
C 291.737773 368.881104 308.304334 357.811681 322.258008 343.858008 
C 336.211681 329.904334 347.281104 313.337773 354.832778 295.106419 
C 362.384451 276.875066 366.271516 257.333475 366.271516 237.6 
" style="fill:none;stroke:#000000;stroke-linecap:square;stroke-width:0.8;"/>
     </g>
    </g>
    <g id="ytick_5">
     <g id="line2d_10">
      <path clip-path="url(#pf492ab44c6)" d="M 235.907058 237.6 
C 235.907058 234.985829 235.392123 232.397078 234.391723 229.981899 
C 233.391323 227.56672 231.924914 225.372082 230.076416 223.523584 
C 228.227918 221.675086 226.03328 220.208677 223.618101 219.208277 
C 221.202922 218.207877 218.614171 217.692942 216 217.692942 
C 213.385829 217.692942 210.797078 218.207877 208.381899 219.208277 
C 205.96672 220.208677 203.772082 221.675086 201.923584 223.523584 
C 200.075086 225.372082 198.608677 227.56672 197.608277 229.981899 
C 196.607877 232.397078 196.092942 234.985829 196.092942 237.6 
C 196.092942 240.214171 196.607877 242.802922 197.608277 245.218101 
C 198.608677 247.63328 200.075086 249.827918 201.923584 251.676416 
C 203.772082 253.524914 205.96672 254.991323 208.381899 255.991723 
C 210.797078 256.992123 213.385829 257.507058 216 257.507058 
C 218.614171 257.507058 221.202922 256.992123 223.618101 255.991723 
C 226.03328 254.991323 228.227918 253.524914 230.076416 251.676416 
C 231.924914 249.827918 233.391323 247.63328 234.391723 245.218101 
C 235.392123 242.802922 235.907058 240.214171 235.907058 237.6 
" style="fill:none;stroke:#808080;stroke-dasharray:2.96,1.28;stroke-dashoffset:0;stroke-width:0.8;"/>
     </g>
    </g>
    <g id="ytick_6">
     <g id="line2d_11">
      <path clip-path="url(#pf492ab44c6)" d="M 244.41254 237.6 
C 244.41254 233.868899 243.677595 230.174079 242.249764 226.726992 
C 240.821934 223.279904 238.728986 220.147587 236.0907 217.5093 
C 233.452413 214.871014 230.320096 212.778066 226.873008 211.350236 
C 223.425921 209.922405 219.731101 209.18746 216 209.18746 
C 212.268899 209.18746 208.574079 209.922405 205.126992 211.350236 
C 201.679904 212.778066 198.547587 214.871014 195.9093 217.5093 
C 193.271014 220.147587 191.178066 223.279904 189.750236 226.726992 
C 188.322405 230.174079 187.58746 233.868899 187.58746 237.6 
C 187.58746 241.331101 188.322405 245.025921 189.750236 248.473008 
C 191.178066 251.920096 193.271014 255.052413 195.9093 257.6907 
C 198.547587 260.328986 201.679904 262.421934 205.126992 263.849764 
C 208.574079 265.277595 212.268899 266.01254 216 266.01254 
C 219.731101 266.01254 223.425921 265.277595 226.873008 263.849764 
C 230.320096 262.421934 233.452413 260.328986 236.0907 257.6907 
C 238.728986 255.052413 240.821934 251.920096 242.249764 248.473008 
C 243.677595 245.025921 244.41254 241.331101 244.41254 237.6 
" style="fill:none;stroke:#808080;stroke-dasharray:2.96,1.28;stroke-dashoffset:0;stroke-width:0.8;"/>
     </g>
    </g>
    <g id="ytick_7">
     <g id="line2d_12">
      <path clip-path="url(#pf492ab44c6)" d="M 250.447276 237.6 
C 250.447276 233.076425 249.55623 228.596836 247.825133 224.417598 
C 246.094036 220.23836 243.556553 216.440748 240.357902 213.242098 
C 237.159252 210.043447 233.36164 207.505964 229.182402 205.774867 
C 225.003164 204.04377 220.523575 203.152724 216 203.152724 
C 211.476425 203.152724 206.996836 204.04377 202.817598 205.774867 
C 198.63836 207.505964 194.840748 210.043447 191.642098 213.242098 
C 188.443447 216.440748 185.905964 220.23836 184.174867 224.417598 
C 182.44377 228.596836 181.552724 233.076425 181.552724 237.6 
C 181.552724 242.123575 182.44377 246.603164 184.174867 250.782402 
C 185.905964 254.96164 188.443447 258.759252 191.642098 261.957902 
C 194.840748 265.156553 198.63836 267.694036 202.817598 269.425133 
C 206.996836 271.15623 211.476425 272.047276 216 272.047276 
C 220.523575 272.047276 225.003164 271.15623 229.182402 269.425133 
C 233.36164 267.694036 237.159252 265.156553 240.357902 261.957902 
C 243.556553 258.759252 246.094036 254.96164 247.825133 250.782402 
C 249.55623 246.603164 250.447276 242.123575 250.447276 237.6 
" style="fill:none;stroke:#808080;stroke-dasharray:2.96,1.28;stroke-dashoffset:0;stroke-width:0.8;"/>
     </g>
    </g>
    <g id="ytick_8">
     <g id="line2d_13">
      <path clip-path="url(#pf492ab44c6)" d="M 255.12818 237.6 
C 255.12818 232.461734 254.116054 227.373432 252.149725 222.626294 
C 250.183396 217.879155 247.301104 213.565501 243.667802 209.932198 
C 240.034499 206.298896 235.720845 203.416604 230.973706 201.450275 
C 226.226568 199.483946 221.138266 198.47182 216 198.47182 
C 210.861734 198.47182 205.773432 199.483946 201.026294 201.450275 
C 196.279155 203.416604 191.965501 206.298896 188.332198 209.932198 
C 184.698896 213.565501 181.816604 217.879155 179.850275 222.626294 
C 177.883946 227.373432 176.87182 232.461734 176.87182 237.6 
C 176.87182 242.738266 177.883946 247.826568 179.850275 252.573706 
C 181.816604 257.320845 184.698896 261.634499 188.332198 265.267802 
C 191.965501 268.901104 196.279155 271.783396 201.026294 273.749725 
C 205.773432 275.716054 210.861734 276.72818 216 276.72818 
C 221.138266 276.72818 226.226568 275.716054 230.973706 273.749725 
C 235.720845 271.783396 240.034499 268.901104 243.667802 265.267802 
C 247.301104 261.634499 250.183396 257.320845 252.149725 252.573706 
C 254.116054 247.826568 255.12818 242.738266 255.12818 237.6 
" style="fill:none;stroke:#808080;stroke-dasharray:2.96,1.28;stroke-dashoffset:0;stroke-width:0.8;"/>
     </g>
    </g>
    <g id="ytick_9">
     <g id="line2d_14">
      <path clip-path="url(#pf492ab44c6)" d="M 258.952758 237.6 
C 258.952758 231.959495 257.841702 226.373838 255.683174 221.162691 
C 253.524646 215.951544 250.360625 211.216252 246.372187 207.227813 
C 242.383748 203.239375 237.648456 200.075354 232.437309 197.916826 
C 227.226162 195.758298 221.640505 194.647242 216 194.647242 
C 210.359495 194.647242 204.773838 195.758298 199.562691 197.916826 
C 194.351544 200.075354 189.616252 203.239375 185.627813 207.227813 
C 181.639375 211.216252 178.475354 215.951544 176.316826 221.162691 
C 174.158298 226.373838 173.047242 231.959495 173.047242 237.6 
C 173.047242 243.240505 174.158298 248.826162 176.316826 254.037309 
C 178.475354 259.248456 181.639375 263.983748 185.627813 267.972187 
C 189.616252 271.960625 194.351544 275.124646 199.562691 277.283174 
C 204.773838 279.441702 210.359495 280.552758 216 280.552758 
C 221.640505 280.552758 227.226162 279.441702 232.437309 277.283174 
C 237.648456 275.124646 242.383748 271.960625 246.372187 267.972187 
C 250.360625 263.983748 253.524646 259.248456 255.683174 254.037309 
C 257.841702 248.826162 258.952758 243.240505 258.952758 237.6 
" style="fill:none;stroke:#808080;stroke-dasharray:2.96,1.28;stroke-dashoffset:0;stroke-width:0.8;"/>
     </g>
    </g>
    <g id="ytick_10">
     <g id="line2d_15">
      <path clip-path="url(#pf492ab44c6)" d="M 262.186392 237.6 
C 262.186392 231.534859 260.991692 225.528693 258.670663 219.925233 
C 256.349633 214.321773 252.947414 209.229991 248.658711 204.941289 
C 244.370009 200.652586 239.278227 197.250367 233.674767 194.929337 
C 228.071307 192.608308 222.065141 191.413608 216 191.413608 
C 209.934859 191.413608 203.928693 192.608308 198.325233 194.929337 
C 192.721773 197.250367 187.629991 200.652586 183.341289 204.941289 
C 179.052586 209.229991 175.650367 214.321773 173.329337 219.925233 
C 171.008308 225.528693 169.813608 231.534859 169.813608 237.6 
C 169.813608 243.665141 171.008308 249.671307 173.329337 255.274767 
C 175.650367 260.878227 179.052586 265.970009 183.341289 270.258711 
C 187.629991 274.547414 192.721773 277.949633 198.325233 280.270663 
C 203.928693 282.591692 209.934859 283.786392 216 283.786392 
C 222.065141 283.786392 228.071307 282.591692 233.674767 280.270663 
C 239.278227 277.949633 244.370009 274.547414 248.658711 270.258711 
C 252.947414 265.970009 256.349633 260.878227 258.670663 255.274767 
C 260.991692 249.671307 262.186392 243.665141 262.186392 237.6 
" style="fill:none;stroke:#808080;stroke-dasharray:2.96,1.28;stroke-dashoffset:0;stroke-width:0.8;"/>
     </g>
    </g>
    <g id="ytick_11">
     <g id="line2d_16">
      <path clip-path="url(#pf492ab44c6)" d="M 264.987494 237.6 
C 264.987494 231.167021 263.720337 224.796595 261.258543 218.853298 
C 258.796748 212.91 255.188192 207.509414 250.639389 202.960611 
C 246.090586 198.411808 240.69 194.803252 234.746702 192.341457 
C 228.803405 189.879663 222.432979 188.612506 216 188.612506 
C 209.567021 188.612506 203.196595 189.879663 197.253298 192.341457 
C 191.31 194.803252 185.909414 198.411808 181.360611 202.960611 
C 176.811808 207.509414 173.203252 212.91 170.741457 218.853298 
C 168.279663 224.796595 167.012506 231.167021 167.012506 237.6 
C 167.012506 244.032979 168.279663 250.403405 170.741457 256.346702 
C 173.203252 262.29 176.811808 267.690586 181.360611 272.239389 
C 185.909414 276.788192 191.31 280.396748 197.253298 282.858543 
C 203.196595 285.320337 209.567021 286.587494 216 286.587494 
C 222.432979 286.587494 228.803405 285.320337 234.746702 282.858543 
C 240.69 280.396748 246.090586 276.788192 250.639389 272.239389 
C 255.188192 267.690586 258.796748 262.29 261.258543 256.346702 
C 263.720337 250.403405 264.987494 244.032979 264.987494 237.6 
" style="fill:none;stroke:#808080;stroke-dasharray:2.96,1.28;stroke-dashoffset:0;stroke-width:0.8;"/>
     </g>
    </g>
    <g id="ytick_12">
     <g id="line2d_17">
      <path clip-path="url(#pf492ab44c6)" d="M 267.45824 237.6 
C 267.45824 230.842566 266.127173 224.150839 263.541215 217.907784 
C 260.955257 211.664729 257.164698 205.991757 252.386471 201.213529 
C 247.608243 196.435302 241.935271 192.644743 235.692216 190.058785 
C 229.449161 187.472827 222.757434 186.14176 216 186.14176 
C 209.242566 186.14176 202.550839 187.472827 196.307784 190.058785 
C 190.064729 192.644743 184.391757 196.435302 179.613529 201.213529 
C 174.835302 205.991757 171.044743 211.664729 168.458785 217.907784 
C 165.872827 224.150839 164.54176 230.842566 164.54176 237.6 
C 164.54176 244.357434 165.872827 251.049161 168.458785 257.292216 
C 171.044743 263.535271 174.835302 269.208243 179.613529 273.986471 
C 184.391757 278.764698 190.064729 282.555257 196.307784 285.141215 
C 202.550839 287.727173 209.242566 289.05824 216 289.05824 
C 222.757434 289.05824 229.449161 287.727173 235.692216 285.141215 
C 241.935271 282.555257 247.608243 278.764698 252.386471 273.986471 
C 257.164698 269.208243 260.955257 263.535271 263.541215 257.292216 
C 266.127173 251.049161 267.45824 244.357434 267.45824 237.6 
" style="fill:none;stroke:#808080;stroke-dasharray:2.96,1.28;stroke-dashoffset:0;stroke-width:0.8;"/>
     </g>
    </g>
    <g id="ytick_13">
     <g id="line2d_18">
      <path clip-path="url(#pf492ab44c6)" d="M 284.208616 237.6 
C 284.208616 228.642927 282.444268 219.772949 279.016545 211.497693 
C 275.588821 203.222436 270.564383 195.702832 264.230775 189.369225 
C 257.897168 183.035617 250.377564 178.011179 242.102307 174.583455 
C 233.827051 171.155732 224.957073 169.391384 216 169.391384 
C 207.042927 169.391384 198.172949 171.155732 189.897693 174.583455 
C 181.622436 178.011179 174.102832 183.035617 167.769225 189.369225 
C 161.435617 195.702832 156.411179 203.222436 152.983455 211.497693 
C 149.555732 219.772949 147.791384 228.642927 147.791384 237.6 
C 147.791384 246.557073 149.555732 255.427051 152.983455 263.702307 
C 156.411179 271.977564 161.435617 279.497168 167.769225 285.830775 
C 174.102832 292.164383 181.622436 297.188821 189.897693 300.616545 
C 198.172949 304.044268 207.042927 305.808616 216 305.808616 
C 224.957073 305.808616 233.827051 304.044268 242.102307 300.616545 
C 250.377564 297.188821 257.897168 292.164383 264.230775 285.830775 
C 270.564383 279.497168 275.588821 271.977564 279.016545 263.702307 
C 282.444268 255.427051 284.208616 246.557073 284.208616 237.6 
" style="fill:none;stroke:#808080;stroke-dasharray:2.96,1.28;stroke-dashoffset:0;stroke-width:0.8;"/>
     </g>
    </g>
    <g id="ytick_14">
     <g id="line2d_19">
      <path clip-path="url(#pf492ab44c6)" d="M 292.714099 237.6 
C 292.714099 227.525997 290.72974 217.549951 286.874586 208.242785 
C 283.019432 198.93562 277.368455 190.478337 270.245059 183.354941 
C 263.121663 176.231545 254.66438 170.580568 245.357215 166.725414 
C 236.050049 162.87026 226.074003 160.885901 216 160.885901 
C 205.925997 160.885901 195.949951 162.87026 186.642785 166.725414 
C 177.33562 170.580568 168.878337 176.231545 161.754941 183.354941 
C 154.631545 190.478337 148.980568 198.93562 145.125414 208.242785 
C 141.27026 217.549951 139.285901 227.525997 139.285901 237.6 
C 139.285901 247.674003 141.27026 257.650049 145.125414 266.957215 
C 148.980568 276.26438 154.631545 284.721663 161.754941 291.845059 
C 168.878337 298.968455 177.33562 304.619432 186.642785 308.474586 
C 195.949951 312.32974 205.925997 314.314099 216 314.314099 
C 226.074003 314.314099 236.050049 312.32974 245.357215 308.474586 
C 254.66438 304.619432 263.121663 298.968455 270.245059 291.845059 
C 277.368455 284.721663 283.019432 276.26438 286.874586 266.957215 
C 290.72974 257.650049 292.714099 247.674003 292.714099 237.6 
" style="fill:none;stroke:#808080;stroke-dasharray:2.96,1.28;stroke-dashoffset:0;stroke-width:0.8;"/>
     </g>
    </g>
    <g id="ytick_15">
     <g id="line2d_20">
      <path clip-path="url(#pf492ab44c6)" d="M 298.748834 237.6 
C 298.748834 226.733523 296.608375 215.972708 292.449954 205.933392 
C 288.291534 195.894076 282.196022 186.771498 274.512262 179.087738 
C 266.828502 171.403978 257.705924 165.308466 247.666608 161.150046 
C 237.627292 156.991625 226.866477 154.851166 216 154.851166 
C 205.133523 154.851166 194.372708 156.991625 184.333392 161.150046 
C 174.294076 165.308466 165.171498 171.403978 157.487738 179.087738 
C 149.803978 186.771498 143.708466 195.894076 139.550046 205.933392 
C 135.391625 215.972708 133.251166 226.733523 133.251166 237.6 
C 133.251166 248.466477 135.391625 259.227292 139.550046 269.266608 
C 143.708466 279.305924 149.803978 288.428502 157.487738 296.112262 
C 165.171498 303.796022 174.294076 309.891534 184.333392 314.049954 
C 194.372708 318.208375 205.133523 320.348834 216 320.348834 
C 226.866477 320.348834 237.627292 318.208375 247.666608 314.049954 
C 257.705924 309.891534 266.828502 303.796022 274.512262 296.112262 
C 282.196022 288.428502 288.291534 279.305924 292.449954 269.266608 
C 296.608375 259.227292 298.748834 248.466477 298.748834 237.6 
" style="fill:none;stroke:#808080;stroke-dasharray:2.96,1.28;stroke-dashoffset:0;stroke-width:0.8;"/>
     </g>
    </g>
    <g id="ytick_16">
     <g id="line2d_21">
      <path clip-path="url(#pf492ab44c6)" d="M 303.429739 237.6 
C 303.429739 226.118832 301.168199 214.749304 296.774546 204.142087 
C 292.380894 193.534871 285.940573 183.89625 277.822161 175.777839 
C 269.70375 167.659427 260.065129 161.219106 249.457913 156.825454 
C 238.850696 152.431801 227.481168 150.170261 216 150.170261 
C 204.518832 150.170261 193.149304 152.431801 182.542087 156.825454 
C 171.934871 161.219106 162.29625 167.659427 154.177839 175.777839 
C 146.059427 183.89625 139.619106 193.534871 135.225454 204.142087 
C 130.831801 214.749304 128.570261 226.118832 128.570261 237.6 
C 128.570261 249.081168 130.831801 260.450696 135.225454 271.057913 
C 139.619106 281.665129 146.059427 291.30375 154.177839 299.422161 
C 162.29625 307.540573 171.934871 313.980894 182.542087 318.374546 
C 193.149304 322.768199 204.518832 325.029739 216 325.029739 
C 227.481168 325.029739 238.850696 322.768199 249.457913 318.374546 
C 260.065129 313.980894 269.70375 307.540573 277.822161 299.422161 
C 285.940573 291.30375 292.380894 281.665129 296.774546 271.057913 
C 301.168199 260.450696 303.429739 249.081168 303.429739 237.6 
" style="fill:none;stroke:#808080;stroke-dasharray:2.96,1.28;stroke-dashoffset:0;stroke-width:0.8;"/>
     </g>
    </g>
    <g id="ytick_17">
     <g id="line2d_22">
      <path clip-path="url(#pf492ab44c6)" d="M 307.254317 237.6 
C 307.254317 225.616593 304.893847 213.749709 300.307995 202.678485 
C 295.722144 191.60726 289.000095 181.547002 280.526546 173.073454 
C 272.052998 164.599905 261.99274 157.877856 250.921515 153.292005 
C 239.850291 148.706153 227.983407 146.345683 216 146.345683 
C 204.016593 146.345683 192.149709 148.706153 181.078485 153.292005 
C 170.00726 157.877856 159.947002 164.599905 151.473454 173.073454 
C 142.999905 181.547002 136.277856 191.60726 131.692005 202.678485 
C 127.106153 213.749709 124.745683 225.616593 124.745683 237.6 
C 124.745683 249.583407 127.106153 261.450291 131.692005 272.521515 
C 136.277856 283.59274 142.999905 293.652998 151.473454 302.126546 
C 159.947002 310.600095 170.00726 317.322144 181.078485 321.907995 
C 192.149709 326.493847 204.016593 328.854317 216 328.854317 
C 227.983407 328.854317 239.850291 326.493847 250.921515 321.907995 
C 261.99274 317.322144 272.052998 310.600095 280.526546 302.126546 
C 289.000095 293.652998 295.722144 283.59274 300.307995 272.521515 
C 304.893847 261.450291 307.254317 249.583407 307.254317 237.6 
" style="fill:none;stroke:#808080;stroke-dasharray:2.96,1.28;stroke-dashoffset:0;stroke-width:0.8;"/>
     </g>
    </g>
    <g id="ytick_18">
     <g id="line2d_23">
      <path clip-path="url(#pf492ab44c6)" d="M 310.487951 237.6 
C 310.487951 225.191956 308.043837 212.904565 303.295484 201.441027 
C 298.547131 189.977489 291.586883 179.560741 282.813071 170.786929 
C 274.039259 162.013117 263.622511 155.052869 252.158973 150.304516 
C 240.695435 145.556163 228.408044 143.112049 216 143.112049 
C 203.591956 143.112049 191.304565 145.556163 179.841027 150.304516 
C 168.377489 155.052869 157.960741 162.013117 149.186929 170.786929 
C 140.413117 179.560741 133.452869 189.977489 128.704516 201.441027 
C 123.956163 212.904565 121.512049 225.191956 121.512049 237.6 
C 121.512049 250.008044 123.956163 262.295435 128.704516 273.758973 
C 133.452869 285.222511 140.413117 295.639259 149.186929 304.413071 
C 157.960741 313.186883 168.377489 320.147131 179.841027 324.895484 
C 191.304565 329.643837 203.591956 332.087951 216 332.087951 
C 228.408044 332.087951 240.695435 329.643837 252.158973 324.895484 
C 263.622511 320.147131 274.039259 313.186883 282.813071 304.413071 
C 291.586883 295.639259 298.547131 285.222511 303.295484 273.758973 
C 308.043837 262.295435 310.487951 250.008044 310.487951 237.6 
" style="fill:none;stroke:#808080;stroke-dasharray:2.96,1.28;stroke-dashoffset:0;stroke-width:0.8;"/>
     </g>
    </g>
    <g id="ytick_19">
     <g id="line2d_24">
      <path clip-path="url(#pf492ab44c6)" d="M 313.289052 237.6 
C 313.289052 224.824119 310.772482 212.172467 305.883364 200.369091 
C 300.994246 188.565716 293.827661 177.840164 284.793749 168.806251 
C 275.759836 159.772339 265.034284 152.605754 253.230909 147.716636 
C 241.427533 142.827518 228.775881 140.310948 216 140.310948 
C 203.224119 140.310948 190.572467 142.827518 178.769091 147.716636 
C 166.965716 152.605754 156.240164 159.772339 147.206251 168.806251 
C 138.172339 177.840164 131.005754 188.565716 126.116636 200.369091 
C 121.227518 212.172467 118.710948 224.824119 118.710948 237.6 
C 118.710948 250.375881 121.227518 263.027533 126.116636 274.830909 
C 131.005754 286.634284 138.172339 297.359836 147.206251 306.393749 
C 156.240164 315.427661 166.965716 322.594246 178.769091 327.483364 
C 190.572467 332.372482 203.224119 334.889052 216 334.889052 
C 228.775881 334.889052 241.427533 332.372482 253.230909 327.483364 
C 265.034284 322.594246 275.759836 315.427661 284.793749 306.393749 
C 293.827661 297.359836 300.994246 286.634284 305.883364 274.830909 
C 310.772482 263.027533 313.289052 250.375881 313.289052 237.6 
" style="fill:none;stroke:#808080;stroke-dasharray:2.96,1.28;stroke-dashoffset:0;stroke-width:0.8;"/>
     </g>
    </g>
    <g id="ytick_20">
     <g id="line2d_25">
      <path clip-path="url(#pf492ab44c6)" d="M 315.759799 237.6 
C 315.759799 224.499663 313.179318 211.526711 308.166036 199.423578 
C 303.152755 187.320445 295.804167 176.322507 286.54083 167.05917 
C 277.277493 157.795833 266.279555 150.447245 254.176422 145.433964 
C 242.073289 140.420682 229.100337 137.840201 216 137.840201 
C 202.899663 137.840201 189.926711 140.420682 177.823578 145.433964 
C 165.720445 150.447245 154.722507 157.795833 145.45917 167.05917 
C 136.195833 176.322507 128.847245 187.320445 123.833964 199.423578 
C 118.820682 211.526711 116.240201 224.499663 116.240201 237.6 
C 116.240201 250.700337 118.820682 263.673289 123.833964 275.776422 
C 128.847245 287.879555 136.195833 298.877493 145.45917 308.14083 
C 154.722507 317.404167 165.720445 324.752755 177.823578 329.766036 
C 189.926711 334.779318 202.899663 337.359799 216 337.359799 
C 229.100337 337.359799 242.073289 334.779318 254.176422 329.766036 
C 266.279555 324.752755 277.277493 317.404167 286.54083 308.14083 
C 295.804167 298.877493 303.152755 287.879555 308.166036 275.776422 
C 313.179318 263.673289 315.759799 250.700337 315.759799 237.6 
" style="fill:none;stroke:#808080;stroke-dasharray:2.96,1.28;stroke-dashoffset:0;stroke-width:0.8;"/>
     </g>
    </g>
    <g id="ytick_21">
     <g id="line2d_26">
      <path clip-path="url(#pf492ab44c6)" d="M 332.510175 237.6 
C 332.510175 222.300024 329.496413 207.148821 323.641366 193.013486 
C 317.786319 178.878152 309.203852 166.033582 298.385135 155.214865 
C 287.566418 144.396148 274.721848 135.813681 260.586514 129.958634 
C 246.451179 124.103587 231.299976 121.089825 216 121.089825 
C 200.700024 121.089825 185.548821 124.103587 171.413486 129.958634 
C 157.278152 135.813681 144.433582 144.396148 133.614865 155.214865 
C 122.796148 166.033582 114.213681 178.878152 108.358634 193.013486 
C 102.503587 207.148821 99.489825 222.300024 99.489825 237.6 
C 99.489825 252.899976 102.503587 268.051179 108.358634 282.186514 
C 114.213681 296.321848 122.796148 309.166418 133.614865 319.985135 
C 144.433582 330.803852 157.278152 339.386319 171.413486 345.241366 
C 185.548821 351.096413 200.700024 354.110175 216 354.110175 
C 231.299976 354.110175 246.451179 351.096413 260.586514 345.241366 
C 274.721848 339.386319 287.566418 330.803852 298.385135 319.985135 
C 309.203852 309.166418 317.786319 296.321848 323.641366 282.186514 
C 329.496413 268.051179 332.510175 252.899976 332.510175 237.6 
" style="fill:none;stroke:#808080;stroke-dasharray:2.96,1.28;stroke-dashoffset:0;stroke-width:0.8;"/>
     </g>
    </g>
    <g id="ytick_22">
     <g id="line2d_27">
      <path clip-path="url(#pf492ab44c6)" d="M 341.015657 237.6 
C 341.015657 221.183094 337.781885 204.925822 331.499407 189.758579 
C 325.216929 174.591336 316.007924 160.809086 304.399419 149.200581 
C 292.790914 137.592076 279.008664 128.383071 263.841421 122.100593 
C 248.674178 115.818115 232.416906 112.584343 216 112.584343 
C 199.583094 112.584343 183.325822 115.818115 168.158579 122.100593 
C 152.991336 128.383071 139.209086 137.592076 127.600581 149.200581 
C 115.992076 160.809086 106.783071 174.591336 100.500593 189.758579 
C 94.218115 204.925822 90.984343 221.183094 90.984343 237.6 
C 90.984343 254.016906 94.218115 270.274178 100.500593 285.441421 
C 106.783071 300.608664 115.992076 314.390914 127.600581 325.999419 
C 139.209086 337.607924 152.991336 346.816929 168.158579 353.099407 
C 183.325822 359.381885 199.583094 362.615657 216 362.615657 
C 232.416906 362.615657 248.674178 359.381885 263.841421 353.099407 
C 279.008664 346.816929 292.790914 337.607924 304.399419 325.999419 
C 316.007924 314.390914 325.216929 300.608664 331.499407 285.441421 
C 337.781885 270.274178 341.015657 254.016906 341.015657 237.6 
" style="fill:none;stroke:#808080;stroke-dasharray:2.96,1.28;stroke-dashoffset:0;stroke-width:0.8;"/>
     </g>
    </g>
    <g id="ytick_23">
     <g id="line2d_28">
      <path clip-path="url(#pf492ab44c6)" d="M 347.050393 237.6 
C 347.050393 220.39062 343.66052 203.34858 337.074776 187.449186 
C 330.489031 171.549792 320.835491 157.102248 308.666622 144.933378 
C 296.497752 132.764509 282.050208 123.110969 266.150814 116.525224 
C 250.25142 109.93948 233.20938 106.549607 216 106.549607 
C 198.79062 106.549607 181.74858 109.93948 165.849186 116.525224 
C 149.949792 123.110969 135.502248 132.764509 123.333378 144.933378 
C 111.164509 157.102248 101.510969 171.549792 94.925224 187.449186 
C 88.33948 203.34858 84.949607 220.39062 84.949607 237.6 
C 84.949607 254.80938 88.33948 271.85142 94.925224 287.750814 
C 101.510969 303.650208 111.164509 318.097752 123.333378 330.266622 
C 135.502248 342.435491 149.949792 352.089031 165.849186 358.674776 
C 181.74858 365.26052 198.79062 368.650393 216 368.650393 
C 233.20938 368.650393 250.25142 365.26052 266.150814 358.674776 
C 282.050208 352.089031 296.497752 342.435491 308.666622 330.266622 
C 320.835491 318.097752 330.489031 303.650208 337.074776 287.750814 
C 343.66052 271.85142 347.050393 254.80938 347.050393 237.6 
" style="fill:none;stroke:#808080;stroke-dasharray:2.96,1.28;stroke-dashoffset:0;stroke-width:0.8;"/>
     </g>
    </g>
    <g id="ytick_24">
     <g id="line2d_29">
      <path clip-path="url(#pf492ab44c6)" d="M 351.731298 237.6 
C 351.731298 219.775929 348.220344 202.125175 341.399368 185.657881 
C 334.578391 169.190587 324.580042 154.227 311.976521 141.623479 
C 299.373 129.019958 284.409413 119.021609 267.942119 112.200632 
C 251.474825 105.379656 233.824071 101.868702 216 101.868702 
C 198.175929 101.868702 180.525175 105.379656 164.057881 112.200632 
C 147.590587 119.021609 132.627 129.019958 120.023479 141.623479 
C 107.419958 154.227 97.421609 169.190587 90.600632 185.657881 
C 83.779656 202.125175 80.268702 219.775929 80.268702 237.6 
C 80.268702 255.424071 83.779656 273.074825 90.600632 289.542119 
C 97.421609 306.009413 107.419958 320.973 120.023479 333.576521 
C 132.627 346.180042 147.590587 356.178391 164.057881 362.999368 
C 180.525175 369.820344 198.175929 373.331298 216 373.331298 
C 233.824071 373.331298 251.474825 369.820344 267.942119 362.999368 
C 284.409413 356.178391 299.373 346.180042 311.976521 333.576521 
C 324.580042 320.973 334.578391 306.009413 341.399368 289.542119 
C 348.220344 273.074825 351.731298 255.424071 351.731298 237.6 
" style="fill:none;stroke:#808080;stroke-dasharray:2.96,1.28;stroke-dashoffset:0;stroke-width:0.8;"/>
     </g>
    </g>
    <g id="ytick_25">
     <g id="line2d_30">
      <path clip-path="url(#pf492ab44c6)" d="M 355.555875 237.6 
C 355.555875 219.27369 351.945992 201.125581 344.932817 184.194279 
C 337.919642 167.262976 327.639564 151.877752 314.680906 138.919094 
C 301.722248 125.960436 286.337024 115.680358 269.405721 108.667183 
C 252.474419 101.654008 234.32631 98.044125 216 98.044125 
C 197.67369 98.044125 179.525581 101.654008 162.594279 108.667183 
C 145.662976 115.680358 130.277752 125.960436 117.319094 138.919094 
C 104.360436 151.877752 94.080358 167.262976 87.067183 184.194279 
C 80.054008 201.125581 76.444125 219.27369 76.444125 237.6 
C 76.444125 255.92631 80.054008 274.074419 87.067183 291.005721 
C 94.080358 307.937024 104.360436 323.322248 117.319094 336.280906 
C 130.277752 349.239564 145.662976 359.519642 162.594279 366.532817 
C 179.525581 373.545992 197.67369 377.155875 216 377.155875 
C 234.32631 377.155875 252.474419 373.545992 269.405721 366.532817 
C 286.337024 359.519642 301.722248 349.239564 314.680906 336.280906 
C 327.639564 323.322248 337.919642 307.937024 344.932817 291.005721 
C 351.945992 274.074419 355.555875 255.92631 355.555875 237.6 
" style="fill:none;stroke:#808080;stroke-dasharray:2.96,1.28;stroke-dashoffset:0;stroke-width:0.8;"/>
     </g>
    </g>
    <g id="ytick_26">
     <g id="line2d_31">
      <path clip-path="url(#pf492ab44c6)" d="M 358.78951 237.6 
C 358.78951 218.849053 355.095982 200.280436 347.920305 182.95682 
C 340.744629 165.633205 330.226352 149.891491 316.967431 136.632569 
C 303.708509 123.373648 287.966795 112.855371 270.64318 105.679695 
C 253.319564 98.504018 234.750947 94.81049 216 94.81049 
C 197.249053 94.81049 178.680436 98.504018 161.35682 105.679695 
C 144.033205 112.855371 128.291491 123.373648 115.032569 136.632569 
C 101.773648 149.891491 91.255371 165.633205 84.079695 182.95682 
C 76.904018 200.280436 73.21049 218.849053 73.21049 237.6 
C 73.21049 256.350947 76.904018 274.919564 84.079695 292.24318 
C 91.255371 309.566795 101.773648 325.308509 115.032569 338.567431 
C 128.291491 351.826352 144.033205 362.344629 161.35682 369.520305 
C 178.680436 376.695982 197.249053 380.38951 216 380.38951 
C 234.750947 380.38951 253.319564 376.695982 270.64318 369.520305 
C 287.966795 362.344629 303.708509 351.826352 316.967431 338.567431 
C 330.226352 325.308509 340.744629 309.566795 347.920305 292.24318 
C 355.095982 274.919564 358.78951 256.350947 358.78951 237.6 
" style="fill:none;stroke:#808080;stroke-dasharray:2.96,1.28;stroke-dashoffset:0;stroke-width:0.8;"/>
     </g>
    </g>
    <g id="ytick_27">
     <g id="line2d_32">
      <path clip-path="url(#pf492ab44c6)" d="M 361.590611 237.6 
C 361.590611 218.481216 357.824627 199.548338 350.508186 181.884885 
C 343.191744 164.221432 332.46713 148.170913 318.948108 134.651892 
C 305.429087 121.13287 289.378568 110.408256 271.715115 103.091814 
C 254.051662 95.775373 235.118784 92.009389 216 92.009389 
C 196.881216 92.009389 177.948338 95.775373 160.284885 103.091814 
C 142.621432 110.408256 126.570913 121.13287 113.051892 134.651892 
C 99.53287 148.170913 88.808256 164.221432 81.491814 181.884885 
C 74.175373 199.548338 70.409389 218.481216 70.409389 237.6 
C 70.409389 256.718784 74.175373 275.651662 81.491814 293.315115 
C 88.808256 310.978568 99.53287 327.029087 113.051892 340.548108 
C 126.570913 354.06713 142.621432 364.791744 160.284885 372.108186 
C 177.948338 379.424627 196.881216 383.190611 216 383.190611 
C 235.118784 383.190611 254.051662 379.424627 271.715115 372.108186 
C 289.378568 364.791744 305.429087 354.06713 318.948108 340.548108 
C 332.46713 327.029087 343.191744 310.978568 350.508186 293.315115 
C 357.824627 275.651662 361.590611 256.718784 361.590611 237.6 
" style="fill:none;stroke:#808080;stroke-dasharray:2.96,1.28;stroke-dashoffset:0;stroke-width:0.8;"/>
     </g>
    </g>
    <g id="ytick_28">
     <g id="line2d_33">
      <path clip-path="url(#pf492ab44c6)" d="M 364.061358 237.6 
C 364.061358 218.156761 360.231463 198.902582 352.790858 180.939371 
C 345.350252 162.976161 334.443636 146.653256 320.69519 132.90481 
C 306.946744 119.156364 290.623839 108.249748 272.660629 100.809142 
C 254.697418 93.368537 235.443239 89.538642 216 89.538642 
C 196.556761 89.538642 177.302582 93.368537 159.339371 100.809142 
C 141.376161 108.249748 125.053256 119.156364 111.30481 132.90481 
C 97.556364 146.653256 86.649748 162.976161 79.209142 180.939371 
C 71.768537 198.902582 67.938642 218.156761 67.938642 237.6 
C 67.938642 257.043239 71.768537 276.297418 79.209142 294.260629 
C 86.649748 312.223839 97.556364 328.546744 111.30481 342.29519 
C 125.053256 356.043636 141.376161 366.950252 159.339371 374.390858 
C 177.302582 381.831463 196.556761 385.661358 216 385.661358 
C 235.443239 385.661358 254.697418 381.831463 272.660629 374.390858 
C 290.623839 366.950252 306.946744 356.043636 320.69519 342.29519 
C 334.443636 328.546744 345.350252 312.223839 352.790858 294.260629 
C 360.231463 276.297418 364.061358 257.043239 364.061358 237.6 
" style="fill:none;stroke:#808080;stroke-dasharray:2.96,1.28;stroke-dashoffset:0;stroke-width:0.8;"/>
     </g>
    </g>
   </g>
   <g id="line2d_34">
    <path clip-path="url(#pf492ab44c6)" d="M 221.36684 237.6 
L 366.271516 237.6 
" style="fill:none;stroke:#000000;stroke-linecap:square;stroke-width:0.75;"/>
   </g>
   <g id="line2d_35">
    <path clip-path="url(#pf492ab44c6)" d="M 217.658445 232.495832 
L 262.436452 94.683296 
" style="fill:none;stroke:#000000;stroke-linecap:square;stroke-width:0.75;"/>
   </g>
   <g id="line2d_36">
    <path clip-path="url(#pf492ab44c6)" d="M 211.658135 234.445451 
L 94.42779 149.272619 
" style="fill:none;stroke:#000000;stroke-linecap:square;stroke-width:0.75;"/>
   </g>
   <g id="line2d_37">
    <path clip-path="url(#pf492ab44c6)" d="M 211.658135 240.754549 
L 94.42779 325.927381 
" style="fill:none;stroke:#000000;stroke-linecap:square;stroke-width:0.75;"/>
   </g>
   <g id="line2d_38">
    <path clip-path="url(#pf492ab44c6)" d="M 217.658445 242.704168 
L 262.436452 380.516704 
" style="fill:none;stroke:#000000;stroke-linecap:square;stroke-width:0.75;"/>
   </g>
   <g id="line2d_39">
    <path clip-path="url(#pf492ab44c6)" d="M 221.36684 237.6 
L 366.271516 237.6 
" style="fill:none;stroke:#000000;stroke-linecap:square;stroke-width:0.75;"/>
   </g>
   <g id="line2d_40">
    <path clip-path="url(#pf492ab44c6)" d="M 303.493959 237.6 
L 232.654127 186.343866 
L 168.019248 202.739943 
L 118.430872 308.488121 
L 258.214856 367.523968 
L 303.493959 237.6 
" style="fill:none;stroke:#1f77b4;stroke-linecap:square;stroke-width:1.5;"/>
   </g>
   <g id="line2d_41">
    <path clip-path="url(#pf492ab44c6)" d="M 298.786384 237.6 
L 231.195196 190.833997 
L 174.373995 207.356937 
L 134.097141 297.10591 
L 249.30563 340.10419 
L 298.786384 237.6 
" style="fill:none;stroke:#ff7f0e;stroke-linecap:square;stroke-width:1.5;"/>
   </g>
   <g id="line2d_42">
    <path clip-path="url(#pf492ab44c6)" d="M 269.831424 237.6 
L 229.332816 196.565812 
L 176.372694 208.809077 
L 157.800209 279.884623 
L 245.299298 327.773966 
L 269.831424 237.6 
" style="fill:none;stroke:#2ca02c;stroke-linecap:square;stroke-width:1.5;"/>
   </g>
   <g id="text_6">
    <!-- Logarithmic polar plot -->
    <g transform="translate(161.839189 53.651902)scale(0.12 -0.12)">
     <defs>
      <path d="M 26.09375 6.5 
C 24.90625 6.5 23.703125 6.390625 22.5 6.390625 
L 17.203125 6.390625 
L 17.203125 69 
L 8.796875 69 
L 8.796875 0 
L 46.90625 0 
L 46.90625 6.5 
z
" id="CMSS17-76"/>
      <path d="M 44.203125 21.1875 
C 44.203125 33.984375 34.703125 44 23.5 44 
C 12 44 2.703125 33.6875 2.703125 21.1875 
C 2.703125 8.5 12.296875 -1 23.40625 -1 
C 34.796875 -1 44.203125 8.796875 44.203125 21.1875 
z
M 23.5 5.296875 
C 16.40625 5.296875 10.296875 11.09375 10.296875 21.984375 
C 10.296875 33.59375 17.40625 37.890625 23.40625 37.890625 
C 29.90625 37.890625 36.59375 33.1875 36.59375 21.984375 
C 36.59375 10.6875 30.09375 5.296875 23.5 5.296875 
z
" id="CMSS17-111"/>
      <path d="M 44.5 44 
C 38.796875 43.890625 33.90625 42.796875 29.90625 40.890625 
C 26.59375 43.484375 23.203125 44 20.90625 44 
C 12.203125 44 5.59375 36.8125 5.59375 28.5 
C 5.59375 23.140625 8.59375 19.09375 8.796875 18.890625 
C 7 16.390625 6 13.6875 6 10.6875 
C 6 7.1875 7.40625 4.6875 8.5 3.296875 
C 3.296875 0.09375 2.59375 -4.8125 2.59375 -6.703125 
C 2.59375 -14 11.703125 -20 23.40625 -20 
C 35.203125 -20 44.296875 -14 44.296875 -6.609375 
C 44.296875 7.1875 29 7.296875 24.796875 7.296875 
L 16.703125 7.296875 
C 15.203125 7.296875 11.203125 7.296875 11.203125 12.390625 
C 11.203125 14.390625 12.09375 15.6875 12.203125 15.796875 
C 13.703125 14.6875 16.796875 13 20.90625 13 
C 29.203125 13 36.09375 19.984375 36.09375 28.5 
C 36.09375 33.25 33.90625 36.703125 33 37.890625 
L 33.296875 37.890625 
C 33.59375 37.890625 37.796875 38.1875 39.296875 38.1875 
C 42.5 38.1875 42.796875 38.09375 45.59375 37.796875 
z
M 20.90625 18.5 
C 17.5 18.5 12.703125 20.578125 12.703125 28.5 
C 12.703125 37.109375 18.203125 38.484375 20.796875 38.484375 
C 24.203125 38.484375 29 36.40625 29 28.5 
C 29 19.875 23.5 18.5 20.90625 18.5 
z
M 24.703125 0 
C 27.09375 0 37.203125 0 37.203125 -6.8125 
C 37.203125 -11.109375 31 -14.5 23.5 -14.5 
C 15.90625 -14.5 9.703125 -11.203125 9.703125 -6.703125 
C 9.703125 -6.203125 9.703125 0 16.59375 0 
z
" id="CMSS17-103"/>
      <path d="M 37.59375 27.953125 
C 37.59375 37.484375 30.90625 44 21.90625 44 
C 17.5 44 12.703125 43.1875 7.203125 39.984375 
L 7.796875 33.328125 
C 10.296875 35.15625 14.59375 38.09375 21.796875 38.09375 
C 26.90625 38.09375 30 34.140625 30 27.84375 
L 30 24 
C 14 23.5 4 18.890625 4 11.109375 
C 4 7.0625 6.5 -1 14.796875 -1 
C 16.296875 -1 24.40625 -0.8125 30.203125 3.5 
L 30.203125 -0.203125 
L 37.59375 -0.203125 
z
M 30 12.875 
C 30 11.109375 30 8.734375 27 6.96875 
C 24.40625 5.296875 21.09375 5.09375 19.703125 5.09375 
C 14.703125 5.09375 11.296875 7.859375 11.296875 11.296875 
C 11.296875 18.203125 26.90625 18.890625 30 19 
z
" id="CMSS17-97"/>
      <path d="M 14.90625 21.390625 
C 14.90625 30.84375 21.796875 37.171875 30.59375 37.375 
L 30.59375 44 
C 24.203125 43.890625 18.203125 40.6875 14.59375 35.46875 
L 14.59375 43.484375 
L 7.5 43.484375 
L 7.5 0 
L 14.90625 0 
z
" id="CMSS17-114"/>
      <path d="M 15.296875 66 
L 6.90625 66 
L 6.90625 57.59375 
L 15.296875 57.59375 
z
M 14.796875 43 
L 7.40625 43 
L 7.40625 0 
L 14.796875 0 
z
" id="CMSS17-105"/>
      <path d="M 16.703125 37.1875 
L 29.703125 37.1875 
L 29.703125 43 
L 16.703125 43 
L 16.703125 55 
L 9.59375 55 
L 9.59375 43 
L 1.703125 43 
L 1.703125 37.1875 
L 9.40625 37.1875 
L 9.40625 11.734375 
C 9.40625 6 10.703125 -1 17.296875 -1 
C 22.296875 -1 26.90625 0.390625 31.296875 2.6875 
L 29.703125 8.609375 
C 27.296875 6.5 24.40625 5.296875 21.296875 5.296875 
C 16.90625 5.296875 16.703125 10.921875 16.703125 13.4375 
z
" id="CMSS17-116"/>
      <path d="M 40.90625 29.34375 
C 40.90625 35.671875 39.40625 44 28.09375 44 
C 21.796875 44 17.703125 40.890625 14.796875 37.484375 
L 14.796875 69 
L 7.40625 69 
L 7.40625 0 
L 15 0 
L 15 24.3125 
C 15 30.65625 17.40625 37.890625 24.203125 37.890625 
C 33 37.890625 33.296875 31.953125 33.296875 28.53125 
L 33.296875 0 
L 40.90625 0 
z
" id="CMSS17-104"/>
      <path d="M 38.5 39.6875 
C 38.5 40.390625 33.90625 42.390625 32.703125 42.796875 
C 29.40625 44 25.203125 44 24.09375 44 
C 11.09375 44 3.296875 32.6875 3.296875 21.296875 
C 3.296875 9.296875 12 -1 23.703125 -1 
C 30.40625 -1 35.203125 1.1875 39.09375 3.796875 
L 38.5 10.390625 
C 34.203125 7.09375 29.203125 5.296875 23.796875 5.296875 
C 16 5.296875 10.90625 12.09375 10.90625 21.390625 
C 10.90625 28.59375 14.203125 37.6875 24.203125 37.6875 
C 29.703125 37.6875 32.796875 36.59375 37.40625 33.484375 
z
" id="CMSS17-99"/>
      <path d="M 14.796875 69 
L 7.40625 69 
L 7.40625 0 
L 14.796875 0 
z
" id="CMSS17-108"/>
     </defs>
     <use transform="scale(0.996264)" xlink:href="#CMSS17-76"/>
     <use transform="translate(50.687105 0)scale(0.996264)" xlink:href="#CMSS17-111"/>
     <use transform="translate(97.530729 0)scale(0.996264)" xlink:href="#CMSS17-103"/>
     <use transform="translate(144.374352 0)scale(0.996264)" xlink:href="#CMSS17-97"/>
     <use transform="translate(186.693819 0)scale(0.996264)" xlink:href="#CMSS17-114"/>
     <use transform="translate(218.603592 0)scale(0.996264)" xlink:href="#CMSS17-105"/>
     <use transform="translate(240.784315 0)scale(0.996264)" xlink:href="#CMSS17-116"/>
     <use transform="translate(274.615881 0)scale(0.996264)" xlink:href="#CMSS17-104"/>
     <use transform="translate(322.820824 0)scale(0.996264)" xlink:href="#CMSS17-109"/>
     <use transform="translate(397.050079 0)scale(0.996264)" xlink:href="#CMSS17-105"/>
     <use transform="translate(419.230802 0)scale(0.996264)" xlink:href="#CMSS17-99"/>
     <use transform="translate(492.098737 0)scale(0.996264)" xlink:href="#CMSS17-112"/>
     <use transform="translate(542.906119 0)scale(0.996264)" xlink:href="#CMSS17-111"/>
     <use transform="translate(589.749742 0)scale(0.996264)" xlink:href="#CMSS17-108"/>
     <use transform="translate(611.930465 0)scale(0.996264)" xlink:href="#CMSS17-97"/>
     <use transform="translate(654.249932 0)scale(0.996264)" xlink:href="#CMSS17-114"/>
     <use transform="translate(717.388817 0)scale(0.996264)" xlink:href="#CMSS17-112"/>
     <use transform="translate(765.59376 0)scale(0.996264)" xlink:href="#CMSS17-108"/>
     <use transform="translate(787.774483 0)scale(0.996264)" xlink:href="#CMSS17-111"/>
     <use transform="translate(834.618107 0)scale(0.996264)" xlink:href="#CMSS17-116"/>
    </g>
   </g>
   <g id="legend_1">
    <g id="patch_6">
     <path d="M 290.867721 138.291866 
L 360.2 138.291866 
Q 362.2 138.291866 362.2 136.291866 
L 362.2 93.4 
Q 362.2 91.4 360.2 91.4 
L 290.867721 91.4 
Q 288.867721 91.4 288.867721 93.4 
L 288.867721 136.291866 
Q 288.867721 138.291866 290.867721 138.291866 
z
" style="fill:#ffffff;opacity:0.8;stroke:#cccccc;stroke-linejoin:miter;"/>
    </g>
    <g id="line2d_43">
     <path d="M 292.867721 99.498438 
L 312.867721 99.498438 
" style="fill:none;stroke:#1f77b4;stroke-linecap:square;stroke-width:1.5;"/>
    </g>
    <g id="line2d_44"/>
    <g id="text_7">
     <!-- $0\,$\% r.h. -->
     <g transform="translate(320.867721 102.998438)scale(0.1 -0.1)">
      <defs>
       <path d="M 61.296875 71.59375 
C 61.90625 72.59375 61.90625 73.09375 61.90625 73.1875 
C 61.90625 74.296875 61 75 60.203125 75 
C 59.09375 75 58.59375 74.1875 58.09375 73.1875 
L 17.203125 -1.703125 
C 17 -2.109375 16.59375 -2.703125 16.59375 -3.3125 
C 16.59375 -4.40625 17.5 -5.109375 18.40625 -5.109375 
C 19.296875 -5.109375 19.5 -4.703125 20.296875 -3.3125 
z
M 73.09375 14.890625 
C 73.09375 26.40625 66.90625 34.890625 60.09375 34.890625 
C 53.40625 34.890625 47 26.609375 47 14.890625 
C 47 3.171875 53.40625 -5.109375 60.09375 -5.109375 
C 67 -5.109375 73.09375 3.375 73.09375 14.890625 
z
M 60.09375 1 
C 58 1 54.59375 2.875 54.59375 14.890625 
C 54.59375 26.8125 58 28.796875 60.09375 28.796875 
C 63.796875 28.796875 65.796875 21.546875 65.796875 14.890625 
C 65.796875 8.234375 63.796875 1 60.09375 1 
z
M 31.296875 54.9375 
C 31.296875 66.5 25.09375 75 18.296875 75 
C 11.59375 75 5.203125 66.703125 5.203125 54.9375 
C 5.203125 43.1875 11.59375 34.890625 18.296875 34.890625 
C 25.203125 34.890625 31.296875 43.390625 31.296875 54.9375 
z
M 18.296875 41 
C 16.203125 41 12.796875 42.890625 12.796875 54.9375 
C 12.796875 66.90625 16.203125 68.890625 18.296875 68.890625 
C 22 68.890625 24 61.625 24 54.9375 
C 24 48.265625 22 41 18.296875 41 
z
" id="CMSS17-37"/>
       <path d="M 17 8 
L 9 8 
L 9 0 
L 17 0 
z
" id="CMSS17-46"/>
      </defs>
      <use transform="scale(0.996264)" xlink:href="#CMR17-48"/>
      <use transform="translate(62.294882 0)scale(0.996264)" xlink:href="#CMSS17-37"/>
      <use transform="translate(171.596731 0)scale(0.996264)" xlink:href="#CMSS17-114"/>
      <use transform="translate(203.506504 0)scale(0.996264)" xlink:href="#CMSS17-46"/>
      <use transform="translate(229.530709 0)scale(0.996264)" xlink:href="#CMSS17-104"/>
      <use transform="translate(277.735652 0)scale(0.996264)" xlink:href="#CMSS17-46"/>
     </g>
    </g>
    <g id="line2d_45">
     <path d="M 292.867721 114.176563 
L 312.867721 114.176563 
" style="fill:none;stroke:#ff7f0e;stroke-linecap:square;stroke-width:1.5;"/>
    </g>
    <g id="line2d_46"/>
    <g id="text_8">
     <!-- $30\,$\% r.h. -->
     <g transform="translate(320.867721 117.676563)scale(0.1 -0.1)">
      <use transform="scale(0.996264)" xlink:href="#CMR17-51"/>
      <use transform="translate(45.690477 0)scale(0.996264)" xlink:href="#CMR17-48"/>
      <use transform="translate(107.985359 0)scale(0.996264)" xlink:href="#CMSS17-37"/>
      <use transform="translate(217.287208 0)scale(0.996264)" xlink:href="#CMSS17-114"/>
      <use transform="translate(249.196981 0)scale(0.996264)" xlink:href="#CMSS17-46"/>
      <use transform="translate(275.221186 0)scale(0.996264)" xlink:href="#CMSS17-104"/>
      <use transform="translate(323.426129 0)scale(0.996264)" xlink:href="#CMSS17-46"/>
     </g>
    </g>
    <g id="line2d_47">
     <path d="M 292.867721 128.854688 
L 312.867721 128.854688 
" style="fill:none;stroke:#2ca02c;stroke-linecap:square;stroke-width:1.5;"/>
    </g>
    <g id="line2d_48"/>
    <g id="text_9">
     <!-- $50\,$\% r.h. -->
     <g transform="translate(320.867721 132.354688)scale(0.1 -0.1)">
      <use transform="scale(0.996264)" xlink:href="#CMR17-53"/>
      <use transform="translate(45.690477 0)scale(0.996264)" xlink:href="#CMR17-48"/>
      <use transform="translate(107.985359 0)scale(0.996264)" xlink:href="#CMSS17-37"/>
      <use transform="translate(217.287208 0)scale(0.996264)" xlink:href="#CMSS17-114"/>
      <use transform="translate(249.196981 0)scale(0.996264)" xlink:href="#CMSS17-46"/>
      <use transform="translate(275.221186 0)scale(0.996264)" xlink:href="#CMSS17-104"/>
      <use transform="translate(323.426129 0)scale(0.996264)" xlink:href="#CMSS17-46"/>
     </g>
    </g>
   </g>
  </g>
  <g id="axes_2">
   <g id="matplotlib.axis_3">
    <g id="xtick_6"/>
    <g id="xtick_7"/>
    <g id="xtick_8"/>
    <g id="xtick_9"/>
    <g id="xtick_10"/>
    <g id="xtick_11"/>
   </g>
   <g id="matplotlib.axis_4">
    <g id="ytick_29">
     <g id="line2d_49">
      <defs>
       <path d="M 0 0 
L -3.5 0 
" id="m612208e585" style="stroke:#000000;stroke-width:0.8;"/>
      </defs>
      <g>
       <use style="stroke:#000000;stroke-width:0.8;" x="43.2" xlink:href="#m612208e585" y="232.23316"/>
      </g>
     </g>
     <g id="text_10">
      <!-- $\mathdefault{1}$ -->
      <g transform="translate(31.218665 235.692409)scale(0.1 -0.1)">
       <use transform="scale(0.996264)" xlink:href="#CMR17-49"/>
      </g>
     </g>
    </g>
    <g id="ytick_30">
     <g id="line2d_50">
      <g>
       <use style="stroke:#000000;stroke-width:0.8;" x="43.2" xlink:href="#m612208e585" y="183.931602"/>
      </g>
     </g>
     <g id="text_11">
      <!-- $\mathdefault{10}$ -->
      <g transform="translate(26.237329 187.390851)scale(0.1 -0.1)">
       <use transform="scale(0.996264)" xlink:href="#CMR17-49"/>
       <use transform="translate(45.690477 0)scale(0.996264)" xlink:href="#CMR17-48"/>
      </g>
     </g>
    </g>
    <g id="ytick_31">
     <g id="line2d_51">
      <g>
       <use style="stroke:#000000;stroke-width:0.8;" x="43.2" xlink:href="#m612208e585" y="135.630043"/>
      </g>
     </g>
     <g id="text_12">
      <!-- $\mathdefault{100}$ -->
      <g transform="translate(21.255994 139.089292)scale(0.1 -0.1)">
       <use transform="scale(0.996264)" xlink:href="#CMR17-49"/>
       <use transform="translate(45.690477 0)scale(0.996264)" xlink:href="#CMR17-48"/>
       <use transform="translate(91.380954 0)scale(0.996264)" xlink:href="#CMR17-48"/>
      </g>
     </g>
    </g>
    <g id="ytick_32">
     <g id="line2d_52">
      <g>
       <use style="stroke:#000000;stroke-width:0.8;" x="43.2" xlink:href="#m612208e585" y="87.328484"/>
      </g>
     </g>
     <g id="text_13">
      <!-- $\mathdefault{1000}$ -->
      <g transform="translate(16.274659 90.787734)scale(0.1 -0.1)">
       <use transform="scale(0.996264)" xlink:href="#CMR17-49"/>
       <use transform="translate(45.690477 0)scale(0.996264)" xlink:href="#CMR17-48"/>
       <use transform="translate(91.380954 0)scale(0.996264)" xlink:href="#CMR17-48"/>
       <use transform="translate(137.071431 0)scale(0.996264)" xlink:href="#CMR17-48"/>
      </g>
     </g>
    </g>
    <g id="ytick_33">
     <g id="line2d_53">
      <defs>
       <path d="M 0 0 
L -2 0 
" id="m75dfa6a9d5" style="stroke:#000000;stroke-width:0.6;"/>
      </defs>
      <g>
       <use style="stroke:#000000;stroke-width:0.6;" x="43.2" xlink:href="#m75dfa6a9d5" y="217.692942"/>
      </g>
     </g>
    </g>
    <g id="ytick_34">
     <g id="line2d_54">
      <g>
       <use style="stroke:#000000;stroke-width:0.6;" x="43.2" xlink:href="#m75dfa6a9d5" y="209.18746"/>
      </g>
     </g>
    </g>
    <g id="ytick_35">
     <g id="line2d_55">
      <g>
       <use style="stroke:#000000;stroke-width:0.6;" x="43.2" xlink:href="#m75dfa6a9d5" y="203.152724"/>
      </g>
     </g>
    </g>
    <g id="ytick_36">
     <g id="line2d_56">
      <g>
       <use style="stroke:#000000;stroke-width:0.6;" x="43.2" xlink:href="#m75dfa6a9d5" y="198.47182"/>
      </g>
     </g>
    </g>
    <g id="ytick_37">
     <g id="line2d_57">
      <g>
       <use style="stroke:#000000;stroke-width:0.6;" x="43.2" xlink:href="#m75dfa6a9d5" y="194.647242"/>
      </g>
     </g>
    </g>
    <g id="ytick_38">
     <g id="line2d_58">
      <g>
       <use style="stroke:#000000;stroke-width:0.6;" x="43.2" xlink:href="#m75dfa6a9d5" y="191.413608"/>
      </g>
     </g>
    </g>
    <g id="ytick_39">
     <g id="line2d_59">
      <g>
       <use style="stroke:#000000;stroke-width:0.6;" x="43.2" xlink:href="#m75dfa6a9d5" y="188.612506"/>
      </g>
     </g>
    </g>
    <g id="ytick_40">
     <g id="line2d_60">
      <g>
       <use style="stroke:#000000;stroke-width:0.6;" x="43.2" xlink:href="#m75dfa6a9d5" y="186.14176"/>
      </g>
     </g>
    </g>
    <g id="ytick_41">
     <g id="line2d_61">
      <g>
       <use style="stroke:#000000;stroke-width:0.6;" x="43.2" xlink:href="#m75dfa6a9d5" y="169.391384"/>
      </g>
     </g>
    </g>
    <g id="ytick_42">
     <g id="line2d_62">
      <g>
       <use style="stroke:#000000;stroke-width:0.6;" x="43.2" xlink:href="#m75dfa6a9d5" y="160.885901"/>
      </g>
     </g>
    </g>
    <g id="ytick_43">
     <g id="line2d_63">
      <g>
       <use style="stroke:#000000;stroke-width:0.6;" x="43.2" xlink:href="#m75dfa6a9d5" y="154.851166"/>
      </g>
     </g>
    </g>
    <g id="ytick_44">
     <g id="line2d_64">
      <g>
       <use style="stroke:#000000;stroke-width:0.6;" x="43.2" xlink:href="#m75dfa6a9d5" y="150.170261"/>
      </g>
     </g>
    </g>
    <g id="ytick_45">
     <g id="line2d_65">
      <g>
       <use style="stroke:#000000;stroke-width:0.6;" x="43.2" xlink:href="#m75dfa6a9d5" y="146.345683"/>
      </g>
     </g>
    </g>
    <g id="ytick_46">
     <g id="line2d_66">
      <g>
       <use style="stroke:#000000;stroke-width:0.6;" x="43.2" xlink:href="#m75dfa6a9d5" y="143.112049"/>
      </g>
     </g>
    </g>
    <g id="ytick_47">
     <g id="line2d_67">
      <g>
       <use style="stroke:#000000;stroke-width:0.6;" x="43.2" xlink:href="#m75dfa6a9d5" y="140.310948"/>
      </g>
     </g>
    </g>
    <g id="ytick_48">
     <g id="line2d_68">
      <g>
       <use style="stroke:#000000;stroke-width:0.6;" x="43.2" xlink:href="#m75dfa6a9d5" y="137.840201"/>
      </g>
     </g>
    </g>
    <g id="ytick_49">
     <g id="line2d_69">
      <g>
       <use style="stroke:#000000;stroke-width:0.6;" x="43.2" xlink:href="#m75dfa6a9d5" y="121.089825"/>
      </g>
     </g>
    </g>
    <g id="ytick_50">
     <g id="line2d_70">
      <g>
       <use style="stroke:#000000;stroke-width:0.6;" x="43.2" xlink:href="#m75dfa6a9d5" y="112.584343"/>
      </g>
     </g>
    </g>
    <g id="ytick_51">
     <g id="line2d_71">
      <g>
       <use style="stroke:#000000;stroke-width:0.6;" x="43.2" xlink:href="#m75dfa6a9d5" y="106.549607"/>
      </g>
     </g>
    </g>
    <g id="ytick_52">
     <g id="line2d_72">
      <g>
       <use style="stroke:#000000;stroke-width:0.6;" x="43.2" xlink:href="#m75dfa6a9d5" y="101.868702"/>
      </g>
     </g>
    </g>
    <g id="ytick_53">
     <g id="line2d_73">
      <g>
       <use style="stroke:#000000;stroke-width:0.6;" x="43.2" xlink:href="#m75dfa6a9d5" y="98.044125"/>
      </g>
     </g>
    </g>
    <g id="ytick_54">
     <g id="line2d_74">
      <g>
       <use style="stroke:#000000;stroke-width:0.6;" x="43.2" xlink:href="#m75dfa6a9d5" y="94.81049"/>
      </g>
     </g>
    </g>
    <g id="ytick_55">
     <g id="line2d_75">
      <g>
       <use style="stroke:#000000;stroke-width:0.6;" x="43.2" xlink:href="#m75dfa6a9d5" y="92.009389"/>
      </g>
     </g>
    </g>
    <g id="ytick_56">
     <g id="line2d_76">
      <g>
       <use style="stroke:#000000;stroke-width:0.6;" x="43.2" xlink:href="#m75dfa6a9d5" y="89.538642"/>
      </g>
     </g>
    </g>
    <g id="text_14">
     <!-- Sensor signals -->
     <g transform="translate(10.337481 185.469497)rotate(-90)scale(0.1 -0.1)">
      <defs>
       <path d="M 43.703125 66.09375 
C 39.296875 68.6875 34.5 71 26.40625 71 
C 13.5 71 5.203125 61.46875 5.203125 51.703125 
C 5.203125 47.875 6.296875 43.546875 10.203125 39.125 
C 14.09375 34.6875 18.5 33.484375 24.09375 32.078125 
C 26.40625 31.46875 30.296875 30.359375 31 30.0625 
C 36.59375 27.84375 39.296875 22.71875 39.296875 17.875 
C 39.296875 11.53125 34.40625 4.796875 25.703125 4.796875 
C 22.703125 4.796875 13.90625 5.296875 5.59375 12.953125 
L 4.203125 5 
C 12.40625 -1 21.296875 -2 25.796875 -2 
C 38.09375 -2 46.90625 7.71875 46.90625 18.78125 
C 46.90625 22.8125 45.703125 27.953125 41.5 32.6875 
C 37.40625 37.203125 33.796875 38.21875 25.59375 40.4375 
C 20.90625 41.640625 17.90625 42.453125 15.40625 45.5625 
C 13.703125 47.78125 12.796875 49.890625 12.796875 52.609375 
C 12.796875 58.25 17.59375 64.390625 26.40625 64.390625 
C 30.796875 64.390625 36.5 63.484375 42.296875 58.046875 
z
" id="CMSS17-83"/>
       <path d="M 39.09375 21.484375 
C 39.09375 24.796875 38.90625 31.265625 35.703125 36.671875 
C 32.203125 42.390625 26.5 44 22.203125 44 
C 11.796875 44 3 34.125 3 21.296875 
C 3 9.046875 12.09375 -1 23.59375 -1 
C 28.09375 -1 33.59375 0.296875 38.59375 3.890625 
C 38.59375 4.296875 38.40625 6.46875 38.296875 6.578125 
C 38.296875 6.765625 38 9.828125 38 10.234375 
C 33.203125 6.375 27.703125 5.09375 23.703125 5.09375 
C 17.296875 5.09375 10.40625 10.421875 10.09375 21.484375 
z
M 10.90625 27 
C 12.203125 32.59375 16.59375 37.890625 22.203125 37.890625 
C 23.703125 37.890625 30.703125 37.6875 32.5 27 
z
" id="CMSS17-101"/>
       <path d="M 40.90625 29.34375 
C 40.90625 35.671875 39.40625 44 28.09375 44 
C 21.703125 44 17.5 40.6875 14.703125 37.28125 
L 14.703125 43.484375 
L 7.40625 43.484375 
L 7.40625 0 
L 15 0 
L 15 24.3125 
C 15 30.65625 17.40625 37.890625 24.203125 37.890625 
C 33 37.890625 33.296875 31.953125 33.296875 28.53125 
L 33.296875 0 
L 40.90625 0 
z
" id="CMSS17-110"/>
       <path d="M 32.203125 40.984375 
C 26.296875 43.796875 21.703125 44 18.703125 44 
C 11.59375 44 3.09375 41.484375 3.09375 31.390625 
C 3.09375 21.296875 14.09375 19.09375 17.09375 18.484375 
C 21.703125 17.59375 26.796875 16.59375 26.796875 11.59375 
C 26.796875 5.296875 19.59375 5.296875 18.296875 5.296875 
C 14.296875 5.296875 8.796875 6.390625 3.796875 9.984375 
L 2.59375 3.296875 
C 8.296875 0 13.796875 -1 18.40625 -1 
C 30.703125 -1 33.796875 6.5 33.796875 12.1875 
C 33.796875 17.09375 31 20.390625 29.09375 21.890625 
C 25.796875 24.484375 24.59375 24.796875 16.40625 26.484375 
C 15 26.6875 10.09375 27.796875 10.09375 32.296875 
C 10.09375 37.984375 16.40625 37.984375 17.796875 37.984375 
C 24.296875 37.984375 28.296875 35.984375 31 34.484375 
z
" id="CMSS17-115"/>
      </defs>
      <use transform="scale(0.996264)" xlink:href="#CMSS17-83"/>
      <use transform="translate(52.048516 0)scale(0.996264)" xlink:href="#CMSS17-101"/>
      <use transform="translate(93.687338 0)scale(0.996264)" xlink:href="#CMSS17-110"/>
      <use transform="translate(141.892281 0)scale(0.996264)" xlink:href="#CMSS17-115"/>
      <use transform="translate(177.805823 0)scale(0.996264)" xlink:href="#CMSS17-111"/>
      <use transform="translate(222.046993 0)scale(0.996264)" xlink:href="#CMSS17-114"/>
      <use transform="translate(285.185878 0)scale(0.996264)" xlink:href="#CMSS17-115"/>
      <use transform="translate(321.09942 0)scale(0.996264)" xlink:href="#CMSS17-105"/>
      <use transform="translate(343.280143 0)scale(0.996264)" xlink:href="#CMSS17-103"/>
      <use transform="translate(390.123767 0)scale(0.996264)" xlink:href="#CMSS17-110"/>
      <use transform="translate(438.32871 0)scale(0.996264)" xlink:href="#CMSS17-97"/>
      <use transform="translate(483.250631 0)scale(0.996264)" xlink:href="#CMSS17-108"/>
      <use transform="translate(505.431354 0)scale(0.996264)" xlink:href="#CMSS17-115"/>
     </g>
    </g>
   </g>
   <g id="patch_7">
    <path d="M 43.2 232.23316 
L 43.2 81.03316 
" style="fill:none;stroke:#000000;stroke-linecap:square;stroke-linejoin:miter;stroke-width:0.8;"/>
   </g>
  </g>
 </g>
 <defs>
  <clipPath id="pf492ab44c6">
   <path d="M 367.2 237.6 
C 367.2 217.744598 363.288919 198.082265 355.690585 179.738265 
C 348.092252 161.394265 336.954435 144.725344 322.914545 130.685455 
C 308.874656 116.645565 292.205735 105.507748 273.861735 97.909415 
C 255.517735 90.311081 235.855402 86.4 216 86.4 
C 196.144598 86.4 176.482265 90.311081 158.138265 97.909415 
C 139.794265 105.507748 123.125344 116.645565 109.085455 130.685455 
C 95.045565 144.725344 83.907748 161.394265 76.309415 179.738265 
C 68.711081 198.082265 64.8 217.744598 64.8 237.6 
C 64.8 257.455402 68.711081 277.117735 76.309415 295.461735 
C 83.907748 313.805735 95.045565 330.474656 109.085455 344.514545 
C 123.125344 358.554435 139.794265 369.692252 158.138265 377.290585 
C 176.482265 384.888919 196.144598 388.8 216 388.8 
C 235.855402 388.8 255.517735 384.888919 273.861735 377.290585 
C 292.205735 369.692252 308.874656 358.554435 322.914545 344.514545 
C 336.954435 330.474656 348.092252 313.805735 355.690585 295.461735 
C 363.288919 277.117735 367.2 257.455402 367.2 237.6 
M 216 237.6 
C 216 237.6 216 237.6 216 237.6 
C 216 237.6 216 237.6 216 237.6 
C 216 237.6 216 237.6 216 237.6 
C 216 237.6 216 237.6 216 237.6 
C 216 237.6 216 237.6 216 237.6 
C 216 237.6 216 237.6 216 237.6 
C 216 237.6 216 237.6 216 237.6 
C 216 237.6 216 237.6 216 237.6 
C 216 237.6 216 237.6 216 237.6 
C 216 237.6 216 237.6 216 237.6 
C 216 237.6 216 237.6 216 237.6 
C 216 237.6 216 237.6 216 237.6 
C 216 237.6 216 237.6 216 237.6 
C 216 237.6 216 237.6 216 237.6 
C 216 237.6 216 237.6 216 237.6 
C 216 237.6 216 237.6 216 237.6 
M 367.2 237.6 
z
"/>
  </clipPath>
 </defs>
</svg>
